<svg xmlns="http://www.w3.org/2000/svg" xmlns:xlink="http://www.w3.org/1999/xlink" width="150" zoomAndPan="magnify" viewBox="0 0 112.5 112.499997" height="150" preserveAspectRatio="xMidYMid meet" version="1.0"><defs><clipPath id="id1"><path d="M 12.234375 0 L 99.984375 0 L 99.984375 112.003906 L 12.234375 112.003906 Z M 12.234375 0 " clip-rule="nonzero"/></clipPath></defs><g clip-path="url(#id1)"><path fill="#231f20" d="M 21.828125 3.273438 C 18.421875 3.273438 15.648438 6.054688 15.648438 9.472656 L 15.648438 103.066406 C 15.648438 106.484375 18.421875 109.265625 21.828125 109.265625 L 90.429688 109.265625 C 93.835938 109.265625 96.609375 106.484375 96.609375 103.066406 L 96.609375 9.472656 C 96.609375 6.054688 93.835938 3.273438 90.429688 3.273438 Z M 90.429688 112.523438 L 21.828125 112.523438 C 16.632812 112.523438 12.402344 108.277344 12.402344 103.066406 L 12.402344 9.472656 C 12.402344 4.261719 16.632812 0.015625 21.828125 0.015625 L 90.429688 0.015625 C 95.625 0.015625 99.855469 4.261719 99.855469 9.472656 L 99.855469 103.066406 C 99.855469 108.277344 95.625 112.523438 90.429688 112.523438 " fill-opacity="1" fill-rule="nonzero"/></g><path fill="#231f20" d="M 85.339844 14.445312 C 85.125 14.445312 84.898438 14.453125 84.667969 14.476562 C 84.617188 14.480469 84.570312 14.484375 84.519531 14.484375 L 27.273438 14.523438 C 24.265625 14.523438 22.980469 15.695312 22.980469 18.457031 L 22.980469 27.886719 C 22.980469 31.351562 24.554688 31.816406 26.097656 31.816406 L 85.265625 31.816406 C 87.539062 31.816406 89.277344 31.527344 89.277344 27.886719 L 89.277344 18.457031 C 89.277344 17.25 88.890625 14.445312 85.339844 14.445312 Z M 85.265625 35.191406 L 26.097656 35.191406 C 22.039062 35.191406 19.617188 32.457031 19.617188 27.886719 L 19.617188 18.457031 C 19.617188 13.8125 22.40625 11.148438 27.269531 11.148438 L 84.449219 11.109375 C 90.164062 10.644531 92.640625 14.570312 92.640625 18.457031 L 92.640625 27.886719 C 92.640625 32.734375 90.15625 35.191406 85.265625 35.191406 " fill-opacity="1" fill-rule="nonzero"/><path fill="#231f20" d="M 22.863281 49.316406 L 28.875 49.316406 L 28.875 43.101562 L 22.863281 43.101562 Z M 29.800781 52.570312 L 21.941406 52.570312 C 20.660156 52.570312 19.617188 51.523438 19.617188 50.242188 L 19.617188 42.171875 C 19.617188 40.890625 20.660156 39.847656 21.941406 39.847656 L 29.800781 39.847656 C 31.078125 39.847656 32.121094 40.890625 32.121094 42.171875 L 32.121094 50.242188 C 32.121094 51.523438 31.078125 52.570312 29.800781 52.570312 " fill-opacity="1" fill-rule="nonzero"/><path fill="#231f20" d="M 37.925781 49.316406 L 43.941406 49.316406 L 43.941406 43.101562 L 37.925781 43.101562 Z M 44.863281 52.570312 L 37 52.570312 C 35.722656 52.570312 34.683594 51.523438 34.683594 50.242188 L 34.683594 42.171875 C 34.683594 40.890625 35.722656 39.847656 37 39.847656 L 44.863281 39.847656 C 46.140625 39.847656 47.183594 40.890625 47.183594 42.171875 L 47.183594 50.242188 C 47.183594 51.523438 46.140625 52.570312 44.863281 52.570312 " fill-opacity="1" fill-rule="nonzero"/><path fill="#231f20" d="M 52.992188 49.316406 L 59 49.316406 L 59 43.101562 L 52.992188 43.101562 Z M 59.925781 52.570312 L 52.066406 52.570312 C 50.785156 52.570312 49.746094 51.523438 49.746094 50.242188 L 49.746094 42.171875 C 49.746094 40.890625 50.785156 39.847656 52.066406 39.847656 L 59.925781 39.847656 C 61.207031 39.847656 62.246094 40.890625 62.246094 42.171875 L 62.246094 50.242188 C 62.246094 51.523438 61.207031 52.570312 59.925781 52.570312 " fill-opacity="1" fill-rule="nonzero"/><path fill="#231f20" d="M 68.050781 49.316406 L 74.066406 49.316406 L 74.066406 43.101562 L 68.050781 43.101562 Z M 74.988281 52.570312 L 67.128906 52.570312 C 65.851562 52.570312 64.808594 51.523438 64.808594 50.242188 L 64.808594 42.171875 C 64.808594 40.890625 65.851562 39.847656 67.128906 39.847656 L 74.988281 39.847656 C 76.269531 39.847656 77.308594 40.890625 77.308594 42.171875 L 77.308594 50.242188 C 77.308594 51.523438 76.269531 52.570312 74.988281 52.570312 " fill-opacity="1" fill-rule="nonzero"/><path fill="#231f20" d="M 22.863281 65.613281 L 28.875 65.613281 L 28.875 59.398438 L 22.863281 59.398438 Z M 29.800781 68.867188 L 21.941406 68.867188 C 20.660156 68.867188 19.617188 67.824219 19.617188 66.539062 L 19.617188 58.472656 C 19.617188 57.1875 20.660156 56.144531 21.941406 56.144531 L 29.800781 56.144531 C 31.078125 56.144531 32.121094 57.1875 32.121094 58.472656 L 32.121094 66.539062 C 32.121094 67.824219 31.078125 68.867188 29.800781 68.867188 " fill-opacity="1" fill-rule="nonzero"/><path fill="#231f20" d="M 37.925781 65.613281 L 43.941406 65.613281 L 43.941406 59.398438 L 37.925781 59.398438 Z M 44.863281 68.867188 L 37 68.867188 C 35.722656 68.867188 34.683594 67.824219 34.683594 66.539062 L 34.683594 58.472656 C 34.683594 57.1875 35.722656 56.144531 37 56.144531 L 44.863281 56.144531 C 46.140625 56.144531 47.183594 57.1875 47.183594 58.472656 L 47.183594 66.539062 C 47.183594 67.824219 46.140625 68.867188 44.863281 68.867188 " fill-opacity="1" fill-rule="nonzero"/><path fill="#231f20" d="M 52.992188 65.613281 L 59 65.613281 L 59 59.398438 L 52.992188 59.398438 Z M 59.925781 68.867188 L 52.066406 68.867188 C 50.785156 68.867188 49.746094 67.824219 49.746094 66.539062 L 49.746094 58.472656 C 49.746094 57.1875 50.785156 56.144531 52.066406 56.144531 L 59.925781 56.144531 C 61.207031 56.144531 62.246094 57.1875 62.246094 58.472656 L 62.246094 66.539062 C 62.246094 67.824219 61.207031 68.867188 59.925781 68.867188 " fill-opacity="1" fill-rule="nonzero"/><path fill="#231f20" d="M 68.050781 65.605469 L 74.066406 65.605469 L 74.066406 59.390625 L 68.050781 59.390625 Z M 74.988281 68.863281 L 67.128906 68.863281 C 65.851562 68.863281 64.808594 67.816406 64.808594 66.53125 L 64.808594 58.464844 C 64.808594 57.183594 65.851562 56.136719 67.128906 56.136719 L 74.988281 56.136719 C 76.269531 56.136719 77.308594 57.183594 77.308594 58.464844 L 77.308594 66.53125 C 77.308594 67.816406 76.269531 68.863281 74.988281 68.863281 " fill-opacity="1" fill-rule="nonzero"/><path fill="#231f20" d="M 22.863281 81.914062 L 28.875 81.914062 L 28.875 75.699219 L 22.863281 75.699219 Z M 29.800781 85.167969 L 21.941406 85.167969 C 20.660156 85.167969 19.617188 84.125 19.617188 82.839844 L 19.617188 74.773438 C 19.617188 73.488281 20.660156 72.445312 21.941406 72.445312 L 29.800781 72.445312 C 31.078125 72.445312 32.121094 73.488281 32.121094 74.773438 L 32.121094 82.839844 C 32.121094 84.125 31.078125 85.167969 29.800781 85.167969 " fill-opacity="1" fill-rule="nonzero"/><path fill="#231f20" d="M 37.925781 81.914062 L 43.941406 81.914062 L 43.941406 75.699219 L 37.925781 75.699219 Z M 44.863281 85.167969 L 37 85.167969 C 35.722656 85.167969 34.683594 84.125 34.683594 82.839844 L 34.683594 74.773438 C 34.683594 73.488281 35.722656 72.445312 37 72.445312 L 44.863281 72.445312 C 46.140625 72.445312 47.183594 73.488281 47.183594 74.773438 L 47.183594 82.839844 C 47.183594 84.125 46.140625 85.167969 44.863281 85.167969 " fill-opacity="1" fill-rule="nonzero"/><path fill="#231f20" d="M 52.992188 81.914062 L 59 81.914062 L 59 75.699219 L 52.992188 75.699219 Z M 59.925781 85.167969 L 52.066406 85.167969 C 50.785156 85.167969 49.746094 84.125 49.746094 82.839844 L 49.746094 74.773438 C 49.746094 73.488281 50.785156 72.445312 52.066406 72.445312 L 59.925781 72.445312 C 61.207031 72.445312 62.246094 73.488281 62.246094 74.773438 L 62.246094 82.839844 C 62.246094 84.125 61.207031 85.167969 59.925781 85.167969 " fill-opacity="1" fill-rule="nonzero"/><path fill="#231f20" d="M 22.863281 98.210938 L 28.875 98.210938 L 28.875 91.996094 L 22.863281 91.996094 Z M 29.800781 101.46875 L 21.941406 101.46875 C 20.660156 101.46875 19.617188 100.421875 19.617188 99.136719 L 19.617188 91.074219 C 19.617188 89.785156 20.660156 88.742188 21.941406 88.742188 L 29.800781 88.742188 C 31.078125 88.742188 32.121094 89.785156 32.121094 91.074219 L 32.121094 99.136719 C 32.121094 100.421875 31.078125 101.46875 29.800781 101.46875 " fill-opacity="1" fill-rule="nonzero"/><path fill="#231f20" d="M 37.925781 98.210938 L 43.941406 98.210938 L 43.941406 91.996094 L 37.925781 91.996094 Z M 44.863281 101.46875 L 37 101.46875 C 35.722656 101.46875 34.683594 100.421875 34.683594 99.136719 L 34.683594 91.074219 C 34.683594 89.785156 35.722656 88.742188 37 88.742188 L 44.863281 88.742188 C 46.140625 88.742188 47.183594 89.785156 47.183594 91.074219 L 47.183594 99.136719 C 47.183594 100.421875 46.140625 101.46875 44.863281 101.46875 " fill-opacity="1" fill-rule="nonzero"/><path fill="#231f20" d="M 52.992188 98.210938 L 59 98.210938 L 59 91.996094 L 52.992188 91.996094 Z M 59.925781 101.46875 L 52.066406 101.46875 C 50.785156 101.46875 49.746094 100.421875 49.746094 99.136719 L 49.746094 91.074219 C 49.746094 89.785156 50.785156 88.742188 52.066406 88.742188 L 59.925781 88.742188 C 61.207031 88.742188 62.246094 89.785156 62.246094 91.074219 L 62.246094 99.136719 C 62.246094 100.421875 61.207031 101.46875 59.925781 101.46875 " fill-opacity="1" fill-rule="nonzero"/><path fill="#231f20" d="M 68.050781 81.902344 L 74.066406 81.902344 L 74.066406 75.683594 L 68.050781 75.683594 Z M 74.988281 85.152344 L 67.128906 85.152344 C 65.851562 85.152344 64.808594 84.109375 64.808594 82.824219 L 64.808594 74.757812 C 64.808594 73.476562 65.851562 72.429688 67.128906 72.429688 L 74.988281 72.429688 C 76.269531 72.429688 77.308594 73.476562 77.308594 74.757812 L 77.308594 82.824219 C 77.308594 84.109375 76.269531 85.152344 74.988281 85.152344 " fill-opacity="1" fill-rule="nonzero"/><path fill="#231f20" d="M 83.382812 81.902344 L 83.382812 43.101562 L 89.394531 43.101562 L 89.394531 81.902344 Z M 90.320312 39.847656 L 82.457031 39.847656 C 81.175781 39.847656 80.136719 40.890625 80.136719 42.171875 L 80.136719 82.824219 C 80.136719 84.109375 81.175781 85.152344 82.457031 85.152344 L 90.320312 85.152344 C 91.597656 85.152344 92.640625 84.109375 92.640625 82.824219 L 92.640625 42.171875 C 92.640625 40.890625 91.597656 39.847656 90.320312 39.847656 " fill-opacity="1" fill-rule="nonzero"/><path fill="#231f20" d="M 89.570312 98.164062 L 68.03125 98.164062 L 68.03125 92.042969 L 89.570312 92.042969 Z M 64.808594 91.105469 L 64.808594 99.101562 C 64.808594 100.40625 65.535156 101.46875 67.1875 101.46875 L 90.34375 101.46875 C 91.132812 101.46875 92.640625 100.957031 92.640625 99.101562 L 92.640625 91.105469 C 92.640625 89.398438 91.027344 88.742188 90.238281 88.742188 L 67.152344 88.742188 C 65.570312 88.742188 64.808594 89.800781 64.808594 91.105469 " fill-opacity="1" fill-rule="nonzero"/></svg>