<svg xmlns="http://www.w3.org/2000/svg" xmlns:xlink="http://www.w3.org/1999/xlink" width="150" zoomAndPan="magnify" viewBox="0 0 112.5 112.499997" height="150" preserveAspectRatio="xMidYMid meet" version="1.0"><path fill="#e3f2ff" d="M 86.75 47.347656 C 83.539062 38.464844 70.730469 34.582031 61.15625 39.511719 C 56.707031 27.519531 43.402344 27.992188 39.46875 40.277344 C 31.179688 36.296875 20.921875 40.933594 19.464844 49.503906 C 9.75 49.539062 2.050781 55.136719 2.066406 61.867188 C 2.085938 69.40625 11.953125 75.015625 22.464844 73.457031 C 27.390625 83.121094 47.121094 85.242188 56.554688 77.035156 C 63.765625 85.214844 81.210938 83.101562 84.203125 73.605469 C 95.621094 77.296875 110.234375 71.910156 110.234375 60.804688 C 110.234375 50.601562 97.835938 45.128906 86.75 47.347656 " fill-opacity="1" fill-rule="nonzero"/><path fill="#e3f2ff" d="M 86.75 47.347656 C 83.539062 38.464844 70.730469 34.582031 61.15625 39.511719 C 56.707031 27.519531 43.402344 27.992188 39.46875 40.277344 C 31.179688 36.296875 20.921875 40.933594 19.464844 49.503906 C 9.75 49.539062 2.050781 55.136719 2.066406 61.867188 C 2.085938 69.40625 11.953125 75.015625 22.464844 73.457031 C 27.390625 83.121094 47.121094 85.242188 56.554688 77.035156 C 63.765625 85.214844 81.210938 83.101562 84.203125 73.605469 C 95.621094 77.296875 110.234375 71.910156 110.234375 60.804688 C 110.234375 50.601562 97.835938 45.128906 86.75 47.347656 " fill-opacity="1" fill-rule="nonzero"/><path fill="#ffffff" d="M 19.378906 49.507812 C 18.796875 50.601562 18.378906 51.792969 18.160156 53.078125 C 11.289062 53.097656 5.390625 55.761719 2.347656 59.625 C 3.8125 53.957031 10.808594 49.566406 19.378906 49.507812 " fill-opacity="1" fill-rule="nonzero"/><path fill="#ffffff" d="M 109.746094 57.425781 C 105.488281 51.800781 96.296875 49.21875 87.839844 50.882812 C 84.511719 41.84375 71.25 37.898438 61.335938 42.910156 C 56.726562 30.714844 42.949219 31.199219 38.875 43.6875 C 31.640625 40.277344 22.953125 43.09375 19.503906 49.28125 C 21.101562 40.851562 31.253906 36.332031 39.46875 40.273438 C 43.40625 27.992188 56.707031 27.519531 61.15625 39.511719 C 70.730469 34.585938 83.535156 38.464844 86.75 47.347656 C 96.542969 45.390625 107.355469 49.429688 109.746094 57.425781 " fill-opacity="1" fill-rule="nonzero"/><path fill="#e3f2ff" d="M 19.503906 49.28125 C 19.488281 49.355469 19.476562 49.429688 19.460938 49.507812 L 19.378906 49.507812 C 19.417969 49.429688 19.460938 49.355469 19.503906 49.28125 " fill-opacity="1" fill-rule="nonzero"/><path fill="#b6d5f0" d="M 84.199219 73.605469 C 81.226562 83.074219 63.789062 85.238281 56.550781 77.035156 C 47.109375 85.253906 27.378906 83.105469 22.464844 73.457031 C 10.816406 75.191406 -0.0078125 68.082031 2.402344 59.441406 C 4.214844 65.789062 13.144531 70.074219 22.464844 68.6875 C 25.03125 73.722656 32.332031 77.351562 40.941406 77.351562 C 47.332031 77.351562 53.097656 71.691406 56.644531 68.605469 C 59.339844 71.660156 63.988281 77.351562 69.386719 77.351562 C 76.617188 77.351562 82.667969 73.710938 84.199219 68.832031 C 94.734375 72.238281 108.0625 67.921875 109.996094 58.421875 C 112.488281 70.660156 96.792969 77.675781 84.199219 73.605469 " fill-opacity="1" fill-rule="nonzero"/><path fill="#b6d5f0" d="M 100.484375 68.632812 C 93.109375 74.9375 83.089844 72.402344 79.546875 63.390625 C 85.070312 68.734375 93.109375 70.75 100.484375 68.632812 " fill-opacity="1" fill-rule="nonzero"/><path fill="#b6d5f0" d="M 29.890625 65.449219 C 24.605469 73.601562 14.28125 74.03125 8.332031 66.402344 C 15.140625 69.953125 23.421875 69.585938 29.890625 65.449219 " fill-opacity="1" fill-rule="nonzero"/><path fill="#b6d5f0" d="M 67.753906 64.550781 C 62.464844 72.707031 52.144531 73.136719 46.195312 65.507812 C 53.003906 69.054688 61.28125 68.6875 67.753906 64.550781 " fill-opacity="1" fill-rule="nonzero"/><path fill="#ffffff" d="M 32.671875 56.917969 C 37.960938 48.761719 48.285156 48.332031 54.230469 55.960938 C 47.421875 52.414062 39.144531 52.78125 32.671875 56.917969 " fill-opacity="1" fill-rule="nonzero"/><path fill="#ffffff" d="M 82.882812 53.714844 C 88.167969 45.558594 98.492188 45.128906 104.441406 52.757812 C 97.632812 49.207031 89.351562 49.574219 82.882812 53.714844 " fill-opacity="1" fill-rule="nonzero"/><path fill="#ffffff" d="M 58.925781 45.582031 C 63.597656 37.054688 73.859375 35.859375 80.351562 43.023438 C 73.300781 39.992188 65.074219 40.972656 58.925781 45.582031 " fill-opacity="1" fill-rule="nonzero"/><path fill="#ffffff" d="M 20.585938 46.3125 C 25.796875 38.105469 36.113281 37.574219 42.136719 45.144531 C 35.292969 41.664062 27.019531 42.109375 20.585938 46.3125 " fill-opacity="1" fill-rule="nonzero"/></svg>