<svg xmlns="http://www.w3.org/2000/svg" xmlns:xlink="http://www.w3.org/1999/xlink" width="150" zoomAndPan="magnify" viewBox="0 0 112.5 112.499997" height="150" preserveAspectRatio="xMidYMid meet" version="1.0"><defs><clipPath id="id1"><path d="M 1 33 L 112.003906 33 L 112.003906 77 L 1 77 Z M 1 33 " clip-rule="nonzero"/></clipPath><clipPath id="id2"><path d="M 1 57 L 112.003906 57 L 112.003906 77 L 1 77 Z M 1 57 " clip-rule="nonzero"/></clipPath></defs><g clip-path="url(#id1)"><path fill="#e3f2ff" d="M 103.238281 58.761719 C 106.621094 52.21875 99.144531 45.542969 88.496094 45.273438 C 88.382812 42.0625 86.582031 38.648438 83.402344 36.277344 C 77.992188 32.238281 70.839844 32.878906 68.234375 37.851562 C 60.71875 34.246094 51.820312 37.671875 47.933594 46.117188 C 47.910156 46.148438 47.882812 46.179688 47.859375 46.207031 C 41.753906 43.761719 34.367188 46.226562 32.15625 51.4375 C 20.566406 45.136719 1.519531 49.914062 1.519531 58.832031 C 1.519531 66.691406 16.75 71.773438 28.933594 67.628906 C 33.644531 76.867188 44.257812 78.804688 47.6875 71.253906 C 52.375 76.792969 59.449219 78.21875 65.359375 75.386719 C 70.136719 77.675781 75.902344 77.261719 80.546875 73.644531 C 91.78125 80.164062 112.363281 75.921875 112.363281 67.132812 C 112.363281 63.554688 108.691406 60.433594 103.238281 58.761719 " fill-opacity="1" fill-rule="nonzero"/></g><path fill="#ffffff" d="M 104.046875 55.550781 C 101.71875 52.320312 95.996094 49.996094 89.226562 49.851562 C 89.109375 47.066406 87.261719 44.101562 84.007812 42.042969 C 78.46875 38.539062 71.148438 39.085938 68.460938 43.410156 C 60.742188 40.273438 51.632812 43.269531 47.65625 50.589844 C 47.628906 50.613281 47.605469 50.640625 47.578125 50.664062 C 41.429688 48.582031 33.792969 50.59375 31.488281 55.207031 C 22.023438 50.851562 6.582031 52.46875 1.558594 58.148438 C 2.550781 49.574219 20.980469 45.359375 32.15625 51.4375 C 34.375 46.199219 41.792969 43.773438 47.859375 46.210938 C 47.882812 46.179688 47.910156 46.148438 47.933594 46.117188 C 51.839844 37.632812 60.757812 34.261719 68.234375 37.851562 C 70.824219 32.898438 77.972656 32.222656 83.402344 36.277344 C 86.582031 38.648438 88.382812 42.0625 88.496094 45.273438 C 97.144531 45.492188 104.046875 50.007812 104.046875 55.550781 " fill-opacity="1" fill-rule="nonzero"/><g clip-path="url(#id2)"><path fill="#b6d5f0" d="M 112.363281 67.132812 C 112.363281 75.839844 91.890625 80.222656 80.550781 73.644531 C 75.902344 77.261719 70.132812 77.675781 65.359375 75.386719 C 59.449219 78.222656 52.371094 76.792969 47.6875 71.253906 C 44.292969 78.738281 33.722656 76.96875 28.933594 67.625 C 16.148438 71.980469 0.117188 66.152344 1.609375 57.78125 C 2.976562 61.933594 17.789062 64.117188 28.933594 62.03125 C 33.652344 67.109375 44.273438 68.164062 47.6875 64.023438 C 52.496094 67.140625 59.605469 67.804688 65.359375 66.289062 C 70.171875 67.558594 75.929688 67.308594 80.550781 65.332031 C 83.894531 66.398438 89.675781 69.585938 95.03125 69.585938 C 102.890625 69.585938 109.007812 66.625 111.339844 63.929688 C 112 64.933594 112.363281 66.007812 112.363281 67.132812 " fill-opacity="1" fill-rule="nonzero"/></g><path fill="#b6d5f0" d="M 104.042969 55.445312 C 104.042969 55.394531 104.042969 55.34375 104.042969 55.292969 C 104.046875 55.335938 104.046875 55.421875 104.042969 55.445312 " fill-opacity="1" fill-rule="nonzero"/><path fill="#b6d5f0" d="M 99.167969 72.601562 C 91.855469 73.511719 81.6875 68.550781 77.921875 62.257812 C 83.609375 67.199219 91.765625 71.175781 99.167969 72.601562 " fill-opacity="1" fill-rule="nonzero"/><path fill="#b6d5f0" d="M 35.980469 58.488281 C 32.996094 63.554688 25.449219 65.753906 20.21875 63.109375 C 25.625 63.5625 31.679688 61.789062 35.980469 58.488281 " fill-opacity="1" fill-rule="nonzero"/><path fill="#b6d5f0" d="M 74.023438 62.324219 C 69.671875 69.214844 61.699219 69.1875 57.375 62.324219 C 62.5 65.675781 68.894531 65.675781 74.023438 62.324219 " fill-opacity="1" fill-rule="nonzero"/><path fill="#b6d5f0" d="M 82.347656 48.433594 C 77.996094 55.320312 70.023438 55.296875 65.699219 48.433594 C 70.824219 51.78125 77.21875 51.785156 82.347656 48.433594 " fill-opacity="1" fill-rule="nonzero"/></svg>