<svg xmlns="http://www.w3.org/2000/svg" xmlns:xlink="http://www.w3.org/1999/xlink" width="150" zoomAndPan="magnify" viewBox="0 0 112.5 112.499997" height="150" preserveAspectRatio="xMidYMid meet" version="1.0"><defs><clipPath id="id1"><path d="M 44 106 L 69 106 L 69 112.003906 L 44 112.003906 Z M 44 106 " clip-rule="nonzero"/></clipPath><clipPath id="id2"><path d="M 94 50 L 109.125 50 L 109.125 56 L 94 56 Z M 94 50 " clip-rule="nonzero"/></clipPath><clipPath id="id3"><path d="M 3.375 50 L 19 50 L 19 56 L 3.375 56 Z M 3.375 50 " clip-rule="nonzero"/></clipPath></defs><path fill="#000000" d="M 72.566406 91.101562 C 72.566406 92.398438 71.515625 93.449219 70.21875 93.449219 L 42.234375 93.449219 C 40.9375 93.449219 39.886719 92.398438 39.886719 91.101562 C 39.886719 89.804688 40.9375 88.753906 42.234375 88.753906 L 70.21875 88.753906 C 71.515625 88.753906 72.566406 89.804688 72.566406 91.101562 " fill-opacity="1" fill-rule="nonzero"/><path fill="#000000" d="M 72.566406 97.058594 C 72.566406 98.355469 71.515625 99.40625 70.21875 99.40625 L 42.234375 99.40625 C 40.9375 99.40625 39.886719 98.355469 39.886719 97.058594 C 39.886719 95.761719 40.9375 94.710938 42.234375 94.710938 L 70.21875 94.710938 C 71.515625 94.710938 72.566406 95.761719 72.566406 97.058594 " fill-opacity="1" fill-rule="nonzero"/><path fill="#000000" d="M 70.515625 103.015625 C 70.515625 104.3125 69.464844 105.367188 68.171875 105.367188 L 44.28125 105.367188 C 42.984375 105.367188 41.933594 104.3125 41.933594 103.015625 C 41.933594 101.722656 42.984375 100.671875 44.28125 100.671875 L 68.171875 100.671875 C 69.464844 100.671875 70.515625 101.722656 70.515625 103.015625 " fill-opacity="1" fill-rule="nonzero"/><g clip-path="url(#id1)"><path fill="#000000" d="M 62.210938 112.503906 L 50.238281 112.472656 L 44.28125 106.628906 L 68.171875 106.65625 L 62.210938 112.503906 " fill-opacity="1" fill-rule="nonzero"/></g><path fill="#000000" d="M 71.277344 76.792969 C 70.113281 77.339844 69.09375 75.609375 70.265625 75.0625 C 73.25 73.667969 75.707031 71.019531 74.417969 67.566406 C 73.96875 66.351562 75.90625 65.832031 76.355469 67.03125 C 77.941406 71.289062 75.046875 75.035156 71.277344 76.792969 Z M 84.507812 51.46875 C 84.386719 51.015625 84.234375 50.550781 84.316406 50.070312 C 84.777344 47.410156 84.71875 45.410156 83.691406 42.886719 C 83.335938 42.015625 82.648438 41.34375 82.230469 40.511719 C 81.789062 39.621094 81.597656 38.617188 81.058594 37.769531 C 80.441406 36.796875 79.78125 35.769531 78.855469 35.058594 C 77.972656 34.382812 76.917969 33.914062 76.253906 32.984375 C 75.578125 32.039062 75.425781 30.832031 74.824219 29.84375 C 74.195312 28.824219 73.238281 28.058594 72.234375 27.429688 C 68.941406 25.378906 66.835938 24.242188 63.292969 23.523438 C 61.824219 23.222656 58.429688 22.878906 57.828125 25.105469 C 57.585938 26.003906 57.539062 26.890625 57.535156 27.8125 C 57.535156 27.8125 57.535156 33.980469 57.535156 41.859375 C 57.746094 41.761719 57.953125 41.652344 58.144531 41.527344 C 62.597656 38.632812 63.257812 33.765625 63.28125 28.839844 C 63.289062 27.546875 65.296875 27.546875 65.289062 28.839844 C 65.285156 29.667969 65.257812 30.511719 65.199219 31.359375 C 65.585938 31.015625 66.003906 30.707031 66.488281 30.464844 C 67.636719 29.894531 68.886719 30.246094 70.101562 30.179688 C 71.398438 30.105469 71.390625 32.113281 70.101562 32.183594 C 68.972656 32.25 67.792969 31.847656 66.808594 32.589844 C 66.039062 33.171875 65.460938 33.964844 64.785156 34.640625 C 64.089844 38.148438 62.527344 41.382812 59.160156 43.257812 C 58.652344 43.535156 58.105469 43.757812 57.535156 43.929688 L 57.535156 58.464844 C 58.871094 57.992188 60.046875 57.214844 60.839844 55.910156 C 61.515625 54.796875 62.152344 53.648438 63.1875 52.832031 C 65.496094 51.011719 68.859375 51.785156 71.382812 50.308594 C 72.640625 49.570312 73.734375 48.546875 73.3125 47.34375 C 73.257812 47.125 73.148438 46.949219 73.046875 46.808594 C 72.992188 46.75 72.753906 46.464844 72.695312 46.40625 C 71.375 45.066406 69.5625 44.171875 67.765625 43.675781 C 67.09375 43.492188 64.691406 42.746094 64.214844 43.59375 C 63.582031 44.722656 61.847656 43.710938 62.484375 42.582031 C 64.378906 39.210938 71.019531 42.519531 73.066406 44.066406 C 73.453125 44.359375 73.847656 44.710938 74.199219 45.101562 C 75.351562 44.445312 76.28125 43.371094 76.5 42.027344 C 76.699219 40.792969 76.507812 38.992188 75.308594 38.261719 C 73.582031 37.210938 71.410156 37.328125 69.46875 37.066406 C 68.203125 36.898438 68.191406 34.890625 69.46875 35.0625 C 72.546875 35.472656 76.898438 35.253906 78.152344 38.855469 C 79.265625 42.046875 77.953125 45.109375 75.265625 46.753906 C 75.507812 47.386719 75.585938 48.058594 75.386719 48.753906 C 74.699219 51.1875 71.71875 52.789062 69.398438 53.210938 C 67.535156 53.546875 64.910156 53.390625 63.710938 55.132812 C 62.757812 56.519531 62.039062 58.152344 60.609375 59.136719 C 59.714844 59.753906 58.660156 60.246094 57.535156 60.59375 L 57.535156 66.617188 C 58.375 65.769531 58.964844 64.636719 59.238281 63.222656 C 59.484375 61.953125 61.417969 62.488281 61.171875 63.753906 C 61.097656 64.132812 61 64.488281 60.886719 64.835938 C 63.074219 65.1875 65.253906 65.953125 67.472656 65.929688 C 70.574219 65.898438 71.632812 63.128906 70.488281 60.359375 C 70.375 60.089844 70.328125 59.890625 70.261719 59.65625 C 69.195312 56.074219 72.035156 52.140625 76.058594 52.050781 C 77.351562 52.023438 77.347656 54.027344 76.058594 54.054688 C 74.398438 54.09375 72.65625 55.292969 72.152344 56.929688 C 71.636719 58.617188 72.304688 60.074219 73.648438 61.167969 C 76 63.078125 79.171875 63.167969 81.300781 60.90625 C 82.1875 59.960938 83.605469 61.382812 82.71875 62.324219 C 80.097656 65.109375 75.878906 65.246094 72.925781 63.164062 C 72.773438 64.898438 71.917969 66.515625 70.25 67.425781 C 67.378906 68.992188 63.351562 67.152344 60.40625 66.765625 C 60.269531 66.746094 60.152344 66.703125 60.042969 66.648438 C 59.394531 67.683594 58.542969 68.507812 57.535156 69.117188 L 57.535156 75.046875 C 57.535156 75.972656 57.625 77.050781 57.765625 77.96875 C 57.914062 78.953125 58.261719 79.875 58.464844 80.851562 C 60.097656 79.558594 62.207031 78.960938 64.304688 79.066406 C 66.132812 77.480469 66.675781 73.410156 64.515625 71.976562 C 63.441406 71.265625 64.445312 69.527344 65.527344 70.246094 C 68.476562 72.203125 68.496094 76.664062 66.570312 79.464844 C 67.132812 79.636719 67.679688 79.859375 68.203125 80.144531 C 69.339844 80.761719 68.324219 82.496094 67.191406 81.875 C 66.460938 81.484375 65.671875 81.230469 64.863281 81.113281 C 64.652344 81.097656 64.351562 81.0625 64.082031 81.042969 C 62.207031 80.972656 60.332031 81.636719 59.058594 83.027344 C 59.296875 83.671875 59.601562 84.285156 60.015625 84.804688 C 60.390625 85.277344 60.863281 85.644531 61.386719 85.921875 C 62.546875 86.542969 63.972656 86.746094 65.238281 86.769531 C 66.835938 86.796875 68.410156 86.707031 69.710938 85.664062 C 70.910156 84.703125 71.816406 83.398438 72.761719 82.207031 C 74.03125 80.613281 74.917969 79.238281 76.597656 78.074219 C 78.605469 76.683594 79.777344 75.289062 80.109375 72.816406 C 80.316406 71.277344 80.867188 70.480469 81.703125 69.199219 C 82.558594 67.894531 82.835938 65.675781 82.902344 64.296875 C 82.953125 63.160156 83.242188 62.605469 83.34375 62.363281 C 84.132812 60.4375 84.492188 58.34375 84.832031 56.296875 C 85.113281 54.589844 84.949219 53.121094 84.507812 51.46875 " fill-opacity="1" fill-rule="nonzero"/><path fill="#000000" d="M 37.433594 70.84375 C 37.621094 69.570312 39.554688 70.113281 39.367188 71.378906 C 39.054688 73.503906 39.925781 76.707031 42.378906 77.199219 C 45.050781 77.738281 46.929688 76.375 47.53125 73.789062 C 47.828125 72.527344 49.761719 73.0625 49.46875 74.320312 C 49.050781 76.109375 47.957031 77.667969 46.484375 78.578125 C 47.398438 79.375 47.839844 80.75 47.996094 81.882812 C 48.070312 82.421875 47.875 82.957031 47.296875 83.117188 C 46.820312 83.246094 46.136719 82.957031 46.0625 82.414062 C 45.9375 81.53125 45.589844 79.957031 44.351562 79.363281 C 43.558594 79.476562 42.714844 79.417969 41.847656 79.132812 C 38.3125 77.992188 36.921875 74.300781 37.433594 70.84375 Z M 45.871094 54.425781 C 47.207031 58.324219 51.160156 59.484375 54.917969 59.039062 L 54.917969 44.324219 C 52.421875 44.339844 49.910156 43.363281 48.550781 41.203125 C 47.339844 39.269531 47.890625 37.605469 47.8125 35.488281 C 47.667969 31.46875 41.058594 35.941406 39.214844 36.230469 C 37.515625 36.5 35.65625 35.761719 34.898438 34.167969 C 34.464844 34.464844 34.011719 34.742188 33.59375 35.058594 C 32.667969 35.769531 32.011719 36.796875 31.390625 37.769531 C 30.851562 38.617188 30.664062 39.621094 30.21875 40.511719 C 29.804688 41.34375 29.113281 42.015625 28.761719 42.886719 C 27.929688 44.921875 27.710938 46.996094 27.996094 49.171875 C 28.304688 51.578125 27.214844 53.847656 27.617188 56.296875 C 27.957031 58.34375 28.320312 60.4375 29.105469 62.363281 C 29.207031 62.605469 29.496094 63.160156 29.546875 64.296875 C 29.613281 65.675781 29.890625 67.894531 30.746094 69.199219 C 31.585938 70.480469 32.136719 71.277344 32.34375 72.816406 C 32.671875 75.289062 33.84375 76.683594 35.851562 78.074219 C 37.53125 79.238281 38.421875 80.613281 39.6875 82.207031 C 40.816406 83.625 41.851562 85.253906 43.503906 86.121094 C 45.628906 87.238281 48.96875 87.042969 51.066406 85.921875 C 51.585938 85.644531 52.058594 85.277344 52.433594 84.804688 C 53.277344 83.742188 53.683594 82.292969 53.960938 80.988281 C 54.179688 79.964844 54.5 79.097656 54.652344 78.070312 C 54.792969 77.152344 54.917969 75.972656 54.917969 75.046875 L 54.917969 70.164062 C 53.902344 70.398438 52.8125 70.484375 51.683594 70.417969 C 48.277344 70.222656 41.742188 68.535156 42.011719 64.023438 C 42.015625 63.984375 42.023438 63.953125 42.027344 63.917969 C 41.265625 63.707031 40.519531 63.390625 39.828125 62.984375 C 37.570312 61.667969 35.667969 59 32.914062 58.871094 C 31.628906 58.8125 31.621094 56.804688 32.914062 56.867188 C 34.292969 56.929688 35.507812 57.511719 36.660156 58.265625 C 36.601562 56.886719 36.699219 55.589844 37.398438 54.21875 C 37.988281 53.066406 39.71875 54.082031 39.132812 55.230469 C 38.371094 56.71875 38.628906 58.226562 38.773438 59.804688 C 40.914062 61.425781 43.054688 62.914062 45.890625 61.851562 C 47.109375 61.398438 47.625 63.335938 46.425781 63.785156 C 45.636719 64.082031 44.828125 64.207031 44.019531 64.203125 C 44.039062 67.628906 50.5625 68.546875 52.980469 68.4375 C 53.671875 68.40625 54.316406 68.296875 54.917969 68.125 L 54.917969 61.144531 C 52.78125 61.382812 50.597656 61.132812 48.804688 60.304688 C 45.464844 58.765625 43.410156 55.628906 43.617188 51.917969 C 43.742188 49.632812 45.226562 47.355469 43.621094 45.230469 C 43.355469 44.882812 43.054688 44.5625 42.738281 44.261719 C 42.460938 48.40625 34.503906 52.660156 30.738281 49.875 C 29.710938 49.113281 30.710938 47.367188 31.75 48.140625 C 34.710938 50.332031 43.253906 45.402344 40.09375 42.710938 C 39.929688 42.574219 39.808594 42.429688 39.589844 42.246094 C 39.132812 42.054688 38.667969 41.886719 38.199219 41.746094 C 36.960938 41.382812 37.492188 39.445312 38.734375 39.8125 C 41.296875 40.570312 44.339844 42.160156 45.621094 44.640625 C 46.269531 45.890625 46.558594 47.210938 46.324219 48.613281 C 46.003906 50.554688 45.195312 52.453125 45.871094 54.425781 " fill-opacity="1" fill-rule="nonzero"/><path fill="#000000" d="M 54.621094 25.105469 C 54.019531 22.878906 50.628906 23.222656 49.15625 23.523438 C 45.613281 24.242188 43.507812 25.378906 40.214844 27.429688 C 39.476562 27.890625 38.925781 28.410156 38.359375 29.003906 C 38.234375 29.132812 38.109375 29.265625 37.980469 29.40625 C 37.132812 30.308594 37 31.617188 36.398438 32.664062 C 36.453125 33.082031 36.65625 33.46875 37.078125 33.800781 C 38.023438 34.539062 39.324219 34.34375 40.300781 33.792969 C 40.9375 33.4375 41.628906 33.039062 42.351562 32.691406 C 42.351562 32.65625 42.34375 32.625 42.347656 32.585938 C 42.46875 29.351562 45.667969 27.058594 48.769531 28.175781 C 49.972656 28.609375 49.453125 30.550781 48.234375 30.109375 C 46.617188 29.527344 44.871094 30.34375 44.449219 31.945312 C 44.90625 31.855469 45.367188 31.8125 45.820312 31.847656 C 47.296875 31.957031 48.804688 32.253906 49.5 33.683594 C 50.117188 34.957031 49.695312 36.476562 49.648438 37.8125 C 49.550781 40.679688 52.253906 42.296875 54.917969 42.359375 C 54.917969 34.246094 54.917969 27.8125 54.917969 27.8125 C 54.910156 26.890625 54.863281 26.003906 54.621094 25.105469 " fill-opacity="1" fill-rule="nonzero"/><path fill="#737373" d="M 58.640625 12.617188 C 58.640625 13.9375 57.566406 15.007812 56.25 15.007812 C 54.929688 15.007812 53.859375 13.9375 53.859375 12.617188 L 53.859375 2.386719 C 53.859375 1.066406 54.929688 -0.00390625 56.25 -0.00390625 C 57.566406 -0.00390625 58.640625 1.066406 58.640625 2.386719 L 58.640625 12.617188 " fill-opacity="1" fill-rule="nonzero"/><g clip-path="url(#id2)"><path fill="#737373" d="M 106.734375 50.480469 C 108.054688 50.480469 109.121094 51.550781 109.121094 52.871094 C 109.121094 54.191406 108.054688 55.261719 106.734375 55.261719 L 96.503906 55.261719 C 95.1875 55.261719 94.113281 54.191406 94.113281 52.871094 C 94.113281 51.550781 95.1875 50.480469 96.503906 50.480469 L 106.734375 50.480469 " fill-opacity="1" fill-rule="nonzero"/></g><g clip-path="url(#id3)"><path fill="#737373" d="M 15.996094 50.480469 C 17.316406 50.480469 18.382812 51.550781 18.382812 52.871094 C 18.382812 54.191406 17.316406 55.261719 15.996094 55.261719 L 5.765625 55.261719 C 4.445312 55.261719 3.375 54.191406 3.375 52.871094 C 3.375 51.550781 4.445312 50.480469 5.765625 50.480469 L 15.996094 50.480469 " fill-opacity="1" fill-rule="nonzero"/></g><path fill="#737373" d="M 93.636719 86.878906 C 94.570312 87.8125 94.570312 89.324219 93.636719 90.257812 C 92.703125 91.191406 91.191406 91.191406 90.257812 90.257812 L 83.023438 83.023438 C 82.09375 82.089844 82.09375 80.578125 83.023438 79.644531 C 83.957031 78.714844 85.472656 78.714844 86.40625 79.644531 L 93.636719 86.878906 " fill-opacity="1" fill-rule="nonzero"/><path fill="#737373" d="M 29.476562 22.71875 C 30.40625 23.648438 30.40625 25.164062 29.476562 26.097656 C 28.539062 27.03125 27.027344 27.03125 26.097656 26.097656 L 18.863281 18.863281 C 17.929688 17.929688 17.929688 16.417969 18.863281 15.484375 C 19.792969 14.550781 21.308594 14.550781 22.242188 15.484375 L 29.476562 22.71875 " fill-opacity="1" fill-rule="nonzero"/><path fill="#737373" d="M 90.257812 15.484375 C 91.191406 14.550781 92.703125 14.550781 93.636719 15.484375 C 94.570312 16.417969 94.570312 17.929688 93.636719 18.863281 L 86.40625 26.097656 C 85.472656 27.03125 83.957031 27.03125 83.023438 26.097656 C 82.09375 25.164062 82.09375 23.648438 83.023438 22.71875 L 90.257812 15.484375 " fill-opacity="1" fill-rule="nonzero"/><path fill="#737373" d="M 26.097656 79.644531 C 27.027344 78.714844 28.539062 78.714844 29.476562 79.648438 C 30.40625 80.578125 30.40625 82.089844 29.476562 83.023438 L 22.242188 90.257812 C 21.308594 91.191406 19.796875 91.191406 18.863281 90.257812 C 17.929688 89.324219 17.929688 87.8125 18.863281 86.878906 L 26.097656 79.644531 " fill-opacity="1" fill-rule="nonzero"/><path fill="#737373" d="M 43.316406 14.675781 C 43.8125 15.898438 43.226562 17.292969 42.003906 17.789062 C 40.78125 18.285156 39.386719 17.695312 38.890625 16.472656 L 35.042969 6.996094 C 34.546875 5.773438 35.132812 4.378906 36.355469 3.882812 C 37.578125 3.386719 38.972656 3.976562 39.46875 5.199219 L 43.316406 14.675781 " fill-opacity="1" fill-rule="nonzero"/><path fill="#737373" d="M 102.125 31.664062 C 103.347656 31.167969 104.742188 31.753906 105.238281 32.976562 C 105.734375 34.199219 105.148438 35.59375 103.921875 36.089844 L 94.445312 39.9375 C 93.222656 40.433594 91.828125 39.847656 91.332031 38.625 C 90.835938 37.402344 91.425781 36.007812 92.648438 35.511719 L 102.125 31.664062 " fill-opacity="1" fill-rule="nonzero"/><path fill="#737373" d="M 18.054688 65.804688 C 19.277344 65.308594 20.671875 65.894531 21.167969 67.121094 C 21.664062 68.339844 21.074219 69.734375 19.851562 70.230469 L 10.375 74.078125 C 9.152344 74.574219 7.757812 73.988281 7.261719 72.765625 C 6.765625 71.542969 7.355469 70.148438 8.574219 69.652344 L 18.054688 65.804688 " fill-opacity="1" fill-rule="nonzero"/><path fill="#737373" d="M 103.683594 70.3125 C 104.902344 70.828125 105.46875 72.226562 104.957031 73.445312 C 104.441406 74.65625 103.042969 75.226562 101.828125 74.714844 L 92.402344 70.734375 C 91.1875 70.222656 90.617188 68.820312 91.132812 67.605469 C 91.644531 66.386719 93.046875 65.820312 94.261719 66.332031 L 103.683594 70.3125 " fill-opacity="1" fill-rule="nonzero"/><path fill="#737373" d="M 20.097656 35.007812 C 21.3125 35.519531 21.882812 36.921875 21.367188 38.136719 C 20.855469 39.351562 19.453125 39.921875 18.238281 39.410156 L 8.8125 35.429688 C 7.597656 34.917969 7.03125 33.511719 7.539062 32.296875 C 8.054688 31.082031 9.460938 30.515625 10.671875 31.027344 L 20.097656 35.007812 " fill-opacity="1" fill-rule="nonzero"/><path fill="#737373" d="M 73.691406 5.433594 C 74.207031 4.21875 75.605469 3.652344 76.824219 4.164062 C 78.035156 4.675781 78.609375 6.078125 78.09375 7.292969 L 74.113281 16.71875 C 73.601562 17.933594 72.195312 18.503906 70.984375 17.988281 C 69.765625 17.476562 69.199219 16.074219 69.710938 14.859375 L 73.691406 5.433594 " fill-opacity="1" fill-rule="nonzero"/></svg>