<svg xmlns="http://www.w3.org/2000/svg" xmlns:xlink="http://www.w3.org/1999/xlink" width="150" zoomAndPan="magnify" viewBox="0 0 112.5 112.499997" height="150" preserveAspectRatio="xMidYMid meet" version="1.0"><defs><clipPath id="id1"><path d="M 5.625 0 L 106.875 0 L 106.875 112.003906 L 5.625 112.003906 Z M 5.625 0 " clip-rule="nonzero"/></clipPath></defs><g clip-path="url(#id1)"><path fill="#222222" d="M 81.730469 56.585938 L 75.769531 50.625 L 48.320312 78.074219 L 36.394531 66.148438 L 30.429688 72.113281 L 48.320312 90 Z M 95.625 11.25 L 90 11.25 L 90 0 L 78.75 0 L 78.75 11.25 L 33.75 11.25 L 33.75 0 L 22.5 0 L 22.5 11.25 L 16.875 11.25 C 10.660156 11.25 5.679688 16.285156 5.679688 22.5 L 5.625 101.25 C 5.625 107.464844 10.660156 112.5 16.875 112.5 L 95.625 112.5 C 101.839844 112.5 106.875 107.464844 106.875 101.25 L 106.875 22.5 C 106.875 16.285156 101.839844 11.25 95.625 11.25 Z M 95.625 101.25 L 16.875 101.25 L 16.875 39.375 L 95.625 39.375 Z M 95.625 101.25 " fill-opacity="1" fill-rule="nonzero"/></g></svg>