<svg xmlns="http://www.w3.org/2000/svg" xmlns:xlink="http://www.w3.org/1999/xlink" width="150" zoomAndPan="magnify" viewBox="0 0 112.5 112.499997" height="150" preserveAspectRatio="xMidYMid meet" version="1.0"><defs><clipPath id="id1"><path d="M 58 35 L 112.003906 35 L 112.003906 112.003906 L 58 112.003906 Z M 58 35 " clip-rule="nonzero"/></clipPath><clipPath id="id2"><path d="M 0 35 L 55 35 L 55 112.003906 L 0 112.003906 Z M 0 35 " clip-rule="nonzero"/></clipPath></defs><g clip-path="url(#id1)"><path fill="#f5f2f2" d="M 108.273438 43.785156 L 100.136719 74.144531 C 99.84375 75.25 99.226562 76.222656 98.363281 76.960938 L 89.617188 84.457031 C 87.539062 86.234375 86.34375 88.835938 86.34375 91.574219 L 86.34375 93.75 L 67.59375 93.75 L 67.59375 79.519531 C 67.59375 74.882812 70.078125 70.546875 74.074219 68.203125 L 86.886719 60.6875 C 87.457031 60.359375 88.101562 60.191406 88.761719 60.191406 C 90.195312 60.191406 91.449219 60.960938 92.109375 62.242188 C 93 63.984375 92.238281 66.269531 90.402344 67.324219 L 79.890625 73.375 C 78.996094 73.894531 78.691406 75.035156 79.210938 75.9375 C 79.722656 76.832031 80.863281 77.136719 81.765625 76.625 L 92.269531 70.574219 C 95.59375 68.65625 97.007812 64.761719 95.777344 61.375 L 100.933594 42.15625 C 101.488281 40.09375 103.488281 38.746094 105.410156 39.148438 C 107.136719 39.515625 108.398438 41.050781 108.398438 42.808594 C 108.398438 43.160156 108.351562 43.476562 108.273438 43.785156 Z M 91.96875 108.75 L 61.96875 108.75 L 61.96875 97.5 L 91.96875 97.5 Z M 106.183594 35.476562 C 102.289062 34.65625 98.390625 37.164062 97.316406 41.183594 L 92.882812 57.683594 C 91.683594 56.886719 90.261719 56.441406 88.761719 56.441406 C 87.449219 56.441406 86.152344 56.785156 85.003906 57.445312 L 72.179688 64.964844 C 67.035156 67.984375 63.84375 73.558594 63.84375 79.519531 L 63.84375 93.75 L 60.09375 93.75 C 59.0625 93.75 58.21875 94.59375 58.21875 95.625 L 58.21875 110.625 C 58.21875 111.65625 59.0625 112.5 60.09375 112.5 L 93.84375 112.5 C 94.875 112.5 95.71875 111.65625 95.71875 110.625 L 95.71875 95.625 C 95.71875 94.59375 94.875 93.75 93.84375 93.75 L 90.09375 93.75 L 90.09375 91.574219 C 90.09375 89.925781 90.8125 88.375 92.054688 87.304688 L 100.800781 79.8125 C 102.238281 78.574219 103.261719 76.949219 103.753906 75.117188 L 111.890625 44.757812 C 112.058594 44.144531 112.148438 43.484375 112.148438 42.808594 C 112.148438 39.285156 109.632812 36.203125 106.183594 35.476562 " fill-opacity="1" fill-rule="nonzero"/></g><g clip-path="url(#id2)"><path fill="#f5f2f2" d="M 50.71875 108.75 L 20.71875 108.75 L 20.71875 97.5 L 50.71875 97.5 Z M 23.070312 84.457031 L 14.324219 76.960938 C 13.460938 76.222656 12.84375 75.25 12.550781 74.148438 L 4.414062 43.785156 C 4.335938 43.476562 4.289062 43.152344 4.289062 42.808594 C 4.289062 41.050781 5.550781 39.515625 7.277344 39.148438 C 9.191406 38.753906 11.199219 40.09375 11.753906 42.15625 L 16.910156 61.371094 C 15.679688 64.761719 17.09375 68.65625 20.417969 70.574219 L 30.921875 76.625 C 31.816406 77.144531 32.964844 76.832031 33.476562 75.9375 C 33.996094 75.035156 33.691406 73.894531 32.789062 73.375 L 22.285156 67.324219 C 20.449219 66.269531 19.6875 63.984375 20.574219 62.242188 C 21.230469 60.960938 22.484375 60.191406 23.925781 60.191406 C 24.585938 60.191406 25.230469 60.359375 25.789062 60.679688 L 38.613281 68.203125 C 42.609375 70.546875 45.09375 74.882812 45.09375 79.519531 L 45.09375 93.75 L 26.34375 93.75 L 26.34375 91.574219 C 26.34375 88.835938 25.148438 86.234375 23.070312 84.457031 Z M 52.59375 93.75 L 48.84375 93.75 L 48.84375 79.519531 C 48.84375 73.558594 45.648438 67.984375 40.507812 64.964844 L 27.667969 57.4375 C 26.535156 56.785156 25.238281 56.441406 23.925781 56.441406 C 22.425781 56.441406 21.003906 56.886719 19.804688 57.683594 L 15.371094 41.183594 C 14.296875 37.164062 10.398438 34.65625 6.503906 35.476562 C 3.054688 36.203125 0.539062 39.285156 0.539062 42.808594 C 0.539062 43.484375 0.628906 44.136719 0.796875 44.75 L 8.933594 75.117188 C 9.425781 76.949219 10.441406 78.574219 11.886719 79.8125 L 20.632812 87.304688 C 21.875 88.375 22.59375 89.933594 22.59375 91.574219 L 22.59375 93.75 L 18.84375 93.75 C 17.8125 93.75 16.96875 94.59375 16.96875 95.625 L 16.96875 110.625 C 16.96875 111.65625 17.8125 112.5 18.84375 112.5 L 52.59375 112.5 C 53.625 112.5 54.46875 111.65625 54.46875 110.625 L 54.46875 95.625 C 54.46875 94.59375 53.625 93.75 52.59375 93.75 " fill-opacity="1" fill-rule="nonzero"/></g><path fill="#f5f2f2" d="M 56.34375 65.375 L 52.921875 63.550781 C 38.839844 56.039062 30.09375 41.460938 30.09375 25.503906 L 30.09375 5.105469 C 37.160156 9.082031 45.695312 9.292969 52.953125 5.660156 L 56.335938 3.96875 L 59.734375 5.667969 C 66.992188 9.300781 75.527344 9.082031 82.59375 5.105469 L 82.59375 25.503906 C 82.59375 41.460938 73.847656 56.042969 59.765625 63.550781 Z M 86.34375 25.503906 L 86.34375 1.875 C 86.34375 1.207031 85.984375 0.585938 85.414062 0.257812 C 84.835938 -0.0820312 84.117188 -0.0859375 83.539062 0.25 L 80.863281 1.773438 C 74.867188 5.199219 67.59375 5.40625 61.410156 2.316406 L 57.179688 0.199219 C 56.644531 -0.0664062 56.027344 -0.0664062 55.492188 0.199219 L 51.273438 2.308594 C 45.09375 5.40625 37.820312 5.199219 31.816406 1.773438 L 29.148438 0.25 C 28.570312 -0.0820312 27.859375 -0.0820312 27.273438 0.257812 C 26.703125 0.585938 26.34375 1.207031 26.34375 1.875 L 26.34375 25.503906 C 26.34375 42.847656 35.851562 58.695312 51.15625 66.863281 L 55.464844 69.15625 C 55.734375 69.300781 56.042969 69.375 56.34375 69.375 C 56.644531 69.375 56.953125 69.300781 57.222656 69.15625 L 61.527344 66.863281 C 76.835938 58.695312 86.34375 42.847656 86.34375 25.503906 " fill-opacity="1" fill-rule="nonzero"/><path fill="#f5f2f2" d="M 75.09375 25.503906 C 75.09375 38.640625 67.910156 50.652344 56.34375 56.871094 C 44.777344 50.652344 37.59375 38.640625 37.59375 25.503906 L 37.59375 15.425781 C 43.957031 16.320312 50.570312 15.242188 56.308594 12.371094 L 56.335938 12.355469 L 56.386719 12.378906 C 62.113281 15.242188 68.722656 16.324219 75.09375 15.425781 Z M 78.84375 13.191406 C 78.84375 12.621094 78.585938 12.085938 78.148438 11.726562 C 77.707031 11.375 77.121094 11.234375 76.574219 11.351562 C 70.347656 12.699219 63.71875 11.851562 58.058594 9.023438 L 57.179688 8.585938 C 56.652344 8.320312 56.027344 8.320312 55.5 8.585938 L 54.628906 9.015625 C 48.96875 11.851562 42.316406 12.699219 36.113281 11.351562 C 35.558594 11.234375 34.980469 11.375 34.539062 11.726562 C 34.101562 12.085938 33.84375 12.621094 33.84375 13.183594 L 33.84375 25.503906 C 33.84375 40.070312 41.835938 53.386719 54.6875 60.242188 L 55.464844 60.652344 C 55.734375 60.796875 56.042969 60.871094 56.34375 60.871094 C 56.644531 60.871094 56.953125 60.796875 57.222656 60.652344 L 58 60.242188 C 70.851562 53.386719 78.84375 40.070312 78.84375 25.503906 L 78.84375 13.191406 " fill-opacity="1" fill-rule="nonzero"/><path fill="#f5f2f2" d="M 66.949219 22.367188 L 52.59375 36.722656 L 46.742188 30.871094 C 46.007812 30.140625 44.824219 30.140625 44.089844 30.871094 C 43.359375 31.605469 43.359375 32.789062 44.089844 33.523438 L 51.269531 40.699219 C 51.632812 41.066406 52.109375 41.25 52.59375 41.25 C 53.078125 41.25 53.554688 41.066406 53.917969 40.699219 L 69.601562 25.019531 C 70.332031 24.285156 70.332031 23.101562 69.601562 22.367188 C 68.867188 21.636719 67.679688 21.636719 66.949219 22.367188 " fill-opacity="1" fill-rule="nonzero"/></svg>