<svg xmlns="http://www.w3.org/2000/svg" xmlns:xlink="http://www.w3.org/1999/xlink" width="150" zoomAndPan="magnify" viewBox="0 0 112.5 187.499992" height="250" preserveAspectRatio="xMidYMid meet" version="1.0"><defs><g/><clipPath id="id1"><path d="M 0 52.835938 L 39.75 52.835938 L 39.75 82.085938 L 0 82.085938 Z M 0 52.835938 " clip-rule="nonzero"/></clipPath><clipPath id="id2"><path d="M 18 52.835938 L 38 52.835938 L 38 65 L 18 65 Z M 18 52.835938 " clip-rule="nonzero"/></clipPath><clipPath id="id3"><path d="M 21 63 L 39.75 63 L 39.75 72 L 21 72 Z M 21 63 " clip-rule="nonzero"/></clipPath><clipPath id="id4"><path d="M 50.023438 69.8125 L 64.273438 69.8125 L 64.273438 84.0625 L 50.023438 84.0625 Z M 50.023438 69.8125 " clip-rule="nonzero"/></clipPath><clipPath id="id5"><path d="M 43.554688 57.242188 L 66 57.242188 L 66 67.742188 L 43.554688 67.742188 Z M 43.554688 57.242188 " clip-rule="nonzero"/></clipPath><clipPath id="id6"><path d="M 14 33 L 38 33 L 38 67 L 14 67 Z M 14 33 " clip-rule="nonzero"/></clipPath><clipPath id="id7"><path d="M 12.171875 61.988281 L 30.34375 32.578125 L 39.871094 38.464844 L 21.699219 67.875 Z M 12.171875 61.988281 " clip-rule="nonzero"/></clipPath><clipPath id="id8"><path d="M 12.171875 61.988281 L 30.34375 32.578125 L 39.871094 38.464844 L 21.699219 67.875 Z M 12.171875 61.988281 " clip-rule="nonzero"/></clipPath><clipPath id="id9"><path d="M 72.488281 52.835938 L 112.003906 52.835938 L 112.003906 82.085938 L 72.488281 82.085938 Z M 72.488281 52.835938 " clip-rule="nonzero"/></clipPath><clipPath id="id10"><path d="M 90 52.835938 L 111 52.835938 L 111 65 L 90 65 Z M 90 52.835938 " clip-rule="nonzero"/></clipPath><clipPath id="id11"><path d="M 72.488281 64 L 96 64 L 96 73 L 72.488281 73 Z M 72.488281 64 " clip-rule="nonzero"/></clipPath><clipPath id="id12"><path d="M 1.101562 140.734375 L 40.851562 140.734375 L 40.851562 169.984375 L 1.101562 169.984375 Z M 1.101562 140.734375 " clip-rule="nonzero"/></clipPath><clipPath id="id13"><path d="M 19 140.734375 L 40 140.734375 L 40 153 L 19 153 Z M 19 140.734375 " clip-rule="nonzero"/></clipPath><clipPath id="id14"><path d="M 23 152 L 35 152 L 35 169.984375 L 23 169.984375 Z M 23 152 " clip-rule="nonzero"/></clipPath><clipPath id="id15"><path d="M 22 150 L 40.851562 150 L 40.851562 160 L 22 160 Z M 22 150 " clip-rule="nonzero"/></clipPath><clipPath id="id16"><path d="M 8 152 L 24 152 L 24 169.984375 L 8 169.984375 Z M 8 152 " clip-rule="nonzero"/></clipPath><clipPath id="id17"><path d="M 1.101562 152 L 24 152 L 24 161 L 1.101562 161 Z M 1.101562 152 " clip-rule="nonzero"/></clipPath><clipPath id="id18"><path d="M 23 159 L 24 159 L 24 169.984375 L 23 169.984375 Z M 23 159 " clip-rule="nonzero"/></clipPath><clipPath id="id19"><path d="M 51.125 157.707031 L 65.375 157.707031 L 65.375 171.957031 L 51.125 171.957031 Z M 51.125 157.707031 " clip-rule="nonzero"/></clipPath><clipPath id="id20"><path d="M 44.65625 145.140625 L 67.15625 145.140625 L 67.15625 155.640625 L 44.65625 155.640625 Z M 44.65625 145.140625 " clip-rule="nonzero"/></clipPath><clipPath id="id21"><path d="M 15 121 L 39 121 L 39 155 L 15 155 Z M 15 121 " clip-rule="nonzero"/></clipPath><clipPath id="id22"><path d="M 13.277344 149.882812 L 31.445312 120.476562 L 40.972656 126.359375 L 22.800781 155.769531 Z M 13.277344 149.882812 " clip-rule="nonzero"/></clipPath><clipPath id="id23"><path d="M 13.277344 149.882812 L 31.445312 120.476562 L 40.972656 126.359375 L 22.800781 155.769531 Z M 13.277344 149.882812 " clip-rule="nonzero"/></clipPath><clipPath id="id24"><path d="M 72.132812 140.734375 L 111.882812 140.734375 L 111.882812 169.984375 L 72.132812 169.984375 Z M 72.132812 140.734375 " clip-rule="nonzero"/></clipPath><clipPath id="id25"><path d="M 90 140.734375 L 111 140.734375 L 111 153 L 90 153 Z M 90 140.734375 " clip-rule="nonzero"/></clipPath><clipPath id="id26"><path d="M 94 152 L 106 152 L 106 169.984375 L 94 169.984375 Z M 94 152 " clip-rule="nonzero"/></clipPath><clipPath id="id27"><path d="M 93 150 L 111.882812 150 L 111.882812 160 L 93 160 Z M 93 150 " clip-rule="nonzero"/></clipPath><clipPath id="id28"><path d="M 79 152 L 95 152 L 95 169.984375 L 79 169.984375 Z M 79 152 " clip-rule="nonzero"/></clipPath><clipPath id="id29"><path d="M 72.132812 152 L 95 152 L 95 161 L 72.132812 161 Z M 72.132812 152 " clip-rule="nonzero"/></clipPath><clipPath id="id30"><path d="M 94 159 L 95 159 L 95 169.984375 L 94 169.984375 Z M 94 159 " clip-rule="nonzero"/></clipPath><clipPath id="id31"><path d="M 86 121 L 110 121 L 110 155 L 86 155 Z M 86 121 " clip-rule="nonzero"/></clipPath><clipPath id="id32"><path d="M 84.304688 149.882812 L 102.476562 120.476562 L 112.003906 126.359375 L 93.832031 155.769531 Z M 84.304688 149.882812 " clip-rule="nonzero"/></clipPath><clipPath id="id33"><path d="M 84.304688 149.882812 L 102.476562 120.476562 L 112.003906 126.359375 L 93.832031 155.769531 Z M 84.304688 149.882812 " clip-rule="nonzero"/></clipPath></defs><g clip-path="url(#id1)"><path fill="#00002f" d="M 21.332031 52.835938 L 18.472656 58.867188 L 18.484375 58.871094 L 18.390625 58.917969 L 13.460938 54.625 L 2.675781 59.199219 L 7.824219 64.441406 L 7.84375 64.429688 L 7.878906 64.5625 L 7.351562 64.324219 L 0.0078125 65.003906 L 7.871094 68.566406 L 8.460938 74.804688 L 22.695312 81.929688 L 22.699219 82.089844 L 22.789062 82.027344 L 22.792969 82.082031 L 22.792969 82.027344 L 33.914062 74.519531 L 33.914062 66.660156 L 39.742188 62.988281 L 33.996094 64.078125 L 38.335938 58.078125 Z M 33.839844 64.132812 L 33.851562 64.136719 L 33.839844 64.140625 Z M 33.839844 64.132812 " fill-opacity="1" fill-rule="evenodd"/></g><path fill="#8d622f" d="M 8.03125 64.308594 L 18.800781 58.914062 L 33.59375 64.074219 L 32.410156 73.339844 L 21.050781 77.796875 L 9.925781 72.285156 Z M 8.03125 64.308594 " fill-opacity="1" fill-rule="evenodd"/><path fill="#9d6e2d" d="M 8.046875 64.464844 L 18.632812 59.171875 L 13.578125 54.730469 L 2.992188 59.265625 Z M 8.046875 64.464844 " fill-opacity="1" fill-rule="evenodd"/><g clip-path="url(#id2)"><path fill="#9d6e2d" d="M 18.496094 58.9375 L 21.304688 52.957031 L 37.996094 58.15625 L 33.675781 64.1875 Z M 18.496094 58.9375 " fill-opacity="1" fill-rule="evenodd"/></g><path fill="#000000" d="M 8.859375 74.277344 L 18.988281 67.773438 L 18.683594 58.914062 L 19.375 67.738281 L 33.121094 74.160156 L 19.160156 68.164062 Z M 8.859375 74.277344 " fill-opacity="0.5765" fill-rule="evenodd"/><path fill="#9d6e2d" d="M 22.644531 81.96875 L 22.320312 71.375 L 33.65625 65.007812 L 33.65625 74.460938 L 22.648438 81.96875 Z M 22.644531 81.96875 " fill-opacity="1" fill-rule="evenodd"/><g clip-path="url(#id3)"><path fill="#000000" d="M 33.667969 64.117188 L 21.859375 71.246094 L 28.210938 70.128906 L 39.378906 63.023438 Z M 33.667969 64.117188 " fill-opacity="1" fill-rule="evenodd"/></g><path fill="#9d6e2d" d="M 33.609375 64.160156 L 22.304688 70.964844 L 28.21875 69.925781 L 38.613281 63.308594 Z M 33.609375 64.160156 " fill-opacity="1" fill-rule="evenodd"/><path fill="#9d6e2d" d="M 7.714844 64.535156 L 8.667969 74.746094 L 22.6875 81.832031 L 22.210938 71.246094 Z M 7.714844 64.535156 " fill-opacity="1" fill-rule="evenodd"/><path fill="#000000" d="M 7.578125 64.347656 L 22.6875 71.3125 L 16.859375 72.570312 L 0.371094 65.023438 Z M 7.578125 64.347656 " fill-opacity="1" fill-rule="evenodd"/><path fill="#9d6e2d" d="M 7.714844 64.441406 L 22.304688 71.167969 L 16.679688 72.382812 L 0.75 65.097656 Z M 7.714844 64.441406 " fill-opacity="1" fill-rule="evenodd"/><path fill="#000000" d="M 22.738281 81.960938 L 22.066406 71.167969 L 22.515625 71.167969 Z M 22.738281 81.960938 " fill-opacity="1" fill-rule="evenodd"/><path fill="#000000" d="M 8.03125 64.308594 L 18.566406 58.914062 L 33.714844 64.191406 L 18.445312 59.265625 Z M 8.03125 64.308594 " fill-opacity="1" fill-rule="evenodd"/><g clip-path="url(#id4)"><path fill="#ff1616" d="M 57.148438 69.8125 C 53.214844 69.8125 50.023438 73.003906 50.023438 76.9375 C 50.023438 80.871094 53.214844 84.0625 57.148438 84.0625 C 61.082031 84.0625 64.273438 80.871094 64.273438 76.9375 C 64.273438 73.003906 61.082031 69.8125 57.148438 69.8125 Z M 60.808594 79.484375 L 59.699219 80.597656 L 57.148438 78.046875 L 54.597656 80.597656 L 53.488281 79.484375 L 56.039062 76.9375 L 53.488281 74.386719 L 54.597656 73.277344 L 57.148438 75.828125 L 59.699219 73.277344 L 60.808594 74.386719 L 58.257812 76.9375 Z M 60.808594 79.484375 " fill-opacity="1" fill-rule="nonzero"/></g><g clip-path="url(#id5)"><path fill="#00002f" d="M 65.890625 61.433594 C 65.832031 61.140625 65.636719 60.84375 65.660156 60.613281 C 65.757812 59.765625 65.257812 59.507812 64.632812 59.296875 C 61.992188 58.402344 59.304688 57.710938 56.542969 57.367188 C 55.554688 57.246094 55.308594 57.519531 55.527344 58.511719 C 55.554688 58.632812 55.601562 58.753906 55.632812 58.875 C 55.742188 59.289062 56.042969 59.480469 56.414062 59.410156 C 56.78125 59.339844 57.105469 59.425781 57.441406 59.496094 C 58.292969 59.667969 59.136719 59.871094 59.984375 60.0625 C 60.011719 60.109375 60.015625 60.15625 59.996094 60.207031 C 59.082031 60.289062 58.167969 60.398438 57.253906 60.441406 C 54.902344 60.546875 52.59375 61.125 50.21875 61.011719 C 49.089844 60.957031 47.941406 61.148438 46.8125 61.316406 C 45.925781 61.445312 45.023438 61.378906 44.144531 61.570312 C 43.699219 61.664062 43.617188 61.78125 43.878906 62.15625 C 44.402344 62.902344 44.953125 63.644531 46.035156 63.402344 C 46.226562 63.359375 46.433594 63.382812 46.632812 63.359375 C 48.484375 63.167969 50.34375 63.0625 52.199219 62.941406 C 54.207031 62.808594 56.214844 62.671875 58.21875 62.53125 C 58.890625 62.484375 59.554688 62.417969 60.292969 62.359375 C 60.085938 62.695312 59.820312 62.792969 59.601562 62.949219 C 58.863281 63.464844 58.203125 64.082031 57.523438 64.675781 C 56.488281 65.582031 56.933594 66.792969 57.4375 67.535156 C 57.53125 67.671875 57.65625 67.753906 57.785156 67.5625 C 58.1875 66.992188 58.78125 66.652344 59.328125 66.261719 C 60.890625 65.136719 62.527344 64.128906 64.167969 63.125 C 64.589844 62.863281 65.019531 62.605469 65.445312 62.351562 C 65.792969 62.144531 65.996094 61.921875 65.890625 61.433594 Z M 60.289062 60.097656 C 60.300781 60.089844 60.3125 60.089844 60.324219 60.078125 C 60.316406 60.089844 60.308594 60.097656 60.296875 60.101562 C 60.296875 60.101562 60.292969 60.101562 60.289062 60.097656 Z M 60.289062 60.097656 " fill-opacity="1" fill-rule="nonzero"/></g><g clip-path="url(#id6)"><g clip-path="url(#id7)"><g clip-path="url(#id8)"><path fill="#197cc7" d="M 35.664062 35.980469 C 36.214844 36.285156 36.777344 36.601562 37.339844 36.917969 C 37.597656 37.0625 37.671875 37.445312 37.488281 37.769531 C 36.585938 39.390625 35.773438 41.050781 35.054688 42.75 C 34.785156 43.375 34.457031 43.980469 34.152344 44.582031 C 33.613281 45.667969 33.074219 46.757812 32.507812 47.828125 C 31.90625 48.988281 31.296875 50.160156 30.636719 51.285156 C 29.644531 52.996094 28.65625 54.726562 27.78125 56.492188 C 27.332031 57.378906 26.824219 58.226562 26.367188 59.105469 C 25.421875 60.894531 24.433594 62.65625 23.632812 64.515625 C 23.398438 65.082031 23.085938 65.613281 22.699219 66.101562 C 22.574219 66.253906 22.4375 66.394531 22.296875 66.515625 C 22.070312 66.699219 21.855469 66.777344 21.589844 66.675781 C 19.929688 65.972656 18.269531 65.304688 16.589844 64.636719 C 16.136719 64.4375 15.738281 64.125 15.445312 63.71875 C 15.132812 63.316406 14.84375 62.878906 14.425781 62.570312 C 14.152344 62.371094 14.164062 62.007812 14.402344 61.621094 C 14.667969 61.191406 14.941406 60.777344 15.195312 60.335938 C 15.757812 59.375 16.3125 58.398438 16.859375 57.429688 C 17.300781 56.667969 17.703125 55.882812 18.175781 55.140625 C 19.65625 52.796875 21 50.382812 22.34375 47.96875 C 23.03125 46.75 23.613281 45.460938 24.242188 44.203125 C 24.621094 43.453125 24.996094 42.71875 25.351562 41.953125 C 25.847656 40.886719 26.320312 39.824219 26.808594 38.769531 C 27.050781 38.242188 27.328125 37.71875 27.613281 37.203125 C 28.207031 36.164062 28.816406 35.121094 29.421875 34.089844 C 29.527344 33.914062 29.660156 33.753906 29.792969 33.59375 C 29.898438 33.449219 30.085938 33.386719 30.253906 33.460938 C 31.210938 33.855469 32.171875 34.222656 33.125 34.621094 C 33.625 34.832031 34.089844 35.085938 34.558594 35.34375 C 34.929688 35.542969 35.261719 35.777344 35.617188 36 L 35.640625 35.964844 Z M 35.664062 35.980469 " fill-opacity="1" fill-rule="nonzero"/></g></g></g><g fill="#ffffff" fill-opacity="1"><g transform="translate(23.446256, 59.16553)"><g><path d="M 1.46875 -3.046875 L 1.046875 -2.1875 L -0.234375 -2.8125 L -0.703125 -1.828125 L 0.578125 -1.203125 L 0.15625 -0.34375 L -2.984375 -1.859375 L -2.5625 -2.71875 L -1.40625 -2.15625 L -0.9375 -3.140625 L -2.09375 -3.703125 L -1.671875 -4.5625 Z M 1.46875 -3.046875 "/></g></g><g transform="translate(25.074852, 55.793474)"><g><path d="M 0.546875 -1.140625 L 0.140625 -0.296875 L -2.296875 -1.46875 L -1.890625 -2.3125 Z M -2.921875 -1.734375 C -3.046875 -1.796875 -3.117188 -1.878906 -3.140625 -1.984375 C -3.171875 -2.085938 -3.148438 -2.21875 -3.078125 -2.375 C -2.992188 -2.53125 -2.898438 -2.628906 -2.796875 -2.671875 C -2.703125 -2.710938 -2.597656 -2.703125 -2.484375 -2.640625 C -2.234375 -2.523438 -2.179688 -2.316406 -2.328125 -2.015625 C -2.472656 -1.710938 -2.671875 -1.617188 -2.921875 -1.734375 Z M -2.921875 -1.734375 "/></g></g><g transform="translate(25.766149, 54.362124)"><g><path d="M 0.296875 -2.53125 C 0.554688 -2.40625 0.707031 -2.21875 0.75 -1.96875 C 0.800781 -1.726562 0.75 -1.445312 0.59375 -1.125 C 0.507812 -0.945312 0.421875 -0.789062 0.328125 -0.65625 C 0.242188 -0.53125 0.144531 -0.410156 0.03125 -0.296875 L -0.640625 -0.609375 C -0.515625 -0.722656 -0.394531 -0.847656 -0.28125 -0.984375 C -0.164062 -1.117188 -0.0820312 -1.25 -0.03125 -1.375 C 0.0625 -1.550781 0.0664062 -1.660156 -0.015625 -1.703125 C -0.0664062 -1.722656 -0.117188 -1.71875 -0.171875 -1.6875 C -0.234375 -1.65625 -0.367188 -1.539062 -0.578125 -1.34375 C -0.785156 -1.15625 -0.96875 -1.046875 -1.125 -1.015625 C -1.28125 -0.984375 -1.453125 -1.007812 -1.640625 -1.09375 C -1.859375 -1.207031 -1.988281 -1.382812 -2.03125 -1.625 C -2.070312 -1.863281 -2.015625 -2.144531 -1.859375 -2.46875 C -1.773438 -2.625 -1.679688 -2.757812 -1.578125 -2.875 C -1.484375 -3 -1.367188 -3.125 -1.234375 -3.25 L -0.796875 -2.75 C -0.898438 -2.675781 -1 -2.582031 -1.09375 -2.46875 C -1.1875 -2.351562 -1.253906 -2.257812 -1.296875 -2.1875 C -1.359375 -2.050781 -1.359375 -1.96875 -1.296875 -1.9375 C -1.253906 -1.914062 -1.207031 -1.921875 -1.15625 -1.953125 C -1.101562 -1.984375 -0.972656 -2.09375 -0.765625 -2.28125 C -0.617188 -2.414062 -0.492188 -2.507812 -0.390625 -2.5625 C -0.285156 -2.613281 -0.175781 -2.632812 -0.0625 -2.625 C 0.0507812 -2.625 0.171875 -2.59375 0.296875 -2.53125 Z M 0.296875 -2.53125 "/></g></g><g transform="translate(26.899627, 52.015225)"><g><path d="M 0.09375 -1.78125 C 0.144531 -1.894531 0.179688 -2.046875 0.203125 -2.234375 L 0.8125 -1.9375 C 0.8125 -1.789062 0.796875 -1.660156 0.765625 -1.546875 C 0.734375 -1.441406 0.6875 -1.320312 0.625 -1.1875 C 0.488281 -0.90625 0.320312 -0.734375 0.125 -0.671875 C -0.0625 -0.609375 -0.300781 -0.648438 -0.59375 -0.796875 L -1.59375 -1.28125 L -1.75 -0.984375 L -2.109375 -1.15625 L -2.171875 -1.65625 L -2.578125 -2.109375 L -2.3125 -2.65625 L -1.828125 -2.421875 L -1.546875 -3.03125 L -0.90625 -2.734375 L -1.1875 -2.125 L -0.25 -1.671875 C -0.09375 -1.585938 0.0195312 -1.625 0.09375 -1.78125 Z M 0.09375 -1.78125 "/></g></g><g transform="translate(27.877407, 49.990702)"><g><path d="M 0.046875 -3.203125 C 0.441406 -3.003906 0.695312 -2.742188 0.8125 -2.421875 C 0.9375 -2.109375 0.90625 -1.757812 0.71875 -1.375 C 0.539062 -1.007812 0.285156 -0.769531 -0.046875 -0.65625 C -0.378906 -0.550781 -0.738281 -0.59375 -1.125 -0.78125 C -1.519531 -0.96875 -1.773438 -1.222656 -1.890625 -1.546875 C -2.003906 -1.867188 -1.972656 -2.222656 -1.796875 -2.609375 C -1.671875 -2.847656 -1.515625 -3.035156 -1.328125 -3.171875 C -1.148438 -3.304688 -0.941406 -3.375 -0.703125 -3.375 C -0.460938 -3.382812 -0.210938 -3.328125 0.046875 -3.203125 Z M -0.71875 -1.640625 C -0.519531 -1.535156 -0.347656 -1.484375 -0.203125 -1.484375 C -0.0664062 -1.484375 0.03125 -1.550781 0.09375 -1.6875 C 0.164062 -1.820312 0.15625 -1.941406 0.0625 -2.046875 C -0.03125 -2.148438 -0.175781 -2.253906 -0.375 -2.359375 C -0.582031 -2.453125 -0.75 -2.5 -0.875 -2.5 C -1.007812 -2.5 -1.113281 -2.425781 -1.1875 -2.28125 C -1.25 -2.15625 -1.238281 -2.039062 -1.15625 -1.9375 C -1.070312 -1.832031 -0.925781 -1.734375 -0.71875 -1.640625 Z M -0.71875 -1.640625 "/></g></g><g transform="translate(29.231975, 47.186029)"><g><path d="M -1.625 -2.96875 C -1.582031 -3.039062 -1.546875 -3.101562 -1.515625 -3.15625 L -1.484375 -3.203125 L -0.71875 -2.734375 C -0.769531 -2.679688 -0.828125 -2.59375 -0.890625 -2.46875 C -0.972656 -2.28125 -0.992188 -2.125 -0.953125 -2 C -0.910156 -1.875 -0.8125 -1.773438 -0.65625 -1.703125 L 0.546875 -1.125 L 0.140625 -0.296875 L -2.296875 -1.46875 L -2 -2.09375 L -1.546875 -2.03125 L -1.53125 -2.0625 C -1.613281 -2.207031 -1.660156 -2.363281 -1.671875 -2.53125 C -1.691406 -2.695312 -1.675781 -2.84375 -1.625 -2.96875 Z M -1.625 -2.96875 "/></g></g><g transform="translate(30.229477, 45.120672)"><g><path d="M -2.4375 -1.171875 L -2.015625 -2.0625 L -0.421875 -1.796875 C -0.328125 -1.785156 -0.234375 -1.757812 -0.140625 -1.71875 L -0.125 -1.71875 C -0.21875 -1.78125 -0.300781 -1.84375 -0.375 -1.90625 L -1.546875 -3 L -1.140625 -3.859375 L 0.984375 -1.640625 C 1.242188 -1.359375 1.398438 -1.09375 1.453125 -0.84375 C 1.515625 -0.601562 1.472656 -0.335938 1.328125 -0.046875 C 1.273438 0.0664062 1.210938 0.175781 1.140625 0.28125 L 0.46875 -0.046875 C 0.519531 -0.117188 0.570312 -0.203125 0.625 -0.296875 C 0.65625 -0.367188 0.664062 -0.441406 0.65625 -0.515625 C 0.65625 -0.585938 0.640625 -0.65625 0.609375 -0.71875 C 0.578125 -0.789062 0.519531 -0.875 0.4375 -0.96875 Z M -2.4375 -1.171875 "/></g></g></g><g clip-path="url(#id9)"><path fill="#00002f" d="M 93.824219 52.835938 L 90.960938 58.867188 L 90.972656 58.871094 L 90.882812 58.917969 L 85.949219 54.625 L 75.167969 59.199219 L 80.3125 64.441406 L 80.335938 64.429688 L 80.367188 64.5625 L 79.839844 64.324219 L 72.496094 65.003906 L 80.359375 68.566406 L 80.949219 74.804688 L 95.183594 81.929688 L 95.1875 82.089844 L 95.28125 82.027344 L 95.28125 82.082031 L 95.28125 82.027344 L 106.402344 74.519531 L 106.402344 66.660156 L 112.230469 62.988281 L 106.484375 64.078125 L 110.824219 58.078125 Z M 106.332031 64.132812 L 106.339844 64.136719 L 106.328125 64.140625 Z M 106.332031 64.132812 " fill-opacity="1" fill-rule="evenodd"/></g><path fill="#8d622f" d="M 80.519531 64.308594 L 91.292969 58.914062 L 106.085938 64.074219 L 104.902344 73.339844 L 93.539062 77.796875 L 82.414062 72.285156 Z M 80.519531 64.308594 " fill-opacity="1" fill-rule="evenodd"/><path fill="#9d6e2d" d="M 80.535156 64.464844 L 91.121094 59.171875 L 86.066406 54.730469 L 75.480469 59.265625 Z M 80.535156 64.464844 " fill-opacity="1" fill-rule="evenodd"/><g clip-path="url(#id10)"><path fill="#9d6e2d" d="M 90.988281 58.9375 L 93.796875 52.957031 L 110.484375 58.15625 L 106.164062 64.1875 Z M 90.988281 58.9375 " fill-opacity="1" fill-rule="evenodd"/></g><path fill="#000000" d="M 81.347656 74.277344 L 91.476562 67.773438 L 91.171875 58.914062 L 91.863281 67.738281 L 105.609375 74.160156 L 91.648438 68.164062 Z M 81.347656 74.277344 " fill-opacity="0.5765" fill-rule="evenodd"/><path fill="#9d6e2d" d="M 95.136719 81.96875 L 94.808594 71.375 L 106.144531 65.007812 L 106.144531 74.460938 Z M 95.136719 81.96875 " fill-opacity="1" fill-rule="evenodd"/><path fill="#000000" d="M 106.15625 64.117188 L 94.351562 71.246094 L 100.703125 70.128906 L 111.867188 63.023438 Z M 106.15625 64.117188 " fill-opacity="1" fill-rule="evenodd"/><path fill="#9d6e2d" d="M 106.097656 64.160156 L 94.796875 70.964844 L 100.707031 69.925781 L 111.105469 63.308594 Z M 106.097656 64.160156 " fill-opacity="1" fill-rule="evenodd"/><path fill="#9d6e2d" d="M 80.203125 64.535156 L 81.15625 74.746094 L 95.175781 81.832031 L 94.699219 71.246094 Z M 80.203125 64.535156 " fill-opacity="1" fill-rule="evenodd"/><g clip-path="url(#id11)"><path fill="#000000" d="M 80.066406 64.347656 L 95.175781 71.3125 L 89.351562 72.570312 L 72.859375 65.023438 L 80.070312 64.347656 Z M 80.066406 64.347656 " fill-opacity="1" fill-rule="evenodd"/></g><path fill="#9d6e2d" d="M 80.203125 64.441406 L 94.796875 71.167969 L 89.167969 72.382812 L 73.242188 65.097656 Z M 80.203125 64.441406 " fill-opacity="1" fill-rule="evenodd"/><path fill="#000000" d="M 95.226562 81.960938 L 94.558594 71.167969 L 95.003906 71.167969 Z M 95.226562 81.960938 " fill-opacity="1" fill-rule="evenodd"/><path fill="#000000" d="M 80.519531 64.308594 L 91.054688 58.914062 L 106.203125 64.191406 L 90.9375 59.265625 L 80.523438 64.308594 Z M 80.519531 64.308594 " fill-opacity="1" fill-rule="evenodd"/><g clip-path="url(#id12)"><path fill="#00002f" d="M 22.4375 140.734375 L 19.574219 146.761719 L 19.585938 146.769531 L 19.496094 146.8125 L 14.5625 142.519531 L 3.78125 147.09375 L 8.929688 152.335938 L 8.949219 152.328125 L 8.980469 152.460938 L 8.453125 152.21875 L 1.109375 152.902344 L 8.972656 156.460938 L 9.5625 162.703125 L 23.796875 169.824219 L 23.800781 169.984375 L 23.894531 169.921875 L 23.894531 169.976562 L 23.894531 169.921875 L 35.015625 162.417969 L 35.015625 154.554688 L 40.84375 150.886719 L 35.097656 151.976562 L 39.4375 145.976562 Z M 34.945312 152.027344 L 34.953125 152.03125 L 34.941406 152.039062 Z M 34.945312 152.027344 " fill-opacity="1" fill-rule="evenodd"/></g><path fill="#8d622f" d="M 9.132812 152.207031 L 19.90625 146.808594 L 34.699219 151.972656 L 33.515625 161.238281 L 22.152344 165.695312 L 11.027344 160.179688 Z M 9.132812 152.207031 " fill-opacity="1" fill-rule="evenodd"/><path fill="#9d6e2d" d="M 9.148438 152.359375 L 19.734375 147.066406 L 14.679688 142.625 L 4.09375 147.164062 Z M 9.148438 152.359375 " fill-opacity="1" fill-rule="evenodd"/><g clip-path="url(#id13)"><path fill="#9d6e2d" d="M 19.601562 146.832031 L 22.410156 140.851562 L 39.097656 146.050781 L 34.777344 152.085938 Z M 19.601562 146.832031 " fill-opacity="1" fill-rule="evenodd"/></g><path fill="#000000" d="M 9.960938 162.175781 L 20.089844 155.667969 L 19.785156 146.808594 L 20.476562 155.636719 L 34.226562 162.058594 L 20.261719 156.0625 Z M 9.960938 162.175781 " fill-opacity="0.5765" fill-rule="evenodd"/><g clip-path="url(#id14)"><path fill="#9d6e2d" d="M 23.75 169.863281 L 23.421875 159.269531 L 34.757812 152.90625 L 34.757812 162.355469 Z M 23.75 169.863281 " fill-opacity="1" fill-rule="evenodd"/></g><g clip-path="url(#id15)"><path fill="#000000" d="M 34.769531 152.015625 L 22.964844 159.144531 L 29.316406 158.027344 L 40.480469 150.921875 Z M 34.769531 152.015625 " fill-opacity="1" fill-rule="evenodd"/></g><path fill="#9d6e2d" d="M 34.710938 152.058594 L 23.410156 158.859375 L 29.320312 157.820312 L 39.71875 151.203125 Z M 34.710938 152.058594 " fill-opacity="1" fill-rule="evenodd"/><g clip-path="url(#id16)"><path fill="#9d6e2d" d="M 8.816406 152.433594 L 9.769531 162.640625 L 23.789062 169.730469 L 23.3125 159.144531 Z M 8.816406 152.433594 " fill-opacity="1" fill-rule="evenodd"/></g><g clip-path="url(#id17)"><path fill="#000000" d="M 8.679688 152.242188 L 23.789062 159.210938 L 17.964844 160.46875 L 1.472656 152.921875 L 8.683594 152.242188 Z M 8.679688 152.242188 " fill-opacity="1" fill-rule="evenodd"/><path fill="#9d6e2d" d="M 8.816406 152.339844 L 23.410156 159.0625 L 17.78125 160.277344 L 1.855469 152.992188 Z M 8.816406 152.339844 " fill-opacity="1" fill-rule="evenodd"/></g><g clip-path="url(#id18)"><path fill="#000000" d="M 23.839844 169.859375 L 23.171875 159.066406 L 23.617188 159.066406 Z M 23.839844 169.859375 " fill-opacity="1" fill-rule="evenodd"/></g><path fill="#000000" d="M 9.132812 152.207031 L 19.667969 146.808594 L 34.816406 152.089844 L 19.550781 147.160156 L 9.136719 152.207031 Z M 9.132812 152.207031 " fill-opacity="1" fill-rule="evenodd"/><g clip-path="url(#id19)"><path fill="#ff1616" d="M 58.25 157.707031 C 54.316406 157.707031 51.125 160.898438 51.125 164.832031 C 51.125 168.769531 54.316406 171.957031 58.25 171.957031 C 62.1875 171.957031 65.375 168.769531 65.375 164.832031 C 65.375 160.898438 62.1875 157.707031 58.25 157.707031 Z M 61.910156 167.382812 L 60.800781 168.492188 L 58.25 165.941406 L 55.703125 168.492188 L 54.59375 167.382812 L 57.140625 164.832031 L 54.59375 162.285156 L 55.703125 161.175781 L 58.25 163.722656 L 60.800781 161.175781 L 61.910156 162.285156 L 59.359375 164.832031 Z M 61.910156 167.382812 " fill-opacity="1" fill-rule="nonzero"/></g><g clip-path="url(#id20)"><path fill="#00002f" d="M 66.996094 149.328125 C 66.933594 149.039062 66.738281 148.742188 66.765625 148.507812 C 66.859375 147.660156 66.359375 147.40625 65.734375 147.195312 C 63.09375 146.296875 60.410156 145.609375 57.644531 145.265625 C 56.65625 145.140625 56.414062 145.414062 56.628906 146.40625 C 56.660156 146.53125 56.703125 146.648438 56.738281 146.773438 C 56.84375 147.1875 57.148438 147.375 57.519531 147.304688 C 57.882812 147.234375 58.210938 147.324219 58.542969 147.390625 C 59.394531 147.566406 60.242188 147.765625 61.089844 147.957031 C 61.113281 148.003906 61.117188 148.050781 61.101562 148.101562 C 60.183594 148.183594 59.269531 148.292969 58.355469 148.335938 C 56.007812 148.445312 53.699219 149.019531 51.320312 148.90625 C 50.191406 148.855469 49.042969 149.046875 47.914062 149.210938 C 47.027344 149.34375 46.128906 149.273438 45.25 149.464844 C 44.800781 149.5625 44.71875 149.679688 44.984375 150.050781 C 45.507812 150.796875 46.054688 151.539062 47.140625 151.300781 C 47.332031 151.257812 47.535156 151.277344 47.734375 151.257812 C 49.585938 151.066406 51.445312 150.957031 53.304688 150.835938 C 55.308594 150.707031 57.316406 150.566406 59.324219 150.425781 C 59.992188 150.378906 60.660156 150.316406 61.394531 150.253906 C 61.1875 150.59375 60.921875 150.691406 60.703125 150.84375 C 59.964844 151.363281 59.308594 151.980469 58.628906 152.574219 C 57.589844 153.480469 58.035156 154.6875 58.539062 155.429688 C 58.636719 155.570312 58.757812 155.648438 58.890625 155.460938 C 59.289062 154.886719 59.882812 154.546875 60.429688 154.15625 C 61.992188 153.03125 63.632812 152.027344 65.269531 151.019531 C 65.695312 150.757812 66.121094 150.5 66.550781 150.246094 C 66.898438 150.042969 67.097656 149.816406 66.996094 149.328125 Z M 61.390625 147.996094 C 61.402344 147.988281 61.414062 147.984375 61.425781 147.976562 C 61.417969 147.984375 61.410156 147.992188 61.398438 148 C 61.398438 148 61.394531 147.996094 61.390625 147.996094 Z M 61.390625 147.996094 " fill-opacity="1" fill-rule="nonzero"/></g><g clip-path="url(#id21)"><g clip-path="url(#id22)"><g clip-path="url(#id23)"><path fill="#197cc7" d="M 36.765625 123.875 C 37.316406 124.183594 37.878906 124.5 38.441406 124.8125 C 38.699219 124.957031 38.777344 125.34375 38.59375 125.664062 C 37.691406 127.285156 36.878906 128.945312 36.15625 130.648438 C 35.886719 131.269531 35.5625 131.878906 35.253906 132.480469 C 34.714844 133.566406 34.175781 134.652344 33.613281 135.722656 C 33.011719 136.886719 32.402344 138.058594 31.738281 139.183594 C 30.746094 140.894531 29.761719 142.625 28.882812 144.390625 C 28.4375 145.273438 27.929688 146.125 27.46875 147 C 26.527344 148.792969 25.539062 150.554688 24.734375 152.414062 C 24.5 152.976562 24.1875 153.511719 23.804688 154 C 23.679688 154.148438 23.542969 154.289062 23.398438 154.414062 C 23.171875 154.59375 22.960938 154.671875 22.691406 154.570312 C 21.035156 153.871094 19.375 153.199219 17.695312 152.53125 C 17.242188 152.332031 16.839844 152.023438 16.546875 151.613281 C 16.238281 151.214844 15.945312 150.777344 15.527344 150.46875 C 15.253906 150.269531 15.265625 149.902344 15.503906 149.519531 C 15.773438 149.085938 16.042969 148.671875 16.296875 148.234375 C 16.859375 147.273438 17.414062 146.292969 17.964844 145.324219 C 18.402344 144.5625 18.804688 143.777344 19.277344 143.039062 C 20.761719 140.695312 22.101562 138.28125 23.445312 135.867188 C 24.132812 134.644531 24.714844 133.359375 25.34375 132.101562 C 25.726562 131.351562 26.097656 130.613281 26.457031 129.851562 C 26.949219 128.785156 27.425781 127.722656 27.910156 126.667969 C 28.15625 126.140625 28.429688 125.613281 28.714844 125.097656 C 29.308594 124.058594 29.917969 123.015625 30.523438 121.988281 C 30.632812 121.8125 30.765625 121.652344 30.894531 121.492188 C 31 121.347656 31.1875 121.285156 31.359375 121.355469 C 32.3125 121.753906 33.273438 122.121094 34.230469 122.515625 C 34.726562 122.726562 35.195312 122.984375 35.660156 123.242188 C 36.03125 123.4375 36.363281 123.675781 36.722656 123.894531 L 36.742188 123.859375 Z M 36.765625 123.875 " fill-opacity="1" fill-rule="nonzero"/></g></g></g><g fill="#ffffff" fill-opacity="1"><g transform="translate(24.549383, 147.06199)"><g><path d="M 1.46875 -3.046875 L 1.046875 -2.1875 L -0.234375 -2.8125 L -0.703125 -1.828125 L 0.578125 -1.203125 L 0.15625 -0.34375 L -2.984375 -1.859375 L -2.5625 -2.71875 L -1.40625 -2.15625 L -0.9375 -3.140625 L -2.09375 -3.703125 L -1.671875 -4.5625 Z M 1.46875 -3.046875 "/></g></g><g transform="translate(26.177979, 143.689935)"><g><path d="M 0.546875 -1.140625 L 0.140625 -0.296875 L -2.296875 -1.46875 L -1.890625 -2.3125 Z M -2.921875 -1.734375 C -3.046875 -1.796875 -3.117188 -1.878906 -3.140625 -1.984375 C -3.171875 -2.085938 -3.148438 -2.21875 -3.078125 -2.375 C -2.992188 -2.53125 -2.898438 -2.628906 -2.796875 -2.671875 C -2.703125 -2.710938 -2.597656 -2.703125 -2.484375 -2.640625 C -2.234375 -2.523438 -2.179688 -2.316406 -2.328125 -2.015625 C -2.472656 -1.710938 -2.671875 -1.617188 -2.921875 -1.734375 Z M -2.921875 -1.734375 "/></g></g><g transform="translate(26.869276, 142.258585)"><g><path d="M 0.296875 -2.53125 C 0.554688 -2.40625 0.707031 -2.21875 0.75 -1.96875 C 0.800781 -1.726562 0.75 -1.445312 0.59375 -1.125 C 0.507812 -0.945312 0.421875 -0.789062 0.328125 -0.65625 C 0.242188 -0.53125 0.144531 -0.410156 0.03125 -0.296875 L -0.640625 -0.609375 C -0.515625 -0.722656 -0.394531 -0.847656 -0.28125 -0.984375 C -0.164062 -1.117188 -0.0820312 -1.25 -0.03125 -1.375 C 0.0625 -1.550781 0.0664062 -1.660156 -0.015625 -1.703125 C -0.0664062 -1.722656 -0.117188 -1.71875 -0.171875 -1.6875 C -0.234375 -1.65625 -0.367188 -1.539062 -0.578125 -1.34375 C -0.785156 -1.15625 -0.96875 -1.046875 -1.125 -1.015625 C -1.28125 -0.984375 -1.453125 -1.007812 -1.640625 -1.09375 C -1.859375 -1.207031 -1.988281 -1.382812 -2.03125 -1.625 C -2.070312 -1.863281 -2.015625 -2.144531 -1.859375 -2.46875 C -1.773438 -2.625 -1.679688 -2.757812 -1.578125 -2.875 C -1.484375 -3 -1.367188 -3.125 -1.234375 -3.25 L -0.796875 -2.75 C -0.898438 -2.675781 -1 -2.582031 -1.09375 -2.46875 C -1.1875 -2.351562 -1.253906 -2.257812 -1.296875 -2.1875 C -1.359375 -2.050781 -1.359375 -1.96875 -1.296875 -1.9375 C -1.253906 -1.914062 -1.207031 -1.921875 -1.15625 -1.953125 C -1.101562 -1.984375 -0.972656 -2.09375 -0.765625 -2.28125 C -0.617188 -2.414062 -0.492188 -2.507812 -0.390625 -2.5625 C -0.285156 -2.613281 -0.175781 -2.632812 -0.0625 -2.625 C 0.0507812 -2.625 0.171875 -2.59375 0.296875 -2.53125 Z M 0.296875 -2.53125 "/></g></g><g transform="translate(28.002754, 139.911686)"><g><path d="M 0.09375 -1.78125 C 0.144531 -1.894531 0.179688 -2.046875 0.203125 -2.234375 L 0.8125 -1.9375 C 0.8125 -1.789062 0.796875 -1.660156 0.765625 -1.546875 C 0.734375 -1.441406 0.6875 -1.320312 0.625 -1.1875 C 0.488281 -0.90625 0.320312 -0.734375 0.125 -0.671875 C -0.0625 -0.609375 -0.300781 -0.648438 -0.59375 -0.796875 L -1.59375 -1.28125 L -1.75 -0.984375 L -2.109375 -1.15625 L -2.171875 -1.65625 L -2.578125 -2.109375 L -2.3125 -2.65625 L -1.828125 -2.421875 L -1.546875 -3.03125 L -0.90625 -2.734375 L -1.1875 -2.125 L -0.25 -1.671875 C -0.09375 -1.585938 0.0195312 -1.625 0.09375 -1.78125 Z M 0.09375 -1.78125 "/></g></g><g transform="translate(28.980534, 137.887163)"><g><path d="M 0.046875 -3.203125 C 0.441406 -3.003906 0.695312 -2.742188 0.8125 -2.421875 C 0.9375 -2.109375 0.90625 -1.757812 0.71875 -1.375 C 0.539062 -1.007812 0.285156 -0.769531 -0.046875 -0.65625 C -0.378906 -0.550781 -0.738281 -0.59375 -1.125 -0.78125 C -1.519531 -0.96875 -1.773438 -1.222656 -1.890625 -1.546875 C -2.003906 -1.867188 -1.972656 -2.222656 -1.796875 -2.609375 C -1.671875 -2.847656 -1.515625 -3.035156 -1.328125 -3.171875 C -1.148438 -3.304688 -0.941406 -3.375 -0.703125 -3.375 C -0.460938 -3.382812 -0.210938 -3.328125 0.046875 -3.203125 Z M -0.71875 -1.640625 C -0.519531 -1.535156 -0.347656 -1.484375 -0.203125 -1.484375 C -0.0664062 -1.484375 0.03125 -1.550781 0.09375 -1.6875 C 0.164062 -1.820312 0.15625 -1.941406 0.0625 -2.046875 C -0.03125 -2.148438 -0.175781 -2.253906 -0.375 -2.359375 C -0.582031 -2.453125 -0.75 -2.5 -0.875 -2.5 C -1.007812 -2.5 -1.113281 -2.425781 -1.1875 -2.28125 C -1.25 -2.15625 -1.238281 -2.039062 -1.15625 -1.9375 C -1.070312 -1.832031 -0.925781 -1.734375 -0.71875 -1.640625 Z M -0.71875 -1.640625 "/></g></g><g transform="translate(30.335102, 135.08249)"><g><path d="M -1.625 -2.96875 C -1.582031 -3.039062 -1.546875 -3.101562 -1.515625 -3.15625 L -1.484375 -3.203125 L -0.71875 -2.734375 C -0.769531 -2.679688 -0.828125 -2.59375 -0.890625 -2.46875 C -0.972656 -2.28125 -0.992188 -2.125 -0.953125 -2 C -0.910156 -1.875 -0.8125 -1.773438 -0.65625 -1.703125 L 0.546875 -1.125 L 0.140625 -0.296875 L -2.296875 -1.46875 L -2 -2.09375 L -1.546875 -2.03125 L -1.53125 -2.0625 C -1.613281 -2.207031 -1.660156 -2.363281 -1.671875 -2.53125 C -1.691406 -2.695312 -1.675781 -2.84375 -1.625 -2.96875 Z M -1.625 -2.96875 "/></g></g><g transform="translate(31.332604, 133.017133)"><g><path d="M -2.4375 -1.171875 L -2.015625 -2.0625 L -0.421875 -1.796875 C -0.328125 -1.785156 -0.234375 -1.757812 -0.140625 -1.71875 L -0.125 -1.71875 C -0.21875 -1.78125 -0.300781 -1.84375 -0.375 -1.90625 L -1.546875 -3 L -1.140625 -3.859375 L 0.984375 -1.640625 C 1.242188 -1.359375 1.398438 -1.09375 1.453125 -0.84375 C 1.515625 -0.601562 1.472656 -0.335938 1.328125 -0.046875 C 1.273438 0.0664062 1.210938 0.175781 1.140625 0.28125 L 0.46875 -0.046875 C 0.519531 -0.117188 0.570312 -0.203125 0.625 -0.296875 C 0.65625 -0.367188 0.664062 -0.441406 0.65625 -0.515625 C 0.65625 -0.585938 0.640625 -0.65625 0.609375 -0.71875 C 0.578125 -0.789062 0.519531 -0.875 0.4375 -0.96875 Z M -2.4375 -1.171875 "/></g></g></g><g clip-path="url(#id24)"><path fill="#00002f" d="M 93.464844 140.734375 L 90.605469 146.761719 L 90.617188 146.769531 L 90.523438 146.8125 L 85.59375 142.519531 L 74.808594 147.09375 L 79.957031 152.335938 L 79.976562 152.328125 L 80.011719 152.460938 L 79.484375 152.21875 L 72.140625 152.902344 L 80.003906 156.460938 L 80.59375 162.703125 L 94.828125 169.824219 L 94.832031 169.984375 L 94.921875 169.921875 L 94.925781 169.976562 L 94.925781 169.921875 L 106.046875 162.417969 L 106.046875 154.554688 L 111.875 150.886719 L 106.128906 151.976562 L 110.46875 145.976562 Z M 105.976562 152.027344 L 105.984375 152.03125 L 105.972656 152.039062 Z M 105.976562 152.027344 " fill-opacity="1" fill-rule="evenodd"/></g><path fill="#8d622f" d="M 80.164062 152.207031 L 90.933594 146.808594 L 105.730469 151.972656 L 104.546875 161.238281 L 93.183594 165.695312 L 82.058594 160.179688 Z M 80.164062 152.207031 " fill-opacity="1" fill-rule="evenodd"/><path fill="#9d6e2d" d="M 80.179688 152.359375 L 90.765625 147.066406 L 85.710938 142.625 L 75.125 147.164062 Z M 80.179688 152.359375 " fill-opacity="1" fill-rule="evenodd"/><g clip-path="url(#id25)"><path fill="#9d6e2d" d="M 90.628906 146.832031 L 93.4375 140.851562 L 110.128906 146.050781 L 105.808594 152.085938 Z M 90.628906 146.832031 " fill-opacity="1" fill-rule="evenodd"/></g><path fill="#000000" d="M 80.992188 162.175781 L 91.121094 155.667969 L 90.816406 146.808594 L 91.507812 155.636719 L 105.253906 162.058594 L 91.292969 156.0625 Z M 80.992188 162.175781 " fill-opacity="0.5765" fill-rule="evenodd"/><g clip-path="url(#id26)"><path fill="#9d6e2d" d="M 94.78125 169.863281 L 94.453125 159.269531 L 105.789062 152.90625 L 105.789062 162.355469 Z M 94.78125 169.863281 " fill-opacity="1" fill-rule="evenodd"/></g><g clip-path="url(#id27)"><path fill="#000000" d="M 105.800781 152.015625 L 93.992188 159.144531 L 100.34375 158.027344 L 111.511719 150.921875 Z M 105.800781 152.015625 " fill-opacity="1" fill-rule="evenodd"/></g><path fill="#9d6e2d" d="M 105.742188 152.058594 L 94.4375 158.859375 L 100.351562 157.820312 L 110.746094 151.203125 Z M 105.742188 152.058594 " fill-opacity="1" fill-rule="evenodd"/><g clip-path="url(#id28)"><path fill="#9d6e2d" d="M 79.847656 152.433594 L 80.800781 162.640625 L 94.820312 169.730469 L 94.34375 159.144531 Z M 79.847656 152.433594 " fill-opacity="1" fill-rule="evenodd"/></g><g clip-path="url(#id29)"><path fill="#000000" d="M 79.710938 152.242188 L 94.820312 159.210938 L 88.992188 160.46875 L 72.503906 152.921875 Z M 79.710938 152.242188 " fill-opacity="1" fill-rule="evenodd"/><path fill="#9d6e2d" d="M 79.847656 152.339844 L 94.4375 159.0625 L 88.8125 160.277344 L 72.886719 152.992188 Z M 79.847656 152.339844 " fill-opacity="1" fill-rule="evenodd"/></g><g clip-path="url(#id30)"><path fill="#000000" d="M 94.871094 169.859375 L 94.199219 159.066406 L 94.648438 159.066406 Z M 94.871094 169.859375 " fill-opacity="1" fill-rule="evenodd"/></g><path fill="#000000" d="M 80.164062 152.207031 L 90.699219 146.808594 L 105.847656 152.089844 L 90.578125 147.160156 Z M 80.164062 152.207031 " fill-opacity="1" fill-rule="evenodd"/><g clip-path="url(#id31)"><g clip-path="url(#id32)"><g clip-path="url(#id33)"><path fill="#197cc7" d="M 107.796875 123.875 C 108.347656 124.183594 108.910156 124.5 109.472656 124.8125 C 109.730469 124.957031 109.804688 125.34375 109.621094 125.664062 C 108.71875 127.285156 107.90625 128.945312 107.1875 130.648438 C 106.917969 131.269531 106.589844 131.878906 106.285156 132.480469 C 105.746094 133.566406 105.207031 134.652344 104.640625 135.722656 C 104.039062 136.886719 103.429688 138.058594 102.769531 139.183594 C 101.777344 140.894531 100.792969 142.625 99.914062 144.390625 C 99.464844 145.273438 98.957031 146.125 98.5 147 C 97.558594 148.792969 96.566406 150.554688 95.765625 152.414062 C 95.53125 152.976562 95.21875 153.511719 94.832031 154 C 94.707031 154.148438 94.570312 154.289062 94.429688 154.414062 C 94.203125 154.59375 93.988281 154.671875 93.722656 154.570312 C 92.0625 153.871094 90.402344 153.199219 88.722656 152.53125 C 88.269531 152.332031 87.871094 152.023438 87.578125 151.613281 C 87.265625 151.214844 86.976562 150.777344 86.558594 150.46875 C 86.285156 150.269531 86.296875 149.902344 86.535156 149.519531 C 86.800781 149.085938 87.074219 148.671875 87.328125 148.234375 C 87.890625 147.273438 88.445312 146.292969 88.996094 145.324219 C 89.433594 144.5625 89.835938 143.777344 90.308594 143.039062 C 91.789062 140.695312 93.132812 138.28125 94.476562 135.867188 C 95.164062 134.644531 95.746094 133.359375 96.375 132.101562 C 96.753906 131.351562 97.128906 130.613281 97.484375 129.851562 C 97.980469 128.785156 98.453125 127.722656 98.941406 126.667969 C 99.183594 126.140625 99.460938 125.613281 99.746094 125.097656 C 100.339844 124.058594 100.949219 123.015625 101.554688 121.988281 C 101.660156 121.8125 101.792969 121.652344 101.925781 121.492188 C 102.03125 121.347656 102.21875 121.285156 102.386719 121.355469 C 103.34375 121.753906 104.304688 122.121094 105.261719 122.515625 C 105.757812 122.726562 106.222656 122.984375 106.691406 123.242188 C 107.0625 123.4375 107.394531 123.675781 107.75 123.894531 L 107.773438 123.859375 Z M 107.796875 123.875 " fill-opacity="1" fill-rule="nonzero"/></g></g></g><g fill="#ffffff" fill-opacity="1"><g transform="translate(95.579345, 147.06199)"><g><path d="M 1.46875 -3.046875 L 1.046875 -2.1875 L -0.234375 -2.8125 L -0.703125 -1.828125 L 0.578125 -1.203125 L 0.15625 -0.34375 L -2.984375 -1.859375 L -2.5625 -2.71875 L -1.40625 -2.15625 L -0.9375 -3.140625 L -2.09375 -3.703125 L -1.671875 -4.5625 Z M 1.46875 -3.046875 "/></g></g><g transform="translate(97.207941, 143.689935)"><g><path d="M 0.546875 -1.140625 L 0.140625 -0.296875 L -2.296875 -1.46875 L -1.890625 -2.3125 Z M -2.921875 -1.734375 C -3.046875 -1.796875 -3.117188 -1.878906 -3.140625 -1.984375 C -3.171875 -2.085938 -3.148438 -2.21875 -3.078125 -2.375 C -2.992188 -2.53125 -2.898438 -2.628906 -2.796875 -2.671875 C -2.703125 -2.710938 -2.597656 -2.703125 -2.484375 -2.640625 C -2.234375 -2.523438 -2.179688 -2.316406 -2.328125 -2.015625 C -2.472656 -1.710938 -2.671875 -1.617188 -2.921875 -1.734375 Z M -2.921875 -1.734375 "/></g></g><g transform="translate(97.899238, 142.258585)"><g><path d="M 0.296875 -2.53125 C 0.554688 -2.40625 0.707031 -2.21875 0.75 -1.96875 C 0.800781 -1.726562 0.75 -1.445312 0.59375 -1.125 C 0.507812 -0.945312 0.421875 -0.789062 0.328125 -0.65625 C 0.242188 -0.53125 0.144531 -0.410156 0.03125 -0.296875 L -0.640625 -0.609375 C -0.515625 -0.722656 -0.394531 -0.847656 -0.28125 -0.984375 C -0.164062 -1.117188 -0.0820312 -1.25 -0.03125 -1.375 C 0.0625 -1.550781 0.0664062 -1.660156 -0.015625 -1.703125 C -0.0664062 -1.722656 -0.117188 -1.71875 -0.171875 -1.6875 C -0.234375 -1.65625 -0.367188 -1.539062 -0.578125 -1.34375 C -0.785156 -1.15625 -0.96875 -1.046875 -1.125 -1.015625 C -1.28125 -0.984375 -1.453125 -1.007812 -1.640625 -1.09375 C -1.859375 -1.207031 -1.988281 -1.382812 -2.03125 -1.625 C -2.070312 -1.863281 -2.015625 -2.144531 -1.859375 -2.46875 C -1.773438 -2.625 -1.679688 -2.757812 -1.578125 -2.875 C -1.484375 -3 -1.367188 -3.125 -1.234375 -3.25 L -0.796875 -2.75 C -0.898438 -2.675781 -1 -2.582031 -1.09375 -2.46875 C -1.1875 -2.351562 -1.253906 -2.257812 -1.296875 -2.1875 C -1.359375 -2.050781 -1.359375 -1.96875 -1.296875 -1.9375 C -1.253906 -1.914062 -1.207031 -1.921875 -1.15625 -1.953125 C -1.101562 -1.984375 -0.972656 -2.09375 -0.765625 -2.28125 C -0.617188 -2.414062 -0.492188 -2.507812 -0.390625 -2.5625 C -0.285156 -2.613281 -0.175781 -2.632812 -0.0625 -2.625 C 0.0507812 -2.625 0.171875 -2.59375 0.296875 -2.53125 Z M 0.296875 -2.53125 "/></g></g><g transform="translate(99.032716, 139.911686)"><g><path d="M 0.09375 -1.78125 C 0.144531 -1.894531 0.179688 -2.046875 0.203125 -2.234375 L 0.8125 -1.9375 C 0.8125 -1.789062 0.796875 -1.660156 0.765625 -1.546875 C 0.734375 -1.441406 0.6875 -1.320312 0.625 -1.1875 C 0.488281 -0.90625 0.320312 -0.734375 0.125 -0.671875 C -0.0625 -0.609375 -0.300781 -0.648438 -0.59375 -0.796875 L -1.59375 -1.28125 L -1.75 -0.984375 L -2.109375 -1.15625 L -2.171875 -1.65625 L -2.578125 -2.109375 L -2.3125 -2.65625 L -1.828125 -2.421875 L -1.546875 -3.03125 L -0.90625 -2.734375 L -1.1875 -2.125 L -0.25 -1.671875 C -0.09375 -1.585938 0.0195312 -1.625 0.09375 -1.78125 Z M 0.09375 -1.78125 "/></g></g><g transform="translate(100.010497, 137.887163)"><g><path d="M 0.046875 -3.203125 C 0.441406 -3.003906 0.695312 -2.742188 0.8125 -2.421875 C 0.9375 -2.109375 0.90625 -1.757812 0.71875 -1.375 C 0.539062 -1.007812 0.285156 -0.769531 -0.046875 -0.65625 C -0.378906 -0.550781 -0.738281 -0.59375 -1.125 -0.78125 C -1.519531 -0.96875 -1.773438 -1.222656 -1.890625 -1.546875 C -2.003906 -1.867188 -1.972656 -2.222656 -1.796875 -2.609375 C -1.671875 -2.847656 -1.515625 -3.035156 -1.328125 -3.171875 C -1.148438 -3.304688 -0.941406 -3.375 -0.703125 -3.375 C -0.460938 -3.382812 -0.210938 -3.328125 0.046875 -3.203125 Z M -0.71875 -1.640625 C -0.519531 -1.535156 -0.347656 -1.484375 -0.203125 -1.484375 C -0.0664062 -1.484375 0.03125 -1.550781 0.09375 -1.6875 C 0.164062 -1.820312 0.15625 -1.941406 0.0625 -2.046875 C -0.03125 -2.148438 -0.175781 -2.253906 -0.375 -2.359375 C -0.582031 -2.453125 -0.75 -2.5 -0.875 -2.5 C -1.007812 -2.5 -1.113281 -2.425781 -1.1875 -2.28125 C -1.25 -2.15625 -1.238281 -2.039062 -1.15625 -1.9375 C -1.070312 -1.832031 -0.925781 -1.734375 -0.71875 -1.640625 Z M -0.71875 -1.640625 "/></g></g><g transform="translate(101.365065, 135.08249)"><g><path d="M -1.625 -2.96875 C -1.582031 -3.039062 -1.546875 -3.101562 -1.515625 -3.15625 L -1.484375 -3.203125 L -0.71875 -2.734375 C -0.769531 -2.679688 -0.828125 -2.59375 -0.890625 -2.46875 C -0.972656 -2.28125 -0.992188 -2.125 -0.953125 -2 C -0.910156 -1.875 -0.8125 -1.773438 -0.65625 -1.703125 L 0.546875 -1.125 L 0.140625 -0.296875 L -2.296875 -1.46875 L -2 -2.09375 L -1.546875 -2.03125 L -1.53125 -2.0625 C -1.613281 -2.207031 -1.660156 -2.363281 -1.671875 -2.53125 C -1.691406 -2.695312 -1.675781 -2.84375 -1.625 -2.96875 Z M -1.625 -2.96875 "/></g></g><g transform="translate(102.362567, 133.017133)"><g><path d="M -2.4375 -1.171875 L -2.015625 -2.0625 L -0.421875 -1.796875 C -0.328125 -1.785156 -0.234375 -1.757812 -0.140625 -1.71875 L -0.125 -1.71875 C -0.21875 -1.78125 -0.300781 -1.84375 -0.375 -1.90625 L -1.546875 -3 L -1.140625 -3.859375 L 0.984375 -1.640625 C 1.242188 -1.359375 1.398438 -1.09375 1.453125 -0.84375 C 1.515625 -0.601562 1.472656 -0.335938 1.328125 -0.046875 C 1.273438 0.0664062 1.210938 0.175781 1.140625 0.28125 L 0.46875 -0.046875 C 0.519531 -0.117188 0.570312 -0.203125 0.625 -0.296875 C 0.65625 -0.367188 0.664062 -0.441406 0.65625 -0.515625 C 0.65625 -0.585938 0.640625 -0.65625 0.609375 -0.71875 C 0.578125 -0.789062 0.519531 -0.875 0.4375 -0.96875 Z M -2.4375 -1.171875 "/></g></g></g><g fill="#197cc7" fill-opacity="1"><g transform="translate(9.517181, 26.874875)"><g><path d="M 6.359375 -2.53125 C 6.359375 -2.007812 6.222656 -1.546875 5.953125 -1.140625 C 5.691406 -0.742188 5.316406 -0.4375 4.828125 -0.21875 C 4.335938 0 3.757812 0.109375 3.09375 0.109375 C 2.53125 0.109375 2.0625 0.0703125 1.6875 0 C 1.3125 -0.0820312 0.921875 -0.21875 0.515625 -0.40625 L 0.515625 -2.421875 C 0.941406 -2.203125 1.382812 -2.03125 1.84375 -1.90625 C 2.3125 -1.78125 2.742188 -1.71875 3.140625 -1.71875 C 3.472656 -1.71875 3.71875 -1.773438 3.875 -1.890625 C 4.03125 -2.003906 4.109375 -2.15625 4.109375 -2.34375 C 4.109375 -2.457031 4.078125 -2.554688 4.015625 -2.640625 C 3.953125 -2.722656 3.847656 -2.804688 3.703125 -2.890625 C 3.566406 -2.984375 3.195312 -3.164062 2.59375 -3.4375 C 2.050781 -3.6875 1.644531 -3.925781 1.375 -4.15625 C 1.101562 -4.382812 0.898438 -4.648438 0.765625 -4.953125 C 0.640625 -5.253906 0.578125 -5.609375 0.578125 -6.015625 C 0.578125 -6.785156 0.851562 -7.382812 1.40625 -7.8125 C 1.96875 -8.25 2.738281 -8.46875 3.71875 -8.46875 C 4.582031 -8.46875 5.460938 -8.265625 6.359375 -7.859375 L 5.671875 -6.125 C 4.890625 -6.476562 4.210938 -6.65625 3.640625 -6.65625 C 3.347656 -6.65625 3.132812 -6.601562 3 -6.5 C 2.875 -6.40625 2.8125 -6.28125 2.8125 -6.125 C 2.8125 -5.957031 2.894531 -5.804688 3.0625 -5.671875 C 3.226562 -5.546875 3.6875 -5.3125 4.4375 -4.96875 C 5.15625 -4.644531 5.65625 -4.296875 5.9375 -3.921875 C 6.21875 -3.554688 6.359375 -3.09375 6.359375 -2.53125 Z M 6.359375 -2.53125 "/></g></g><g transform="translate(16.261465, 26.874875)"><g><path d="M 3.890625 0.109375 C 2.816406 0.109375 1.976562 -0.175781 1.375 -0.75 C 0.78125 -1.320312 0.484375 -2.132812 0.484375 -3.1875 C 0.484375 -4.28125 0.757812 -5.117188 1.3125 -5.703125 C 1.863281 -6.285156 2.65625 -6.578125 3.6875 -6.578125 C 4.65625 -6.578125 5.40625 -6.320312 5.9375 -5.8125 C 6.46875 -5.3125 6.734375 -4.582031 6.734375 -3.625 L 6.734375 -2.625 L 2.75 -2.625 C 2.757812 -2.269531 2.890625 -1.988281 3.140625 -1.78125 C 3.390625 -1.570312 3.726562 -1.46875 4.15625 -1.46875 C 4.550781 -1.46875 4.910156 -1.503906 5.234375 -1.578125 C 5.566406 -1.648438 5.925781 -1.78125 6.3125 -1.96875 L 6.3125 -0.359375 C 5.957031 -0.179688 5.59375 -0.0625 5.21875 0 C 4.851562 0.0703125 4.410156 0.109375 3.890625 0.109375 Z M 3.765625 -5.0625 C 3.492188 -5.0625 3.269531 -4.976562 3.09375 -4.8125 C 2.925781 -4.644531 2.828125 -4.382812 2.796875 -4.03125 L 4.703125 -4.03125 C 4.703125 -4.34375 4.613281 -4.59375 4.4375 -4.78125 C 4.269531 -4.96875 4.046875 -5.0625 3.765625 -5.0625 Z M 3.765625 -5.0625 "/></g></g><g transform="translate(23.485038, 26.874875)"><g><path d="M 5.765625 -1.984375 C 5.765625 -1.296875 5.523438 -0.773438 5.046875 -0.421875 C 4.578125 -0.0664062 3.90625 0.109375 3.03125 0.109375 C 2.550781 0.109375 2.132812 0.0820312 1.78125 0.03125 C 1.425781 -0.0195312 1.0625 -0.113281 0.6875 -0.25 L 0.6875 -2.03125 C 1.03125 -1.875 1.410156 -1.742188 1.828125 -1.640625 C 2.242188 -1.546875 2.613281 -1.5 2.9375 -1.5 C 3.414062 -1.5 3.65625 -1.613281 3.65625 -1.84375 C 3.65625 -1.957031 3.585938 -2.054688 3.453125 -2.140625 C 3.316406 -2.234375 2.925781 -2.410156 2.28125 -2.671875 C 1.6875 -2.910156 1.269531 -3.179688 1.03125 -3.484375 C 0.789062 -3.796875 0.671875 -4.191406 0.671875 -4.671875 C 0.671875 -5.273438 0.90625 -5.742188 1.375 -6.078125 C 1.84375 -6.410156 2.5 -6.578125 3.34375 -6.578125 C 3.769531 -6.578125 4.171875 -6.53125 4.546875 -6.4375 C 4.921875 -6.34375 5.3125 -6.207031 5.71875 -6.03125 L 5.109375 -4.59375 C 4.804688 -4.726562 4.488281 -4.84375 4.15625 -4.9375 C 3.832031 -5.03125 3.566406 -5.078125 3.359375 -5.078125 C 2.992188 -5.078125 2.8125 -4.988281 2.8125 -4.8125 C 2.8125 -4.695312 2.875 -4.597656 3 -4.515625 C 3.125 -4.441406 3.492188 -4.285156 4.109375 -4.046875 C 4.554688 -3.859375 4.890625 -3.675781 5.109375 -3.5 C 5.335938 -3.320312 5.503906 -3.109375 5.609375 -2.859375 C 5.710938 -2.617188 5.765625 -2.328125 5.765625 -1.984375 Z M 5.765625 -1.984375 "/></g></g><g transform="translate(29.715797, 26.874875)"><g><path d="M 5.765625 -1.984375 C 5.765625 -1.296875 5.523438 -0.773438 5.046875 -0.421875 C 4.578125 -0.0664062 3.90625 0.109375 3.03125 0.109375 C 2.550781 0.109375 2.132812 0.0820312 1.78125 0.03125 C 1.425781 -0.0195312 1.0625 -0.113281 0.6875 -0.25 L 0.6875 -2.03125 C 1.03125 -1.875 1.410156 -1.742188 1.828125 -1.640625 C 2.242188 -1.546875 2.613281 -1.5 2.9375 -1.5 C 3.414062 -1.5 3.65625 -1.613281 3.65625 -1.84375 C 3.65625 -1.957031 3.585938 -2.054688 3.453125 -2.140625 C 3.316406 -2.234375 2.925781 -2.410156 2.28125 -2.671875 C 1.6875 -2.910156 1.269531 -3.179688 1.03125 -3.484375 C 0.789062 -3.796875 0.671875 -4.191406 0.671875 -4.671875 C 0.671875 -5.273438 0.90625 -5.742188 1.375 -6.078125 C 1.84375 -6.410156 2.5 -6.578125 3.34375 -6.578125 C 3.769531 -6.578125 4.171875 -6.53125 4.546875 -6.4375 C 4.921875 -6.34375 5.3125 -6.207031 5.71875 -6.03125 L 5.109375 -4.59375 C 4.804688 -4.726562 4.488281 -4.84375 4.15625 -4.9375 C 3.832031 -5.03125 3.566406 -5.078125 3.359375 -5.078125 C 2.992188 -5.078125 2.8125 -4.988281 2.8125 -4.8125 C 2.8125 -4.695312 2.875 -4.597656 3 -4.515625 C 3.125 -4.441406 3.492188 -4.285156 4.109375 -4.046875 C 4.554688 -3.859375 4.890625 -3.675781 5.109375 -3.5 C 5.335938 -3.320312 5.503906 -3.109375 5.609375 -2.859375 C 5.710938 -2.617188 5.765625 -2.328125 5.765625 -1.984375 Z M 5.765625 -1.984375 "/></g></g><g transform="translate(35.946557, 26.874875)"><g><path d="M 3.015625 0 L 0.78125 0 L 0.78125 -6.46875 L 3.015625 -6.46875 Z M 0.71875 -8.078125 C 0.71875 -8.410156 0.8125 -8.65625 1 -8.8125 C 1.1875 -8.976562 1.488281 -9.0625 1.90625 -9.0625 C 2.320312 -9.0625 2.625 -8.976562 2.8125 -8.8125 C 3 -8.644531 3.09375 -8.398438 3.09375 -8.078125 C 3.09375 -7.421875 2.695312 -7.09375 1.90625 -7.09375 C 1.113281 -7.09375 0.71875 -7.421875 0.71875 -8.078125 Z M 0.71875 -8.078125 "/></g></g><g transform="translate(39.746636, 26.874875)"><g><path d="M 6.9375 -3.25 C 6.9375 -2.1875 6.648438 -1.359375 6.078125 -0.765625 C 5.515625 -0.179688 4.722656 0.109375 3.703125 0.109375 C 2.722656 0.109375 1.941406 -0.191406 1.359375 -0.796875 C 0.773438 -1.398438 0.484375 -2.21875 0.484375 -3.25 C 0.484375 -4.300781 0.769531 -5.117188 1.34375 -5.703125 C 1.914062 -6.285156 2.710938 -6.578125 3.734375 -6.578125 C 4.367188 -6.578125 4.929688 -6.441406 5.421875 -6.171875 C 5.910156 -5.898438 6.285156 -5.507812 6.546875 -5 C 6.804688 -4.5 6.9375 -3.914062 6.9375 -3.25 Z M 2.75 -3.25 C 2.75 -2.6875 2.820312 -2.257812 2.96875 -1.96875 C 3.125 -1.6875 3.375 -1.546875 3.71875 -1.546875 C 4.070312 -1.546875 4.316406 -1.6875 4.453125 -1.96875 C 4.597656 -2.257812 4.671875 -2.6875 4.671875 -3.25 C 4.671875 -3.800781 4.597656 -4.21875 4.453125 -4.5 C 4.304688 -4.78125 4.0625 -4.921875 3.71875 -4.921875 C 3.375 -4.921875 3.125 -4.78125 2.96875 -4.5 C 2.820312 -4.21875 2.75 -3.800781 2.75 -3.25 Z M 2.75 -3.25 "/></g></g><g transform="translate(47.192736, 26.874875)"><g><path d="M 4.84375 0 L 4.84375 -3.53125 C 4.84375 -3.957031 4.78125 -4.28125 4.65625 -4.5 C 4.539062 -4.71875 4.34375 -4.828125 4.0625 -4.828125 C 3.6875 -4.828125 3.414062 -4.675781 3.25 -4.375 C 3.082031 -4.070312 3 -3.554688 3 -2.828125 L 3 0 L 0.765625 0 L 0.765625 -6.46875 L 2.453125 -6.46875 L 2.734375 -5.671875 L 2.859375 -5.671875 C 3.054688 -5.972656 3.320312 -6.195312 3.65625 -6.34375 C 3.988281 -6.5 4.375 -6.578125 4.8125 -6.578125 C 5.53125 -6.578125 6.085938 -6.367188 6.484375 -5.953125 C 6.878906 -5.535156 7.078125 -4.953125 7.078125 -4.203125 L 7.078125 0 Z M 4.84375 0 "/></g></g><g transform="translate(55.021127, 26.874875)"><g/></g><g transform="translate(58.056625, 26.874875)"><g><path d="M 6.359375 -2.53125 C 6.359375 -2.007812 6.222656 -1.546875 5.953125 -1.140625 C 5.691406 -0.742188 5.316406 -0.4375 4.828125 -0.21875 C 4.335938 0 3.757812 0.109375 3.09375 0.109375 C 2.53125 0.109375 2.0625 0.0703125 1.6875 0 C 1.3125 -0.0820312 0.921875 -0.21875 0.515625 -0.40625 L 0.515625 -2.421875 C 0.941406 -2.203125 1.382812 -2.03125 1.84375 -1.90625 C 2.3125 -1.78125 2.742188 -1.71875 3.140625 -1.71875 C 3.472656 -1.71875 3.71875 -1.773438 3.875 -1.890625 C 4.03125 -2.003906 4.109375 -2.15625 4.109375 -2.34375 C 4.109375 -2.457031 4.078125 -2.554688 4.015625 -2.640625 C 3.953125 -2.722656 3.847656 -2.804688 3.703125 -2.890625 C 3.566406 -2.984375 3.195312 -3.164062 2.59375 -3.4375 C 2.050781 -3.6875 1.644531 -3.925781 1.375 -4.15625 C 1.101562 -4.382812 0.898438 -4.648438 0.765625 -4.953125 C 0.640625 -5.253906 0.578125 -5.609375 0.578125 -6.015625 C 0.578125 -6.785156 0.851562 -7.382812 1.40625 -7.8125 C 1.96875 -8.25 2.738281 -8.46875 3.71875 -8.46875 C 4.582031 -8.46875 5.460938 -8.265625 6.359375 -7.859375 L 5.671875 -6.125 C 4.890625 -6.476562 4.210938 -6.65625 3.640625 -6.65625 C 3.347656 -6.65625 3.132812 -6.601562 3 -6.5 C 2.875 -6.40625 2.8125 -6.28125 2.8125 -6.125 C 2.8125 -5.957031 2.894531 -5.804688 3.0625 -5.671875 C 3.226562 -5.546875 3.6875 -5.3125 4.4375 -4.96875 C 5.15625 -4.644531 5.65625 -4.296875 5.9375 -3.921875 C 6.21875 -3.554688 6.359375 -3.09375 6.359375 -2.53125 Z M 6.359375 -2.53125 "/></g></g><g transform="translate(64.800909, 26.874875)"><g><path d="M 3.9375 -1.65625 C 4.238281 -1.65625 4.597656 -1.726562 5.015625 -1.875 L 5.015625 -0.25 C 4.710938 -0.113281 4.425781 -0.0195312 4.15625 0.03125 C 3.882812 0.0820312 3.566406 0.109375 3.203125 0.109375 C 2.453125 0.109375 1.910156 -0.0703125 1.578125 -0.4375 C 1.242188 -0.800781 1.078125 -1.363281 1.078125 -2.125 L 1.078125 -4.796875 L 0.296875 -4.796875 L 0.296875 -5.703125 L 1.296875 -6.40625 L 1.875 -7.765625 L 3.328125 -7.765625 L 3.328125 -6.46875 L 4.921875 -6.46875 L 4.921875 -4.796875 L 3.328125 -4.796875 L 3.328125 -2.28125 C 3.328125 -1.863281 3.53125 -1.65625 3.9375 -1.65625 Z M 3.9375 -1.65625 "/></g></g><g transform="translate(70.175795, 26.874875)"><g><path d="M 6.9375 -3.25 C 6.9375 -2.1875 6.648438 -1.359375 6.078125 -0.765625 C 5.515625 -0.179688 4.722656 0.109375 3.703125 0.109375 C 2.722656 0.109375 1.941406 -0.191406 1.359375 -0.796875 C 0.773438 -1.398438 0.484375 -2.21875 0.484375 -3.25 C 0.484375 -4.300781 0.769531 -5.117188 1.34375 -5.703125 C 1.914062 -6.285156 2.710938 -6.578125 3.734375 -6.578125 C 4.367188 -6.578125 4.929688 -6.441406 5.421875 -6.171875 C 5.910156 -5.898438 6.285156 -5.507812 6.546875 -5 C 6.804688 -4.5 6.9375 -3.914062 6.9375 -3.25 Z M 2.75 -3.25 C 2.75 -2.6875 2.820312 -2.257812 2.96875 -1.96875 C 3.125 -1.6875 3.375 -1.546875 3.71875 -1.546875 C 4.070312 -1.546875 4.316406 -1.6875 4.453125 -1.96875 C 4.597656 -2.257812 4.671875 -2.6875 4.671875 -3.25 C 4.671875 -3.800781 4.597656 -4.21875 4.453125 -4.5 C 4.304688 -4.78125 4.0625 -4.921875 3.71875 -4.921875 C 3.375 -4.921875 3.125 -4.78125 2.96875 -4.5 C 2.820312 -4.21875 2.75 -3.800781 2.75 -3.25 Z M 2.75 -3.25 "/></g></g><g transform="translate(77.621896, 26.874875)"><g><path d="M 4.671875 -6.578125 C 4.867188 -6.578125 5.054688 -6.5625 5.234375 -6.53125 L 5.359375 -6.515625 L 5.15625 -4.40625 C 4.96875 -4.445312 4.710938 -4.46875 4.390625 -4.46875 C 3.898438 -4.46875 3.546875 -4.359375 3.328125 -4.140625 C 3.109375 -3.921875 3 -3.597656 3 -3.171875 L 3 0 L 0.765625 0 L 0.765625 -6.46875 L 2.4375 -6.46875 L 2.78125 -5.4375 L 2.890625 -5.4375 C 3.078125 -5.78125 3.335938 -6.054688 3.671875 -6.265625 C 4.003906 -6.472656 4.335938 -6.578125 4.671875 -6.578125 Z M 4.671875 -6.578125 "/></g></g><g transform="translate(83.105192, 26.874875)"><g><path d="M 4.984375 0 L 4.5625 -0.859375 L 4.515625 -0.859375 C 4.210938 -0.484375 3.90625 -0.226562 3.59375 -0.09375 C 3.28125 0.0390625 2.878906 0.109375 2.390625 0.109375 C 1.773438 0.109375 1.289062 -0.0703125 0.9375 -0.4375 C 0.59375 -0.800781 0.421875 -1.3125 0.421875 -1.96875 C 0.421875 -2.65625 0.660156 -3.164062 1.140625 -3.5 C 1.617188 -3.84375 2.3125 -4.035156 3.21875 -4.078125 L 4.296875 -4.109375 L 4.296875 -4.203125 C 4.296875 -4.734375 4.035156 -5 3.515625 -5 C 3.046875 -5 2.445312 -4.84375 1.71875 -4.53125 L 1.078125 -6 C 1.828125 -6.382812 2.773438 -6.578125 3.921875 -6.578125 C 4.753906 -6.578125 5.394531 -6.367188 5.84375 -5.953125 C 6.300781 -5.546875 6.53125 -4.972656 6.53125 -4.234375 L 6.53125 0 Z M 3.328125 -1.46875 C 3.597656 -1.46875 3.828125 -1.550781 4.015625 -1.71875 C 4.210938 -1.882812 4.3125 -2.109375 4.3125 -2.390625 L 4.3125 -2.890625 L 3.796875 -2.859375 C 3.066406 -2.835938 2.703125 -2.566406 2.703125 -2.046875 C 2.703125 -1.660156 2.910156 -1.46875 3.328125 -1.46875 Z M 3.328125 -1.46875 "/></g></g><g transform="translate(90.385824, 26.874875)"><g><path d="M 6.875 -6.46875 L 6.875 -5.390625 L 5.984375 -5.0625 C 6.109375 -4.84375 6.171875 -4.585938 6.171875 -4.296875 C 6.171875 -3.597656 5.925781 -3.054688 5.4375 -2.671875 C 4.945312 -2.285156 4.21875 -2.09375 3.25 -2.09375 C 3.007812 -2.09375 2.816406 -2.109375 2.671875 -2.140625 C 2.617188 -2.035156 2.59375 -1.941406 2.59375 -1.859375 C 2.59375 -1.742188 2.679688 -1.65625 2.859375 -1.59375 C 3.046875 -1.539062 3.28125 -1.515625 3.5625 -1.515625 L 4.640625 -1.515625 C 6.085938 -1.515625 6.8125 -0.90625 6.8125 0.3125 C 6.8125 1.101562 6.472656 1.71875 5.796875 2.15625 C 5.128906 2.59375 4.191406 2.8125 2.984375 2.8125 C 2.066406 2.8125 1.359375 2.65625 0.859375 2.34375 C 0.359375 2.039062 0.109375 1.601562 0.109375 1.03125 C 0.109375 0.257812 0.585938 -0.238281 1.546875 -0.46875 C 1.347656 -0.550781 1.175781 -0.6875 1.03125 -0.875 C 0.882812 -1.0625 0.8125 -1.242188 0.8125 -1.421875 C 0.8125 -1.628906 0.863281 -1.804688 0.96875 -1.953125 C 1.082031 -2.109375 1.316406 -2.296875 1.671875 -2.515625 C 1.335938 -2.660156 1.070312 -2.890625 0.875 -3.203125 C 0.6875 -3.523438 0.59375 -3.910156 0.59375 -4.359375 C 0.59375 -5.066406 0.832031 -5.613281 1.3125 -6 C 1.789062 -6.382812 2.472656 -6.578125 3.359375 -6.578125 C 3.484375 -6.578125 3.6875 -6.5625 3.96875 -6.53125 C 4.257812 -6.507812 4.472656 -6.488281 4.609375 -6.46875 Z M 2 0.796875 C 2 0.984375 2.097656 1.132812 2.296875 1.25 C 2.492188 1.363281 2.757812 1.421875 3.09375 1.421875 C 3.625 1.421875 4.050781 1.351562 4.375 1.21875 C 4.707031 1.082031 4.875 0.90625 4.875 0.6875 C 4.875 0.519531 4.773438 0.398438 4.578125 0.328125 C 4.378906 0.253906 4.09375 0.21875 3.71875 0.21875 L 2.859375 0.21875 C 2.617188 0.21875 2.414062 0.273438 2.25 0.390625 C 2.082031 0.503906 2 0.640625 2 0.796875 Z M 2.703125 -4.34375 C 2.703125 -3.6875 2.929688 -3.359375 3.390625 -3.359375 C 3.597656 -3.359375 3.757812 -3.4375 3.875 -3.59375 C 4 -3.757812 4.0625 -4.007812 4.0625 -4.34375 C 4.0625 -5.007812 3.835938 -5.34375 3.390625 -5.34375 C 2.929688 -5.34375 2.703125 -5.007812 2.703125 -4.34375 Z M 2.703125 -4.34375 "/></g></g><g transform="translate(97.466751, 26.874875)"><g><path d="M 3.890625 0.109375 C 2.816406 0.109375 1.976562 -0.175781 1.375 -0.75 C 0.78125 -1.320312 0.484375 -2.132812 0.484375 -3.1875 C 0.484375 -4.28125 0.757812 -5.117188 1.3125 -5.703125 C 1.863281 -6.285156 2.65625 -6.578125 3.6875 -6.578125 C 4.65625 -6.578125 5.40625 -6.320312 5.9375 -5.8125 C 6.46875 -5.3125 6.734375 -4.582031 6.734375 -3.625 L 6.734375 -2.625 L 2.75 -2.625 C 2.757812 -2.269531 2.890625 -1.988281 3.140625 -1.78125 C 3.390625 -1.570312 3.726562 -1.46875 4.15625 -1.46875 C 4.550781 -1.46875 4.910156 -1.503906 5.234375 -1.578125 C 5.566406 -1.648438 5.925781 -1.78125 6.3125 -1.96875 L 6.3125 -0.359375 C 5.957031 -0.179688 5.59375 -0.0625 5.21875 0 C 4.851562 0.0703125 4.410156 0.109375 3.890625 0.109375 Z M 3.765625 -5.0625 C 3.492188 -5.0625 3.269531 -4.976562 3.09375 -4.8125 C 2.925781 -4.644531 2.828125 -4.382812 2.796875 -4.03125 L 4.703125 -4.03125 C 4.703125 -4.34375 4.613281 -4.59375 4.4375 -4.78125 C 4.269531 -4.96875 4.046875 -5.0625 3.765625 -5.0625 Z M 3.765625 -5.0625 "/></g></g></g><g fill="#197cc7" fill-opacity="1"><g transform="translate(17.57, 114.771319)"><g><path d="M 0.90625 0 L 0.90625 -8.34375 L 3.15625 -8.34375 L 3.15625 -1.828125 L 6.375 -1.828125 L 6.375 0 Z M 0.90625 0 "/></g></g><g transform="translate(24.371342, 114.771319)"><g><path d="M 6.9375 -3.25 C 6.9375 -2.1875 6.648438 -1.359375 6.078125 -0.765625 C 5.515625 -0.179688 4.722656 0.109375 3.703125 0.109375 C 2.722656 0.109375 1.941406 -0.191406 1.359375 -0.796875 C 0.773438 -1.398438 0.484375 -2.21875 0.484375 -3.25 C 0.484375 -4.300781 0.769531 -5.117188 1.34375 -5.703125 C 1.914062 -6.285156 2.710938 -6.578125 3.734375 -6.578125 C 4.367188 -6.578125 4.929688 -6.441406 5.421875 -6.171875 C 5.910156 -5.898438 6.285156 -5.507812 6.546875 -5 C 6.804688 -4.5 6.9375 -3.914062 6.9375 -3.25 Z M 2.75 -3.25 C 2.75 -2.6875 2.820312 -2.257812 2.96875 -1.96875 C 3.125 -1.6875 3.375 -1.546875 3.71875 -1.546875 C 4.070312 -1.546875 4.316406 -1.6875 4.453125 -1.96875 C 4.597656 -2.257812 4.671875 -2.6875 4.671875 -3.25 C 4.671875 -3.800781 4.597656 -4.21875 4.453125 -4.5 C 4.304688 -4.78125 4.0625 -4.921875 3.71875 -4.921875 C 3.375 -4.921875 3.125 -4.78125 2.96875 -4.5 C 2.820312 -4.21875 2.75 -3.800781 2.75 -3.25 Z M 2.75 -3.25 "/></g></g><g transform="translate(31.817442, 114.771319)"><g><path d="M 3.71875 0.109375 C 2.65625 0.109375 1.847656 -0.171875 1.296875 -0.734375 C 0.753906 -1.304688 0.484375 -2.128906 0.484375 -3.203125 C 0.484375 -4.273438 0.78125 -5.101562 1.375 -5.6875 C 1.96875 -6.28125 2.804688 -6.578125 3.890625 -6.578125 C 4.640625 -6.578125 5.347656 -6.414062 6.015625 -6.09375 L 5.359375 -4.4375 C 5.085938 -4.550781 4.835938 -4.644531 4.609375 -4.71875 C 4.378906 -4.789062 4.140625 -4.828125 3.890625 -4.828125 C 3.523438 -4.828125 3.242188 -4.6875 3.046875 -4.40625 C 2.847656 -4.125 2.75 -3.726562 2.75 -3.21875 C 2.75 -2.175781 3.132812 -1.65625 3.90625 -1.65625 C 4.5625 -1.65625 5.1875 -1.847656 5.78125 -2.234375 L 5.78125 -0.453125 C 5.207031 -0.078125 4.519531 0.109375 3.71875 0.109375 Z M 3.71875 0.109375 "/></g></g><g transform="translate(38.116672, 114.771319)"><g><path d="M 4.984375 0 L 4.5625 -0.859375 L 4.515625 -0.859375 C 4.210938 -0.484375 3.90625 -0.226562 3.59375 -0.09375 C 3.28125 0.0390625 2.878906 0.109375 2.390625 0.109375 C 1.773438 0.109375 1.289062 -0.0703125 0.9375 -0.4375 C 0.59375 -0.800781 0.421875 -1.3125 0.421875 -1.96875 C 0.421875 -2.65625 0.660156 -3.164062 1.140625 -3.5 C 1.617188 -3.84375 2.3125 -4.035156 3.21875 -4.078125 L 4.296875 -4.109375 L 4.296875 -4.203125 C 4.296875 -4.734375 4.035156 -5 3.515625 -5 C 3.046875 -5 2.445312 -4.84375 1.71875 -4.53125 L 1.078125 -6 C 1.828125 -6.382812 2.773438 -6.578125 3.921875 -6.578125 C 4.753906 -6.578125 5.394531 -6.367188 5.84375 -5.953125 C 6.300781 -5.546875 6.53125 -4.972656 6.53125 -4.234375 L 6.53125 0 Z M 3.328125 -1.46875 C 3.597656 -1.46875 3.828125 -1.550781 4.015625 -1.71875 C 4.210938 -1.882812 4.3125 -2.109375 4.3125 -2.390625 L 4.3125 -2.890625 L 3.796875 -2.859375 C 3.066406 -2.835938 2.703125 -2.566406 2.703125 -2.046875 C 2.703125 -1.660156 2.910156 -1.46875 3.328125 -1.46875 Z M 3.328125 -1.46875 "/></g></g><g transform="translate(45.397304, 114.771319)"><g><path d="M 3 0 L 0.765625 0 L 0.765625 -8.875 L 3 -8.875 Z M 3 0 "/></g></g><g transform="translate(49.174559, 114.771319)"><g/></g><g transform="translate(52.210057, 114.771319)"><g><path d="M 6.359375 -2.53125 C 6.359375 -2.007812 6.222656 -1.546875 5.953125 -1.140625 C 5.691406 -0.742188 5.316406 -0.4375 4.828125 -0.21875 C 4.335938 0 3.757812 0.109375 3.09375 0.109375 C 2.53125 0.109375 2.0625 0.0703125 1.6875 0 C 1.3125 -0.0820312 0.921875 -0.21875 0.515625 -0.40625 L 0.515625 -2.421875 C 0.941406 -2.203125 1.382812 -2.03125 1.84375 -1.90625 C 2.3125 -1.78125 2.742188 -1.71875 3.140625 -1.71875 C 3.472656 -1.71875 3.71875 -1.773438 3.875 -1.890625 C 4.03125 -2.003906 4.109375 -2.15625 4.109375 -2.34375 C 4.109375 -2.457031 4.078125 -2.554688 4.015625 -2.640625 C 3.953125 -2.722656 3.847656 -2.804688 3.703125 -2.890625 C 3.566406 -2.984375 3.195312 -3.164062 2.59375 -3.4375 C 2.050781 -3.6875 1.644531 -3.925781 1.375 -4.15625 C 1.101562 -4.382812 0.898438 -4.648438 0.765625 -4.953125 C 0.640625 -5.253906 0.578125 -5.609375 0.578125 -6.015625 C 0.578125 -6.785156 0.851562 -7.382812 1.40625 -7.8125 C 1.96875 -8.25 2.738281 -8.46875 3.71875 -8.46875 C 4.582031 -8.46875 5.460938 -8.265625 6.359375 -7.859375 L 5.671875 -6.125 C 4.890625 -6.476562 4.210938 -6.65625 3.640625 -6.65625 C 3.347656 -6.65625 3.132812 -6.601562 3 -6.5 C 2.875 -6.40625 2.8125 -6.28125 2.8125 -6.125 C 2.8125 -5.957031 2.894531 -5.804688 3.0625 -5.671875 C 3.226562 -5.546875 3.6875 -5.3125 4.4375 -4.96875 C 5.15625 -4.644531 5.65625 -4.296875 5.9375 -3.921875 C 6.21875 -3.554688 6.359375 -3.09375 6.359375 -2.53125 Z M 6.359375 -2.53125 "/></g></g><g transform="translate(58.954341, 114.771319)"><g><path d="M 3.9375 -1.65625 C 4.238281 -1.65625 4.597656 -1.726562 5.015625 -1.875 L 5.015625 -0.25 C 4.710938 -0.113281 4.425781 -0.0195312 4.15625 0.03125 C 3.882812 0.0820312 3.566406 0.109375 3.203125 0.109375 C 2.453125 0.109375 1.910156 -0.0703125 1.578125 -0.4375 C 1.242188 -0.800781 1.078125 -1.363281 1.078125 -2.125 L 1.078125 -4.796875 L 0.296875 -4.796875 L 0.296875 -5.703125 L 1.296875 -6.40625 L 1.875 -7.765625 L 3.328125 -7.765625 L 3.328125 -6.46875 L 4.921875 -6.46875 L 4.921875 -4.796875 L 3.328125 -4.796875 L 3.328125 -2.28125 C 3.328125 -1.863281 3.53125 -1.65625 3.9375 -1.65625 Z M 3.9375 -1.65625 "/></g></g><g transform="translate(64.329228, 114.771319)"><g><path d="M 6.9375 -3.25 C 6.9375 -2.1875 6.648438 -1.359375 6.078125 -0.765625 C 5.515625 -0.179688 4.722656 0.109375 3.703125 0.109375 C 2.722656 0.109375 1.941406 -0.191406 1.359375 -0.796875 C 0.773438 -1.398438 0.484375 -2.21875 0.484375 -3.25 C 0.484375 -4.300781 0.769531 -5.117188 1.34375 -5.703125 C 1.914062 -6.285156 2.710938 -6.578125 3.734375 -6.578125 C 4.367188 -6.578125 4.929688 -6.441406 5.421875 -6.171875 C 5.910156 -5.898438 6.285156 -5.507812 6.546875 -5 C 6.804688 -4.5 6.9375 -3.914062 6.9375 -3.25 Z M 2.75 -3.25 C 2.75 -2.6875 2.820312 -2.257812 2.96875 -1.96875 C 3.125 -1.6875 3.375 -1.546875 3.71875 -1.546875 C 4.070312 -1.546875 4.316406 -1.6875 4.453125 -1.96875 C 4.597656 -2.257812 4.671875 -2.6875 4.671875 -3.25 C 4.671875 -3.800781 4.597656 -4.21875 4.453125 -4.5 C 4.304688 -4.78125 4.0625 -4.921875 3.71875 -4.921875 C 3.375 -4.921875 3.125 -4.78125 2.96875 -4.5 C 2.820312 -4.21875 2.75 -3.800781 2.75 -3.25 Z M 2.75 -3.25 "/></g></g><g transform="translate(71.775328, 114.771319)"><g><path d="M 4.671875 -6.578125 C 4.867188 -6.578125 5.054688 -6.5625 5.234375 -6.53125 L 5.359375 -6.515625 L 5.15625 -4.40625 C 4.96875 -4.445312 4.710938 -4.46875 4.390625 -4.46875 C 3.898438 -4.46875 3.546875 -4.359375 3.328125 -4.140625 C 3.109375 -3.921875 3 -3.597656 3 -3.171875 L 3 0 L 0.765625 0 L 0.765625 -6.46875 L 2.4375 -6.46875 L 2.78125 -5.4375 L 2.890625 -5.4375 C 3.078125 -5.78125 3.335938 -6.054688 3.671875 -6.265625 C 4.003906 -6.472656 4.335938 -6.578125 4.671875 -6.578125 Z M 4.671875 -6.578125 "/></g></g><g transform="translate(77.258625, 114.771319)"><g><path d="M 4.984375 0 L 4.5625 -0.859375 L 4.515625 -0.859375 C 4.210938 -0.484375 3.90625 -0.226562 3.59375 -0.09375 C 3.28125 0.0390625 2.878906 0.109375 2.390625 0.109375 C 1.773438 0.109375 1.289062 -0.0703125 0.9375 -0.4375 C 0.59375 -0.800781 0.421875 -1.3125 0.421875 -1.96875 C 0.421875 -2.65625 0.660156 -3.164062 1.140625 -3.5 C 1.617188 -3.84375 2.3125 -4.035156 3.21875 -4.078125 L 4.296875 -4.109375 L 4.296875 -4.203125 C 4.296875 -4.734375 4.035156 -5 3.515625 -5 C 3.046875 -5 2.445312 -4.84375 1.71875 -4.53125 L 1.078125 -6 C 1.828125 -6.382812 2.773438 -6.578125 3.921875 -6.578125 C 4.753906 -6.578125 5.394531 -6.367188 5.84375 -5.953125 C 6.300781 -5.546875 6.53125 -4.972656 6.53125 -4.234375 L 6.53125 0 Z M 3.328125 -1.46875 C 3.597656 -1.46875 3.828125 -1.550781 4.015625 -1.71875 C 4.210938 -1.882812 4.3125 -2.109375 4.3125 -2.390625 L 4.3125 -2.890625 L 3.796875 -2.859375 C 3.066406 -2.835938 2.703125 -2.566406 2.703125 -2.046875 C 2.703125 -1.660156 2.910156 -1.46875 3.328125 -1.46875 Z M 3.328125 -1.46875 "/></g></g><g transform="translate(84.539256, 114.771319)"><g><path d="M 6.875 -6.46875 L 6.875 -5.390625 L 5.984375 -5.0625 C 6.109375 -4.84375 6.171875 -4.585938 6.171875 -4.296875 C 6.171875 -3.597656 5.925781 -3.054688 5.4375 -2.671875 C 4.945312 -2.285156 4.21875 -2.09375 3.25 -2.09375 C 3.007812 -2.09375 2.816406 -2.109375 2.671875 -2.140625 C 2.617188 -2.035156 2.59375 -1.941406 2.59375 -1.859375 C 2.59375 -1.742188 2.679688 -1.65625 2.859375 -1.59375 C 3.046875 -1.539062 3.28125 -1.515625 3.5625 -1.515625 L 4.640625 -1.515625 C 6.085938 -1.515625 6.8125 -0.90625 6.8125 0.3125 C 6.8125 1.101562 6.472656 1.71875 5.796875 2.15625 C 5.128906 2.59375 4.191406 2.8125 2.984375 2.8125 C 2.066406 2.8125 1.359375 2.65625 0.859375 2.34375 C 0.359375 2.039062 0.109375 1.601562 0.109375 1.03125 C 0.109375 0.257812 0.585938 -0.238281 1.546875 -0.46875 C 1.347656 -0.550781 1.175781 -0.6875 1.03125 -0.875 C 0.882812 -1.0625 0.8125 -1.242188 0.8125 -1.421875 C 0.8125 -1.628906 0.863281 -1.804688 0.96875 -1.953125 C 1.082031 -2.109375 1.316406 -2.296875 1.671875 -2.515625 C 1.335938 -2.660156 1.070312 -2.890625 0.875 -3.203125 C 0.6875 -3.523438 0.59375 -3.910156 0.59375 -4.359375 C 0.59375 -5.066406 0.832031 -5.613281 1.3125 -6 C 1.789062 -6.382812 2.472656 -6.578125 3.359375 -6.578125 C 3.484375 -6.578125 3.6875 -6.5625 3.96875 -6.53125 C 4.257812 -6.507812 4.472656 -6.488281 4.609375 -6.46875 Z M 2 0.796875 C 2 0.984375 2.097656 1.132812 2.296875 1.25 C 2.492188 1.363281 2.757812 1.421875 3.09375 1.421875 C 3.625 1.421875 4.050781 1.351562 4.375 1.21875 C 4.707031 1.082031 4.875 0.90625 4.875 0.6875 C 4.875 0.519531 4.773438 0.398438 4.578125 0.328125 C 4.378906 0.253906 4.09375 0.21875 3.71875 0.21875 L 2.859375 0.21875 C 2.617188 0.21875 2.414062 0.273438 2.25 0.390625 C 2.082031 0.503906 2 0.640625 2 0.796875 Z M 2.703125 -4.34375 C 2.703125 -3.6875 2.929688 -3.359375 3.390625 -3.359375 C 3.597656 -3.359375 3.757812 -3.4375 3.875 -3.59375 C 4 -3.757812 4.0625 -4.007812 4.0625 -4.34375 C 4.0625 -5.007812 3.835938 -5.34375 3.390625 -5.34375 C 2.929688 -5.34375 2.703125 -5.007812 2.703125 -4.34375 Z M 2.703125 -4.34375 "/></g></g><g transform="translate(91.620183, 114.771319)"><g><path d="M 3.890625 0.109375 C 2.816406 0.109375 1.976562 -0.175781 1.375 -0.75 C 0.78125 -1.320312 0.484375 -2.132812 0.484375 -3.1875 C 0.484375 -4.28125 0.757812 -5.117188 1.3125 -5.703125 C 1.863281 -6.285156 2.65625 -6.578125 3.6875 -6.578125 C 4.65625 -6.578125 5.40625 -6.320312 5.9375 -5.8125 C 6.46875 -5.3125 6.734375 -4.582031 6.734375 -3.625 L 6.734375 -2.625 L 2.75 -2.625 C 2.757812 -2.269531 2.890625 -1.988281 3.140625 -1.78125 C 3.390625 -1.570312 3.726562 -1.46875 4.15625 -1.46875 C 4.550781 -1.46875 4.910156 -1.503906 5.234375 -1.578125 C 5.566406 -1.648438 5.925781 -1.78125 6.3125 -1.96875 L 6.3125 -0.359375 C 5.957031 -0.179688 5.59375 -0.0625 5.21875 0 C 4.851562 0.0703125 4.410156 0.109375 3.890625 0.109375 Z M 3.765625 -5.0625 C 3.492188 -5.0625 3.269531 -4.976562 3.09375 -4.8125 C 2.925781 -4.644531 2.828125 -4.382812 2.796875 -4.03125 L 4.703125 -4.03125 C 4.703125 -4.34375 4.613281 -4.59375 4.4375 -4.78125 C 4.269531 -4.96875 4.046875 -5.0625 3.765625 -5.0625 Z M 3.765625 -5.0625 "/></g></g></g></svg>