<svg xmlns="http://www.w3.org/2000/svg" xmlns:xlink="http://www.w3.org/1999/xlink" width="150" zoomAndPan="magnify" viewBox="0 0 112.5 112.499997" height="150" preserveAspectRatio="xMidYMid meet" version="1.0"><defs><filter x="0%" y="0%" width="100%" height="100%" id="id1"><feColorMatrix values="0 0 0 0 1 0 0 0 0 1 0 0 0 0 1 0 0 0 1 0" color-interpolation-filters="sRGB"/></filter><clipPath id="id2"><path d="M 0 0 L 112.003906 0 L 112.003906 112.003906 L 0 112.003906 Z M 0 0 " clip-rule="nonzero"/></clipPath><mask id="id3"><g filter="url(#id1)"><rect x="-11.25" width="135" fill="#000000" y="-11.25" height="134.999996" fill-opacity="0.8"/></g></mask><clipPath id="id4"><path d="M 33 100 L 78 100 L 78 112.003906 L 33 112.003906 Z M 33 100 " clip-rule="nonzero"/></clipPath><clipPath id="id5"><path d="M 69 71 L 112.003906 71 L 112.003906 83 L 69 83 Z M 69 71 " clip-rule="nonzero"/></clipPath><clipPath id="id6"><rect x="0" width="113" y="0" height="113"/></clipPath><clipPath id="id7"><path d="M 33.75 51 L 49 51 L 49 55 L 33.75 55 Z M 33.75 51 " clip-rule="nonzero"/></clipPath><clipPath id="id8"><path d="M 44 34.3125 L 78.75 34.3125 L 78.75 78.5625 L 44 78.5625 Z M 44 34.3125 " clip-rule="nonzero"/></clipPath></defs><g clip-path="url(#id2)"><g mask="url(#id3)"><g transform="matrix(1, 0, 0, 1, 0, -0.000000000000000624)"><g clip-path="url(#id6)"><path fill="#f5f2f2" d="M 6.824219 20.132812 C 17.265625 17.824219 27.871094 14.992188 38.210938 12.296875 L 48.640625 9.546875 L 48.941406 9.464844 L 48.859375 9.164062 C 48.851562 9.125 48.828125 9.0625 48.769531 9.007812 C 48.710938 8.949219 48.625 8.917969 48.5625 8.914062 C 48.496094 8.90625 48.457031 8.921875 48.472656 8.917969 L 48.464844 8.921875 L 48.421875 8.929688 L 48.339844 8.953125 L 48.179688 8.992188 C 48.179688 8.992188 47.851562 9.078125 47.851562 9.078125 C 42.320312 10.5 35.753906 12.199219 30.222656 13.644531 C 22.742188 15.632812 15.109375 17.5625 7.75 19.84375 C 7.4375 19.929688 7.128906 20.015625 6.816406 20.105469 Z M 48.625 9.523438 C 48.640625 9.519531 48.625 9.53125 48.589844 9.535156 C 48.601562 9.53125 48.617188 9.523438 48.617188 9.523438 Z M 48.625 9.523438 " fill-opacity="1" fill-rule="nonzero"/><path fill="#f5f2f2" d="M 36.59375 16.824219 C 47.035156 14.519531 57.632812 11.6875 67.980469 8.992188 L 78.40625 6.242188 L 78.710938 6.164062 L 78.628906 5.859375 C 78.621094 5.820312 78.597656 5.757812 78.535156 5.699219 C 78.476562 5.640625 78.386719 5.609375 78.324219 5.601562 C 78.25 5.597656 78.21875 5.613281 78.226562 5.613281 L 78.21875 5.617188 L 78.179688 5.625 L 78.097656 5.648438 L 77.933594 5.6875 L 77.609375 5.773438 C 72.085938 7.195312 65.519531 8.894531 59.992188 10.335938 C 52.511719 12.324219 44.882812 14.253906 37.523438 16.535156 C 37.210938 16.621094 36.902344 16.707031 36.589844 16.796875 L 36.59375 16.824219 C 36.59375 16.828125 36.59375 16.824219 36.59375 16.824219 Z M 78.398438 6.214844 C 78.414062 6.210938 78.394531 6.222656 78.347656 6.230469 C 78.355469 6.230469 78.386719 6.222656 78.386719 6.222656 Z M 78.398438 6.214844 " fill-opacity="1" fill-rule="nonzero"/><path fill="#f5f2f2" d="M 0.015625 29.003906 C 0.015625 29.003906 0.0195312 29.003906 0.015625 29.003906 C 10.453125 26.695312 21.054688 23.871094 31.398438 21.171875 L 41.828125 18.425781 L 42.128906 18.34375 L 42.046875 18.039062 C 42.039062 18 42.015625 17.9375 41.953125 17.878906 C 41.894531 17.820312 41.804688 17.789062 41.742188 17.785156 C 41.667969 17.777344 41.636719 17.792969 41.648438 17.792969 L 41.636719 17.796875 L 41.597656 17.804688 L 41.515625 17.828125 L 41.355469 17.871094 C 41.355469 17.871094 41.03125 17.957031 41.03125 17.957031 C 35.503906 19.375 28.9375 21.074219 23.414062 22.515625 C 15.929688 24.503906 8.296875 26.4375 0.9375 28.714844 C 0.625 28.800781 0.316406 28.886719 0.00390625 28.976562 Z M 41.824219 18.398438 C 41.835938 18.390625 41.816406 18.402344 41.773438 18.410156 C 41.777344 18.410156 41.808594 18.402344 41.808594 18.402344 Z M 41.824219 18.398438 " fill-opacity="1" fill-rule="nonzero"/><path fill="#f5f2f2" d="M 30.089844 23.769531 L 30.097656 23.796875 C 40.535156 21.492188 51.136719 18.664062 61.484375 15.96875 L 71.910156 13.21875 L 72.214844 13.136719 L 72.132812 12.835938 C 72.121094 12.792969 72.101562 12.730469 72.039062 12.671875 C 71.980469 12.613281 71.890625 12.582031 71.824219 12.578125 C 71.753906 12.574219 71.722656 12.585938 71.730469 12.585938 L 71.722656 12.589844 L 71.683594 12.601562 L 71.601562 12.621094 L 71.4375 12.664062 L 71.113281 12.75 C 65.589844 14.167969 59.019531 15.867188 53.496094 17.308594 C 46.015625 19.296875 38.386719 21.226562 31.027344 23.507812 C 30.710938 23.597656 30.398438 23.683594 30.089844 23.769531 Z M 71.902344 13.191406 C 71.914062 13.1875 71.898438 13.195312 71.851562 13.203125 C 71.855469 13.203125 71.890625 13.195312 71.890625 13.195312 Z M 71.902344 13.191406 " fill-opacity="1" fill-rule="nonzero"/><path fill="#f5f2f2" d="M 12.277344 35.039062 C 22.71875 32.730469 33.316406 29.90625 43.664062 27.210938 L 54.089844 24.460938 L 54.394531 24.378906 L 54.3125 24.078125 C 54.304688 24.035156 54.28125 23.972656 54.222656 23.917969 C 54.164062 23.859375 54.078125 23.828125 54.015625 23.824219 C 53.945312 23.820312 53.910156 23.832031 53.925781 23.828125 L 53.914062 23.832031 L 53.875 23.84375 L 53.792969 23.863281 L 53.632812 23.90625 C 53.632812 23.90625 53.304688 23.992188 53.304688 23.992188 C 47.777344 25.410156 41.207031 27.109375 35.675781 28.554688 C 28.195312 30.542969 20.566406 32.46875 13.207031 34.75 C 12.894531 34.835938 12.585938 34.921875 12.273438 35.011719 Z M 54.074219 24.433594 C 54.085938 24.429688 54.074219 24.4375 54.039062 24.441406 C 54.050781 24.4375 54.0625 24.433594 54.0625 24.433594 Z M 54.074219 24.433594 " fill-opacity="1" fill-rule="nonzero"/><path fill="#f5f2f2" d="M 83.34375 13.117188 L 83.261719 13.140625 L 83.097656 13.179688 L 82.773438 13.265625 C 77.25 14.6875 70.683594 16.386719 65.15625 17.828125 C 57.675781 19.816406 50.046875 21.746094 42.6875 24.027344 C 42.375 24.113281 42.066406 24.199219 41.753906 24.289062 L 41.765625 24.316406 C 52.203125 22.011719 62.804688 19.179688 73.148438 16.484375 L 83.578125 13.734375 L 83.878906 13.65625 L 83.796875 13.351562 C 83.789062 13.3125 83.765625 13.25 83.703125 13.191406 C 83.644531 13.132812 83.554688 13.101562 83.492188 13.09375 C 83.417969 13.089844 83.386719 13.105469 83.398438 13.105469 L 83.386719 13.109375 Z M 83.558594 13.703125 C 83.570312 13.699219 83.554688 13.707031 83.507812 13.71875 L 83.546875 13.707031 Z M 83.558594 13.703125 " fill-opacity="1" fill-rule="nonzero"/><path fill="#f5f2f2" d="M 47.179688 11.191406 L 47.1875 11.21875 C 57.625 8.917969 68.222656 6.085938 78.570312 3.390625 L 88.996094 0.640625 L 89.300781 0.558594 L 89.21875 0.257812 C 89.210938 0.214844 89.1875 0.152344 89.128906 0.0976562 C 89.070312 0.0390625 88.984375 0.0078125 88.921875 0.00390625 C 88.851562 0 88.816406 0.0117188 88.832031 0.0078125 L 88.820312 0.0117188 L 88.78125 0.0234375 L 88.699219 0.046875 L 88.539062 0.0859375 L 88.210938 0.171875 C 82.683594 1.589844 76.113281 3.289062 70.582031 4.734375 C 63.101562 6.722656 55.472656 8.652344 48.113281 10.933594 C 47.796875 11.023438 47.484375 11.109375 47.179688 11.191406 Z M 88.984375 0.613281 C 88.996094 0.609375 88.984375 0.617188 88.949219 0.621094 C 88.960938 0.617188 88.976562 0.613281 88.976562 0.613281 Z M 88.984375 0.613281 " fill-opacity="1" fill-rule="nonzero"/><path fill="#f5f2f2" d="M 38.703125 6.019531 L 38.625 6.035156 L 38.472656 6.078125 C 38.472656 6.078125 38.171875 6.152344 38.171875 6.152344 C 33.03125 7.472656 26.917969 9.054688 21.777344 10.398438 C 14.816406 12.25 7.722656 14.046875 0.875 16.164062 C 0.585938 16.246094 0.296875 16.328125 0.0078125 16.410156 L 0.015625 16.429688 C 9.726562 14.285156 19.585938 11.652344 29.207031 9.148438 L 38.90625 6.589844 L 39.183594 6.519531 L 39.113281 6.238281 C 39.101562 6.203125 39.082031 6.144531 39.027344 6.089844 C 38.972656 6.035156 38.890625 6.003906 38.832031 6.003906 C 38.765625 6 38.742188 6.011719 38.75 6.007812 L 38.742188 6.011719 Z M 38.894531 6.566406 C 38.910156 6.5625 38.894531 6.574219 38.863281 6.578125 C 38.875 6.574219 38.886719 6.574219 38.886719 6.574219 Z M 38.894531 6.566406 " fill-opacity="1" fill-rule="nonzero"/><path fill="#f5f2f2" d="M 77.875 36.164062 C 85.632812 34.449219 93.507812 32.34375 101.195312 30.34375 L 108.9375 28.300781 L 109.160156 28.242188 L 109.101562 28.019531 C 109.089844 27.988281 109.074219 27.945312 109.03125 27.902344 C 108.992188 27.859375 108.925781 27.835938 108.878906 27.835938 C 108.824219 27.835938 108.808594 27.839844 108.8125 27.839844 L 108.804688 27.839844 L 108.773438 27.851562 L 108.714844 27.863281 L 108.589844 27.894531 L 108.347656 27.957031 C 104.242188 29.011719 99.363281 30.273438 95.253906 31.347656 C 89.695312 32.828125 84.027344 34.261719 78.5625 35.949219 C 78.332031 36.015625 78.101562 36.078125 77.871094 36.144531 Z M 108.925781 28.28125 C 108.933594 28.277344 108.925781 28.28125 108.898438 28.289062 L 108.914062 28.28125 Z M 108.925781 28.28125 " fill-opacity="1" fill-rule="nonzero"/><path fill="#f5f2f2" d="M 2.601562 82.128906 C 10.359375 80.417969 18.234375 78.316406 25.921875 76.308594 L 33.664062 74.269531 L 33.890625 74.210938 L 33.832031 73.988281 C 33.820312 73.957031 33.804688 73.910156 33.761719 73.871094 C 33.71875 73.828125 33.652344 73.804688 33.605469 73.804688 C 33.550781 73.804688 33.527344 73.8125 33.539062 73.808594 L 33.527344 73.808594 L 33.496094 73.816406 L 33.4375 73.832031 L 33.074219 73.925781 C 28.96875 74.980469 24.09375 76.242188 19.984375 77.316406 C 14.425781 78.792969 8.761719 80.226562 3.292969 81.921875 C 3.0625 81.984375 2.832031 82.054688 2.601562 82.117188 Z M 33.660156 74.25 C 33.667969 74.246094 33.660156 74.253906 33.625 74.257812 C 33.628906 74.257812 33.652344 74.25 33.652344 74.25 Z M 33.660156 74.25 " fill-opacity="1" fill-rule="nonzero"/><path fill="#f5f2f2" d="M 31.636719 92.996094 L 41.464844 90.402344 L 41.75 90.324219 L 41.671875 90.042969 C 41.664062 90 41.640625 89.945312 41.589844 89.894531 C 41.535156 89.839844 41.453125 89.808594 41.394531 89.800781 C 41.328125 89.796875 41.300781 89.8125 41.308594 89.808594 L 41.300781 89.8125 L 41.257812 89.820312 L 41.183594 89.839844 L 41.03125 89.878906 L 40.722656 89.960938 C 35.515625 91.300781 29.320312 92.898438 24.105469 94.265625 C 17.050781 96.140625 9.859375 97.960938 2.917969 100.109375 C 2.625 100.1875 2.332031 100.269531 2.039062 100.355469 L 2.042969 100.382812 C 11.886719 98.207031 21.882812 95.535156 31.636719 92.996094 Z M 41.453125 90.378906 C 41.464844 90.375 41.453125 90.382812 41.417969 90.386719 C 41.429688 90.382812 41.445312 90.382812 41.445312 90.382812 Z M 41.453125 90.378906 " fill-opacity="1" fill-rule="nonzero"/><path fill="#f5f2f2" d="M 26.355469 98.308594 C 37.082031 95.941406 47.96875 93.035156 58.597656 90.261719 L 69.308594 87.4375 L 69.613281 87.355469 L 69.535156 87.046875 C 69.523438 87.007812 69.496094 86.945312 69.441406 86.886719 C 69.382812 86.828125 69.289062 86.792969 69.226562 86.792969 C 69.15625 86.785156 69.125 86.800781 69.132812 86.796875 L 69.125 86.800781 L 69.082031 86.808594 L 69 86.832031 L 68.832031 86.875 C 68.832031 86.875 68.5 86.960938 68.5 86.960938 C 62.820312 88.421875 56.070312 90.167969 50.394531 91.652344 C 42.710938 93.691406 34.871094 95.675781 27.3125 98.019531 C 26.992188 98.109375 26.671875 98.195312 26.355469 98.285156 Z M 69.289062 87.414062 C 69.304688 87.410156 69.289062 87.417969 69.253906 87.421875 C 69.269531 87.417969 69.28125 87.414062 69.28125 87.414062 Z M 69.289062 87.414062 " fill-opacity="1" fill-rule="nonzero"/><path fill="#f5f2f2" d="M 106.167969 81.28125 C 106.109375 81.222656 106.015625 81.1875 105.953125 81.1875 C 105.882812 81.183594 105.851562 81.195312 105.859375 81.195312 L 105.851562 81.203125 L 105.808594 81.210938 L 105.722656 81.234375 L 105.558594 81.277344 L 105.222656 81.363281 C 99.550781 82.820312 92.800781 84.5625 87.125 86.050781 C 79.4375 88.09375 71.601562 90.078125 64.042969 92.417969 C 63.722656 92.507812 63.402344 92.59375 63.085938 92.683594 L 63.097656 92.710938 C 73.820312 90.34375 84.710938 87.4375 95.335938 84.664062 L 106.046875 81.835938 L 106.359375 81.757812 L 106.277344 81.449219 C 106.253906 81.402344 106.230469 81.339844 106.167969 81.28125 Z M 105.984375 81.820312 C 105.988281 81.820312 106.019531 81.808594 106.019531 81.808594 L 106.03125 81.804688 C 106.046875 81.800781 106.03125 81.816406 105.984375 81.820312 Z M 105.984375 81.820312 " fill-opacity="1" fill-rule="nonzero"/><path fill="#f5f2f2" d="M 19.03125 106.292969 C 29.757812 103.925781 40.644531 101.019531 51.273438 98.246094 L 61.984375 95.417969 L 62.292969 95.339844 L 62.214844 95.03125 C 62.203125 94.992188 62.175781 94.929688 62.117188 94.863281 C 62.058594 94.804688 61.964844 94.769531 61.902344 94.769531 C 61.832031 94.765625 61.800781 94.78125 61.808594 94.78125 L 61.800781 94.785156 L 61.757812 94.792969 L 61.671875 94.816406 L 61.507812 94.859375 C 61.507812 94.859375 61.171875 94.945312 61.171875 94.945312 C 55.5 96.402344 48.75 98.148438 43.074219 99.632812 C 35.386719 101.675781 27.550781 103.660156 19.992188 106 C 19.671875 106.089844 19.351562 106.175781 19.035156 106.265625 Z M 61.96875 95.398438 C 61.984375 95.390625 61.964844 95.402344 61.921875 95.410156 C 61.925781 95.410156 61.957031 95.402344 61.957031 95.402344 Z M 61.96875 95.398438 " fill-opacity="1" fill-rule="nonzero"/><path fill="#f5f2f2" d="M 94.191406 89.445312 L 94.109375 89.46875 L 93.941406 89.515625 L 93.609375 89.601562 C 87.933594 91.054688 81.1875 92.800781 75.507812 94.289062 C 67.820312 96.324219 59.984375 98.308594 52.425781 100.648438 C 52.105469 100.738281 51.785156 100.824219 51.472656 100.914062 L 51.480469 100.941406 C 62.203125 98.574219 73.089844 95.667969 83.722656 92.894531 L 94.433594 90.070312 L 94.742188 89.988281 L 94.660156 89.679688 C 94.652344 89.640625 94.625 89.578125 94.566406 89.515625 C 94.507812 89.457031 94.414062 89.417969 94.351562 89.417969 C 94.277344 89.414062 94.246094 89.429688 94.257812 89.429688 L 94.246094 89.433594 Z M 94.417969 90.046875 C 94.433594 90.042969 94.414062 90.050781 94.367188 90.058594 C 94.375 90.058594 94.40625 90.050781 94.40625 90.050781 Z M 94.417969 90.046875 " fill-opacity="1" fill-rule="nonzero"/><g clip-path="url(#id4)"><path fill="#f5f2f2" d="M 77.042969 101.074219 C 76.984375 101.015625 76.894531 100.976562 76.832031 100.976562 C 76.761719 100.972656 76.730469 100.988281 76.738281 100.980469 L 76.730469 100.988281 L 76.6875 100.996094 L 76.601562 101.019531 L 76.4375 101.0625 C 76.4375 101.0625 76.101562 101.148438 76.101562 101.148438 C 70.425781 102.609375 63.675781 104.355469 58 105.835938 C 50.3125 107.878906 42.476562 109.863281 34.914062 112.207031 C 34.597656 112.296875 34.277344 112.382812 33.960938 112.472656 L 33.96875 112.5 C 44.695312 110.132812 55.585938 107.226562 66.210938 104.453125 L 76.921875 101.625 L 77.226562 101.546875 L 77.148438 101.238281 C 77.128906 101.195312 77.101562 101.132812 77.042969 101.074219 Z M 76.859375 101.609375 C 76.871094 101.605469 76.886719 101.601562 76.886719 101.601562 L 76.894531 101.59375 C 76.914062 101.59375 76.898438 101.605469 76.859375 101.609375 Z M 76.859375 101.609375 " fill-opacity="1" fill-rule="nonzero"/></g><path fill="#f5f2f2" d="M 103.632812 90.546875 C 103.574219 90.488281 103.480469 90.453125 103.417969 90.453125 C 103.347656 90.445312 103.316406 90.460938 103.324219 90.460938 L 103.316406 90.464844 L 103.273438 90.472656 L 103.1875 90.496094 L 103.023438 90.542969 L 102.6875 90.628906 C 97.015625 92.082031 90.265625 93.828125 84.589844 95.316406 C 76.90625 97.359375 69.066406 99.339844 61.507812 101.679688 C 61.1875 101.769531 60.867188 101.855469 60.550781 101.945312 L 60.5625 101.972656 C 71.285156 99.605469 82.175781 96.699219 92.800781 93.925781 L 103.511719 91.101562 L 103.824219 91.019531 L 103.742188 90.714844 C 103.714844 90.667969 103.691406 90.605469 103.632812 90.546875 Z M 103.445312 91.085938 C 103.449219 91.085938 103.480469 91.078125 103.480469 91.078125 L 103.492188 91.074219 C 103.507812 91.070312 103.492188 91.078125 103.445312 91.085938 Z M 103.445312 91.085938 " fill-opacity="1" fill-rule="nonzero"/><g clip-path="url(#id5)"><path fill="#f5f2f2" d="M 112.308594 71.261719 C 112.25 71.203125 112.160156 71.167969 112.097656 71.167969 C 112.027344 71.164062 111.996094 71.175781 112.003906 71.171875 L 111.996094 71.175781 L 111.953125 71.183594 L 111.871094 71.207031 L 111.703125 71.253906 L 111.371094 71.339844 C 105.691406 72.796875 98.941406 74.542969 93.265625 76.027344 C 85.582031 78.070312 77.742188 80.050781 70.183594 82.394531 C 69.863281 82.484375 69.542969 82.570312 69.226562 82.660156 L 69.238281 82.6875 C 79.960938 80.324219 90.851562 77.414062 101.476562 74.640625 L 112.1875 71.816406 L 112.496094 71.734375 L 112.414062 71.429688 C 112.394531 71.382812 112.367188 71.320312 112.308594 71.261719 Z M 112.125 71.796875 C 112.140625 71.792969 112.152344 71.789062 112.152344 71.789062 L 112.160156 71.785156 C 112.179688 71.785156 112.160156 71.792969 112.125 71.796875 Z M 112.125 71.796875 " fill-opacity="1" fill-rule="nonzero"/></g></g></g></g></g><g clip-path="url(#id7)"><path fill="#f5f2f2" d="M 48.964844 53.289062 C 48.964844 52.480469 48.3125 51.828125 47.515625 51.828125 L 35.199219 51.828125 C 34.402344 51.828125 33.75 52.480469 33.75 53.289062 C 33.75 54.089844 34.402344 54.746094 35.199219 54.746094 L 47.515625 54.746094 C 48.3125 54.746094 48.964844 54.089844 48.964844 53.289062 " fill-opacity="1" fill-rule="nonzero"/></g><path fill="#f5f2f2" d="M 48.964844 67.140625 C 48.964844 66.332031 48.3125 65.679688 47.515625 65.679688 L 38.828125 65.679688 C 38.03125 65.679688 37.378906 66.332031 37.378906 67.140625 C 37.378906 67.945312 38.03125 68.597656 38.828125 68.597656 L 47.515625 68.597656 C 48.3125 68.597656 48.964844 67.945312 48.964844 67.140625 " fill-opacity="1" fill-rule="nonzero"/><path fill="#f5f2f2" d="M 47.515625 58.761719 L 41.835938 58.761719 C 41.035156 58.761719 40.386719 59.417969 40.386719 60.222656 C 40.386719 61.027344 41.035156 61.683594 41.835938 61.683594 L 47.515625 61.683594 C 48.253906 61.683594 48.867188 61.121094 48.953125 60.398438 L 48.953125 60.230469 C 48.953125 59.839844 48.804688 59.472656 48.535156 59.195312 C 48.261719 58.917969 47.898438 58.765625 47.515625 58.761719 " fill-opacity="1" fill-rule="nonzero"/><g clip-path="url(#id8)"><path fill="#f5f2f2" d="M 74.726562 46.972656 C 74.726562 46.972656 77.402344 43.625 77.480469 43.410156 C 77.835938 42.519531 77.601562 41.617188 76.976562 41.035156 C 76.277344 40.386719 75.253906 40.320312 74.484375 40.804688 C 74.332031 40.902344 71.234375 43.410156 71.234375 43.410156 C 68.527344 41.273438 65.296875 39.910156 61.890625 39.460938 L 61.46875 39.410156 L 61.867188 37.304688 C 63.285156 37.0625 64.363281 35.820312 64.363281 34.324219 L 54.136719 34.324219 C 54.136719 35.933594 55.382812 37.246094 56.957031 37.339844 L 57.347656 39.390625 L 56.929688 39.441406 C 52.53125 40.027344 48.539062 42.066406 45.503906 45.25 C 44.777344 46.019531 44.730469 47.222656 45.40625 48.039062 C 46.195312 48.984375 47.625 49.046875 48.472656 48.15625 C 51.152344 45.359375 54.84375 43.644531 58.746094 43.472656 C 67.078125 43.101562 74.167969 49.660156 74.527344 58.074219 C 74.703125 62.148438 73.292969 66.054688 70.558594 69.058594 C 67.824219 72.0625 64.09375 73.816406 60.050781 73.992188 C 56.890625 74.128906 53.828125 73.285156 51.222656 71.59375 C 50.882812 71.367188 50.488281 71.261719 50.09375 71.261719 C 49.648438 71.261719 49.199219 71.402344 48.820312 71.675781 C 47.632812 72.535156 47.613281 74.324219 48.796875 75.199219 C 49.253906 75.539062 49.679688 75.835938 50.023438 76.027344 C 52.945312 77.675781 56.257812 78.527344 59.707031 78.476562 C 64.851562 78.390625 69.660156 76.292969 73.246094 72.566406 C 76.824219 68.839844 78.75 63.925781 78.675781 58.738281 C 78.683594 54.496094 77.285156 50.328125 74.726562 46.972656 " fill-opacity="1" fill-rule="nonzero"/></g><path fill="#f5f2f2" d="M 61.464844 61.539062 C 61.636719 61.40625 61.796875 61.261719 61.941406 61.101562 C 62.015625 61.023438 62.078125 60.945312 62.136719 60.863281 L 62.488281 60.296875 L 67.1875 52.71875 C 67.285156 52.570312 67.347656 52.402344 67.375 52.238281 C 67.488281 51.746094 67.34375 51.21875 66.96875 50.851562 C 66.757812 50.636719 66.496094 50.5 66.222656 50.445312 C 65.839844 50.375 65.4375 50.445312 65.09375 50.675781 L 57.90625 55.546875 C 57.570312 55.703125 57.265625 55.914062 56.996094 56.167969 L 56.984375 56.175781 C 56.425781 56.699219 56.035156 57.421875 55.917969 58.25 C 55.648438 60.167969 56.980469 61.949219 58.886719 62.214844 C 59.804688 62.347656 60.722656 62.109375 61.464844 61.539062 " fill-opacity="1" fill-rule="nonzero"/></svg>