<svg xmlns="http://www.w3.org/2000/svg" xmlns:xlink="http://www.w3.org/1999/xlink" width="150" zoomAndPan="magnify" viewBox="0 0 112.5 112.499997" height="150" preserveAspectRatio="xMidYMid meet" version="1.0"><defs><clipPath id="id1"><path d="M 43 21 L 67 21 L 67 51.75 L 43 51.75 Z M 43 21 " clip-rule="nonzero"/></clipPath><clipPath id="id2"><path d="M 29.183594 0 L 80.933594 0 L 80.933594 36 L 29.183594 36 Z M 29.183594 0 " clip-rule="nonzero"/></clipPath><clipPath id="id3"><path d="M 54 73 L 80.933594 73 L 80.933594 96 L 54 96 Z M 54 73 " clip-rule="nonzero"/></clipPath><clipPath id="id4"><path d="M 29.183594 73 L 56 73 L 56 96 L 29.183594 96 Z M 29.183594 73 " clip-rule="nonzero"/></clipPath><clipPath id="id5"><path d="M 32 60.699219 L 78 60.699219 L 78 88 L 32 88 Z M 32 60.699219 " clip-rule="nonzero"/></clipPath><clipPath id="id6"><path d="M 32 82 L 78 82 L 78 112.003906 L 32 112.003906 Z M 32 82 " clip-rule="nonzero"/></clipPath></defs><g clip-path="url(#id1)"><path fill="#f5f2f2" d="M 44.3125 41.507812 L 54.203125 51.398438 C 54.230469 51.425781 54.257812 51.453125 54.289062 51.476562 C 54.296875 51.484375 54.304688 51.488281 54.3125 51.496094 C 54.335938 51.511719 54.359375 51.53125 54.382812 51.546875 C 54.390625 51.554688 54.398438 51.558594 54.40625 51.5625 C 54.433594 51.578125 54.457031 51.59375 54.484375 51.609375 C 54.492188 51.613281 54.496094 51.613281 54.5 51.617188 C 54.53125 51.632812 54.5625 51.648438 54.589844 51.660156 C 54.597656 51.660156 54.601562 51.664062 54.605469 51.664062 C 54.636719 51.675781 54.667969 51.6875 54.703125 51.699219 C 54.707031 51.699219 54.714844 51.703125 54.71875 51.703125 C 54.75 51.710938 54.78125 51.722656 54.816406 51.726562 C 54.828125 51.730469 54.84375 51.730469 54.859375 51.734375 C 54.882812 51.738281 54.90625 51.742188 54.933594 51.746094 C 54.972656 51.75 55.011719 51.75 55.050781 51.75 C 55.09375 51.75 55.132812 51.75 55.171875 51.746094 C 55.195312 51.742188 55.21875 51.738281 55.238281 51.734375 C 55.253906 51.734375 55.273438 51.730469 55.289062 51.726562 C 55.320312 51.722656 55.347656 51.714844 55.378906 51.707031 C 55.386719 51.703125 55.394531 51.703125 55.402344 51.699219 C 55.433594 51.691406 55.464844 51.679688 55.492188 51.667969 C 55.5 51.664062 55.507812 51.660156 55.515625 51.660156 C 55.542969 51.648438 55.566406 51.632812 55.59375 51.621094 C 55.601562 51.617188 55.613281 51.613281 55.621094 51.609375 C 55.644531 51.597656 55.664062 51.582031 55.6875 51.566406 C 55.699219 51.5625 55.710938 51.554688 55.722656 51.546875 C 55.738281 51.535156 55.757812 51.523438 55.773438 51.507812 C 55.789062 51.496094 55.800781 51.488281 55.816406 51.476562 C 55.828125 51.464844 55.84375 51.453125 55.855469 51.441406 C 55.871094 51.425781 55.886719 51.414062 55.902344 51.398438 L 65.792969 41.507812 C 66.261719 41.039062 66.261719 40.277344 65.792969 39.808594 C 65.558594 39.574219 65.25 39.457031 64.941406 39.457031 C 64.636719 39.457031 64.328125 39.574219 64.09375 39.808594 L 56.253906 47.644531 L 56.253906 22.816406 C 56.253906 22.152344 55.714844 21.613281 55.050781 21.613281 C 54.386719 21.613281 53.851562 22.152344 53.851562 22.816406 L 53.851562 47.644531 L 46.011719 39.808594 C 45.542969 39.339844 44.78125 39.339844 44.3125 39.808594 C 43.84375 40.277344 43.84375 41.039062 44.3125 41.507812 Z M 44.3125 41.507812 " fill-opacity="1" fill-rule="nonzero"/></g><g clip-path="url(#id2)"><path fill="#f5f2f2" d="M 69.546875 13.335938 L 69.542969 13.335938 C 68.933594 5.878906 62.667969 0 55.050781 0 C 47.4375 0 41.171875 5.878906 40.558594 13.335938 C 34.3125 13.335938 29.234375 18.402344 29.234375 24.625 C 29.234375 30.851562 34.3125 35.914062 40.558594 35.914062 L 51.265625 35.914062 L 51.265625 35.910156 C 51.898438 35.878906 52.40625 35.355469 52.40625 34.710938 C 52.40625 34.066406 51.898438 33.542969 51.265625 33.511719 L 51.265625 33.507812 L 40.558594 33.507812 C 35.640625 33.507812 31.636719 29.523438 31.636719 24.625 C 31.636719 19.726562 35.640625 15.742188 40.558594 15.742188 L 41.710938 15.742188 C 42.375 15.742188 42.914062 15.203125 42.914062 14.539062 C 42.914062 7.847656 48.359375 2.402344 55.050781 2.402344 C 61.746094 2.402344 67.1875 7.847656 67.1875 14.539062 C 67.1875 15.203125 67.726562 15.742188 68.390625 15.742188 L 69.546875 15.742188 C 74.464844 15.742188 78.46875 19.726562 78.46875 24.625 C 78.46875 29.523438 74.464844 33.507812 69.546875 33.507812 L 58.839844 33.507812 L 58.839844 33.511719 C 58.832031 33.511719 58.824219 33.507812 58.816406 33.507812 C 58.152344 33.507812 57.613281 34.046875 57.613281 34.710938 C 57.613281 35.375 58.152344 35.914062 58.816406 35.914062 C 58.824219 35.914062 58.832031 35.914062 58.839844 35.914062 L 69.546875 35.914062 C 75.792969 35.914062 80.871094 30.851562 80.871094 24.625 C 80.871094 18.402344 75.792969 13.335938 69.546875 13.335938 Z M 69.546875 13.335938 " fill-opacity="1" fill-rule="nonzero"/></g><path fill="#197cc7" d="M 55.058594 86.574219 L 76.550781 74.203125 L 79.988281 81.414062 L 60.214844 94.308594 Z M 55.058594 86.574219 " fill-opacity="1" fill-rule="nonzero"/><g clip-path="url(#id3)"><path fill="#f5f2f2" d="M 60.21875 95.167969 C 59.9375 95.167969 59.667969 95.035156 59.5 94.785156 L 54.34375 87.050781 C 54.210938 86.851562 54.167969 86.609375 54.222656 86.378906 C 54.273438 86.144531 54.421875 85.949219 54.628906 85.828125 L 76.121094 73.460938 C 76.328125 73.339844 76.578125 73.3125 76.804688 73.382812 C 77.035156 73.457031 77.222656 73.617188 77.324219 73.835938 L 80.761719 81.046875 C 80.949219 81.433594 80.816406 81.898438 80.457031 82.136719 L 60.6875 95.03125 C 60.542969 95.125 60.378906 95.167969 60.21875 95.167969 Z M 56.285156 86.859375 L 60.460938 93.125 L 78.886719 81.105469 L 76.171875 75.414062 Z M 56.285156 86.859375 " fill-opacity="1" fill-rule="nonzero"/></g><path fill="#197cc7" d="M 55.058594 86.574219 L 33.566406 74.203125 L 30.128906 81.414062 L 49.902344 94.308594 Z M 55.058594 86.574219 " fill-opacity="1" fill-rule="nonzero"/><g clip-path="url(#id4)"><path fill="#f5f2f2" d="M 49.898438 95.167969 C 49.738281 95.167969 49.574219 95.125 49.429688 95.03125 L 29.660156 82.136719 C 29.296875 81.898438 29.167969 81.433594 29.355469 81.046875 L 32.792969 73.835938 C 32.894531 73.617188 33.082031 73.457031 33.3125 73.382812 C 33.539062 73.3125 33.789062 73.339844 33.996094 73.460938 L 55.488281 85.828125 C 55.691406 85.949219 55.839844 86.144531 55.894531 86.378906 C 55.949219 86.609375 55.90625 86.851562 55.773438 87.050781 L 50.617188 94.785156 C 50.449219 95.035156 50.175781 95.167969 49.898438 95.167969 Z M 31.226562 81.105469 L 49.65625 93.125 L 53.832031 86.859375 L 33.941406 75.414062 Z M 31.226562 81.105469 " fill-opacity="1" fill-rule="nonzero"/></g><path fill="#222222" d="M 55.167969 61.644531 L 33.566406 74.011719 L 33.566406 74.203125 L 55.058594 86.574219 L 76.550781 74.203125 Z M 55.167969 61.644531 " fill-opacity="1" fill-rule="nonzero"/><g clip-path="url(#id5)"><path fill="#f5f2f2" d="M 55.058594 87.433594 C 54.910156 87.433594 54.761719 87.394531 54.628906 87.320312 L 33.136719 74.949219 C 32.871094 74.796875 32.707031 74.511719 32.707031 74.203125 L 32.707031 74.011719 C 32.707031 73.703125 32.871094 73.417969 33.140625 73.265625 L 54.742188 60.898438 C 55.007812 60.746094 55.335938 60.746094 55.605469 60.902344 L 76.984375 73.464844 C 77.25 73.621094 77.410156 73.902344 77.410156 74.210938 C 77.40625 74.515625 77.242188 74.796875 76.976562 74.949219 L 55.488281 87.320312 C 55.355469 87.394531 55.207031 87.433594 55.058594 87.433594 Z M 35.125 74.109375 L 55.058594 85.582031 L 74.839844 74.199219 L 55.164062 62.636719 Z M 35.125 74.109375 " fill-opacity="1" fill-rule="nonzero"/></g><path fill="#197cc7" d="M 60.214844 94.308594 L 55.058594 86.574219 L 49.902344 94.308594 L 33.566406 83.660156 L 33.566406 98.941406 L 54.949219 111.503906 L 76.550781 99.132812 L 76.550781 83.660156 Z M 60.214844 94.308594 " fill-opacity="1" fill-rule="nonzero"/><g clip-path="url(#id6)"><path fill="#f5f2f2" d="M 54.949219 112.363281 C 54.796875 112.363281 54.644531 112.324219 54.511719 112.242188 L 33.132812 99.683594 C 32.867188 99.527344 32.707031 99.246094 32.707031 98.941406 L 32.707031 83.65625 C 32.707031 83.34375 32.878906 83.050781 33.15625 82.902344 C 33.433594 82.75 33.773438 82.765625 34.035156 82.9375 L 49.65625 93.125 L 54.34375 86.097656 C 54.660156 85.617188 55.453125 85.617188 55.773438 86.097656 L 60.457031 93.125 L 76.078125 82.9375 C 76.34375 82.765625 76.679688 82.75 76.957031 82.902344 C 77.234375 83.050781 77.410156 83.34375 77.410156 83.65625 L 77.410156 99.132812 C 77.410156 99.441406 77.242188 99.726562 76.976562 99.878906 L 55.375 112.25 C 55.242188 112.324219 55.09375 112.363281 54.949219 112.363281 Z M 34.425781 98.449219 L 54.953125 110.507812 L 75.691406 98.636719 L 75.691406 85.246094 L 60.6875 95.03125 C 60.292969 95.285156 59.761719 95.179688 59.5 94.785156 L 55.058594 88.125 L 50.617188 94.785156 C 50.355469 95.179688 49.824219 95.285156 49.429688 95.03125 L 34.425781 85.246094 Z M 34.425781 98.449219 " fill-opacity="1" fill-rule="nonzero"/></g><path fill="#f5f2f2" d="M 54.199219 86.574219 L 55.917969 86.574219 L 55.917969 94.308594 L 54.199219 94.308594 Z M 54.199219 86.574219 " fill-opacity="1" fill-rule="nonzero"/><path fill="#f5f2f2" d="M 54.199219 96.027344 L 55.917969 96.027344 L 55.917969 97.746094 L 54.199219 97.746094 Z M 54.199219 96.027344 " fill-opacity="1" fill-rule="nonzero"/><path fill="#f5f2f2" d="M 54.199219 99.46875 L 55.917969 99.46875 L 55.917969 111.503906 L 54.199219 111.503906 Z M 54.199219 99.46875 " fill-opacity="1" fill-rule="nonzero"/><path fill="#f5f2f2" d="M 55.917969 78.835938 L 54.199219 78.835938 L 54.199219 77.117188 C 54.199219 76.640625 54.582031 76.257812 55.058594 76.257812 C 56.972656 76.257812 58.496094 74.734375 58.496094 72.863281 C 58.496094 70.90625 56.972656 69.378906 55.101562 69.378906 C 53.144531 69.378906 51.621094 70.902344 51.621094 72.777344 L 49.902344 72.820312 L 49.902344 72.777344 C 49.902344 69.957031 52.195312 67.660156 55.015625 67.660156 C 57.921875 67.660156 60.214844 69.957031 60.214844 72.777344 C 60.214844 75.394531 58.351562 77.519531 55.917969 77.910156 Z M 55.917969 78.835938 " fill-opacity="1" fill-rule="nonzero"/><path fill="#f5f2f2" d="M 54.199219 80.554688 L 55.917969 80.554688 L 55.917969 82.273438 L 54.199219 82.273438 Z M 54.199219 80.554688 " fill-opacity="1" fill-rule="nonzero"/></svg>