<svg xmlns="http://www.w3.org/2000/svg" xmlns:xlink="http://www.w3.org/1999/xlink" width="150" zoomAndPan="magnify" viewBox="0 0 112.5 112.499997" height="150" preserveAspectRatio="xMidYMid meet" version="1.0"><defs><clipPath id="id1"><path d="M 0 0 L 112.003906 0 L 112.003906 112.003906 L 0 112.003906 Z M 0 0 " clip-rule="nonzero"/></clipPath></defs><g clip-path="url(#id1)"><path fill="#000000" d="M 53.589844 58.910156 C 52.125 59.605469 50.484375 60 48.75 60 C 38.769531 60 21.230469 60 11.25 60 C 5.035156 60 0 54.964844 0 48.75 C 0 38.769531 0 21.230469 0 11.25 C 0 5.035156 5.035156 0 11.25 0 C 21.230469 0 38.769531 0 48.75 0 C 54.964844 0 60 5.035156 60 11.25 L 60 48.75 C 60 50.484375 59.605469 52.125 58.910156 53.589844 C 60.375 52.894531 62.015625 52.5 63.75 52.5 C 73.730469 52.5 91.269531 52.5 101.25 52.5 C 107.464844 52.5 112.5 57.535156 112.5 63.75 L 112.5 101.25 C 112.5 107.464844 107.464844 112.5 101.25 112.5 C 91.269531 112.5 73.730469 112.5 63.75 112.5 C 57.535156 112.5 52.5 107.464844 52.5 101.25 C 52.5 91.269531 52.5 73.730469 52.5 63.75 C 52.5 62.015625 52.894531 60.375 53.589844 58.910156 Z M 105 63.75 C 105 61.679688 103.320312 60 101.25 60 C 91.269531 60 73.730469 60 63.75 60 C 61.679688 60 60 61.679688 60 63.75 C 60 73.730469 60 91.269531 60 101.25 C 60 103.320312 61.679688 105 63.75 105 C 73.730469 105 91.269531 105 101.25 105 C 103.320312 105 105 103.320312 105 101.25 Z M 26.25 78.75 L 26.25 71.25 C 26.25 69.179688 27.929688 67.5 30 67.5 C 32.070312 67.5 33.75 69.179688 33.75 71.25 L 33.75 78.75 L 41.25 78.75 C 43.320312 78.75 45 80.429688 45 82.5 C 45 84.570312 43.320312 86.25 41.25 86.25 L 33.75 86.25 L 33.75 93.75 C 33.75 95.820312 32.070312 97.5 30 97.5 C 27.929688 97.5 26.25 95.820312 26.25 93.75 L 26.25 86.25 L 18.75 86.25 C 16.679688 86.25 15 84.570312 15 82.5 C 15 80.429688 16.679688 78.75 18.75 78.75 Z M 93.75 78.75 L 71.25 78.75 C 69.179688 78.75 67.5 80.429688 67.5 82.5 C 67.5 84.570312 69.179688 86.25 71.25 86.25 L 93.75 86.25 C 95.820312 86.25 97.5 84.570312 97.5 82.5 C 97.5 80.429688 95.820312 78.75 93.75 78.75 Z M 52.5 11.25 C 52.5 9.179688 50.820312 7.5 48.75 7.5 C 38.769531 7.5 21.230469 7.5 11.25 7.5 C 9.179688 7.5 7.5 9.179688 7.5 11.25 C 7.5 21.230469 7.5 38.769531 7.5 48.75 C 7.5 50.820312 9.179688 52.5 11.25 52.5 C 21.230469 52.5 38.769531 52.5 48.75 52.5 C 50.820312 52.5 52.5 50.820312 52.5 48.75 Z M 30 24.699219 L 35.300781 19.394531 C 36.765625 17.929688 39.140625 17.929688 40.605469 19.394531 C 42.070312 20.859375 42.070312 23.234375 40.605469 24.699219 L 35.300781 30 L 40.605469 35.300781 C 42.070312 36.765625 42.070312 39.140625 40.605469 40.605469 C 39.140625 42.070312 36.765625 42.070312 35.300781 40.605469 L 30 35.300781 L 24.699219 40.605469 C 23.234375 42.070312 20.859375 42.070312 19.394531 40.605469 C 17.929688 39.140625 17.929688 36.765625 19.394531 35.300781 L 24.699219 30 L 19.394531 24.699219 C 17.929688 23.234375 17.929688 20.859375 19.394531 19.394531 C 20.859375 17.929688 23.234375 17.929688 24.699219 19.394531 Z M 71.25 33.75 L 93.75 33.75 C 95.820312 33.75 97.5 32.070312 97.5 30 C 97.5 27.929688 95.820312 26.25 93.75 26.25 L 71.25 26.25 C 69.179688 26.25 67.5 27.929688 67.5 30 C 67.5 32.070312 69.179688 33.75 71.25 33.75 Z M 71.25 33.75 " fill-opacity="1" fill-rule="evenodd"/></g><path fill="#000000" d="M 86.25 18.75 C 86.25 19.246094 86.15625 19.722656 85.964844 20.183594 C 85.773438 20.644531 85.503906 21.046875 85.152344 21.398438 C 84.800781 21.75 84.394531 22.023438 83.9375 22.210938 C 83.476562 22.402344 83 22.496094 82.503906 22.496094 C 82.003906 22.496094 81.527344 22.402344 81.070312 22.210938 C 80.609375 22.023438 80.203125 21.75 79.851562 21.398438 C 79.5 21.046875 79.230469 20.644531 79.039062 20.183594 C 78.851562 19.722656 78.753906 19.246094 78.753906 18.75 C 78.753906 18.253906 78.851562 17.773438 79.039062 17.316406 C 79.230469 16.855469 79.5 16.449219 79.851562 16.101562 C 80.203125 15.75 80.609375 15.476562 81.070312 15.289062 C 81.527344 15.097656 82.003906 15.003906 82.503906 15.003906 C 83 15.003906 83.476562 15.097656 83.9375 15.289062 C 84.394531 15.476562 84.800781 15.75 85.152344 16.101562 C 85.503906 16.449219 85.773438 16.855469 85.964844 17.316406 C 86.15625 17.773438 86.25 18.253906 86.25 18.75 Z M 86.25 18.75 " fill-opacity="1" fill-rule="nonzero"/><path fill="#000000" d="M 86.25 41.25 C 86.25 41.746094 86.15625 42.222656 85.964844 42.683594 C 85.773438 43.144531 85.503906 43.546875 85.152344 43.898438 C 84.800781 44.25 84.394531 44.523438 83.9375 44.710938 C 83.476562 44.902344 83 44.996094 82.503906 44.996094 C 82.003906 44.996094 81.527344 44.902344 81.070312 44.710938 C 80.609375 44.523438 80.203125 44.25 79.851562 43.898438 C 79.5 43.546875 79.230469 43.144531 79.039062 42.683594 C 78.851562 42.222656 78.753906 41.746094 78.753906 41.25 C 78.753906 40.753906 78.851562 40.273438 79.039062 39.816406 C 79.230469 39.355469 79.5 38.949219 79.851562 38.601562 C 80.203125 38.25 80.609375 37.976562 81.070312 37.789062 C 81.527344 37.597656 82.003906 37.503906 82.503906 37.503906 C 83 37.503906 83.476562 37.597656 83.9375 37.789062 C 84.394531 37.976562 84.800781 38.25 85.152344 38.601562 C 85.503906 38.949219 85.773438 39.355469 85.964844 39.816406 C 86.15625 40.273438 86.25 40.753906 86.25 41.25 Z M 86.25 41.25 " fill-opacity="1" fill-rule="nonzero"/></svg>