<svg xmlns="http://www.w3.org/2000/svg" xmlns:xlink="http://www.w3.org/1999/xlink" width="150" zoomAndPan="magnify" viewBox="0 0 112.5 112.499997" height="150" preserveAspectRatio="xMidYMid meet" version="1.0"><defs><clipPath id="id1"><path d="M 11.109375 0 L 101.109375 0 L 101.109375 112.003906 L 11.109375 112.003906 Z M 11.109375 0 " clip-rule="nonzero"/></clipPath></defs><g clip-path="url(#id1)"><path fill="#000000" d="M 73.367188 -0.0625 L 26.257812 -0.0625 C 17.964844 -0.0625 11.21875 6.703125 11.21875 15.019531 L 11.21875 97.347656 C 11.21875 105.664062 17.964844 112.433594 26.257812 112.433594 L 86.070312 112.433594 C 94.363281 112.433594 101.105469 105.664062 101.105469 97.347656 L 101.105469 31.039062 Z M 75.527344 14.117188 L 88.460938 28.617188 L 75.527344 28.617188 Z M 86.070312 104.59375 L 26.257812 104.59375 C 22.273438 104.59375 19.035156 101.34375 19.035156 97.347656 L 19.035156 15.019531 C 19.035156 11.027344 22.273438 7.777344 26.257812 7.777344 L 67.714844 7.777344 L 67.714844 36.457031 L 93.292969 36.457031 L 93.292969 97.347656 C 93.289062 101.34375 90.050781 104.59375 86.070312 104.59375 Z M 86.070312 104.59375 " fill-opacity="1" fill-rule="nonzero"/></g><path fill="#000000" d="M 47.730469 83.296875 L 84.132812 83.296875 L 84.132812 91.136719 L 47.730469 91.136719 Z M 47.730469 83.296875 " fill-opacity="1" fill-rule="nonzero"/><path fill="#000000" d="M 47.730469 64.570312 L 84.132812 64.570312 L 84.132812 72.410156 L 47.730469 72.410156 Z M 47.730469 64.570312 " fill-opacity="1" fill-rule="nonzero"/><path fill="#000000" d="M 47.730469 45.765625 L 84.132812 45.765625 L 84.132812 53.605469 L 47.730469 53.605469 Z M 47.730469 45.765625 " fill-opacity="1" fill-rule="nonzero"/><path fill="#000000" d="M 31.886719 49.738281 L 29.3125 47.253906 L 25.699219 51.019531 L 31.992188 57.09375 L 41.089844 47.789062 L 37.371094 44.128906 Z M 31.886719 49.738281 " fill-opacity="1" fill-rule="nonzero"/><path fill="#000000" d="M 31.886719 68.542969 L 29.3125 66.054688 L 25.699219 69.824219 L 31.992188 75.894531 L 41.089844 66.589844 L 37.371094 62.929688 Z M 31.886719 68.542969 " fill-opacity="1" fill-rule="nonzero"/><path fill="#000000" d="M 31.886719 87.269531 L 29.3125 84.78125 L 25.699219 88.550781 L 31.992188 94.621094 L 41.089844 85.316406 L 37.371094 81.65625 Z M 31.886719 87.269531 " fill-opacity="1" fill-rule="nonzero"/></svg>