<svg xmlns="http://www.w3.org/2000/svg" xmlns:xlink="http://www.w3.org/1999/xlink" width="150" zoomAndPan="magnify" viewBox="0 0 112.5 112.499997" height="150" preserveAspectRatio="xMidYMid meet" version="1.0"><defs><clipPath id="id1"><path d="M 0 16.3125 L 112.003906 16.3125 L 112.003906 65 L 0 65 Z M 0 16.3125 " clip-rule="nonzero"/></clipPath><clipPath id="id2"><path d="M 11 84 L 34 84 L 34 96.5625 L 11 96.5625 Z M 11 84 " clip-rule="nonzero"/></clipPath></defs><path fill="#231f20" d="M 0.859375 58.066406 C 0.859375 61.269531 3.449219 63.871094 6.636719 63.871094 L 105.835938 63.871094 C 109.023438 63.871094 111.613281 61.269531 111.613281 58.066406 L 111.613281 22.828125 C 111.613281 19.621094 109.023438 17.023438 105.835938 17.023438 L 6.636719 17.023438 C 3.449219 17.023438 0.859375 19.621094 0.859375 22.828125 L 0.859375 58.066406 " fill-opacity="1" fill-rule="nonzero"/><g clip-path="url(#id1)"><path fill="#231f20" d="M 0.859375 58.066406 L 0.15625 58.066406 C 0.15625 61.664062 3.058594 64.578125 6.636719 64.578125 L 105.835938 64.578125 C 109.414062 64.578125 112.316406 61.664062 112.316406 58.066406 L 112.316406 22.828125 C 112.316406 19.230469 109.414062 16.316406 105.835938 16.3125 L 6.636719 16.3125 C 3.058594 16.316406 0.15625 19.230469 0.15625 22.828125 L 0.15625 58.066406 L 1.566406 58.066406 L 1.566406 22.828125 C 1.566406 21.417969 2.132812 20.148438 3.050781 19.222656 C 3.972656 18.300781 5.234375 17.730469 6.636719 17.730469 L 105.835938 17.730469 C 107.238281 17.730469 108.5 18.300781 109.421875 19.222656 C 110.339844 20.148438 110.90625 21.417969 110.90625 22.828125 L 110.90625 58.066406 C 110.90625 59.472656 110.339844 60.742188 109.421875 61.667969 C 108.5 62.59375 107.238281 63.160156 105.835938 63.160156 L 6.636719 63.160156 C 5.234375 63.160156 3.972656 62.59375 3.050781 61.667969 C 2.132812 60.742188 1.566406 59.472656 1.566406 58.066406 L 0.859375 58.066406 " fill-opacity="1" fill-rule="nonzero"/></g><path fill="#d9d9d9" d="M 97.371094 30.890625 L 103.671875 30.890625 L 103.671875 24.5625 L 97.371094 24.5625 L 97.371094 30.890625 " fill-opacity="1" fill-rule="nonzero"/><path fill="#231f20" d="M 97.371094 30.890625 L 97.371094 31.597656 L 103.671875 31.597656 C 103.859375 31.597656 104.035156 31.527344 104.167969 31.390625 C 104.304688 31.257812 104.375 31.078125 104.375 30.890625 L 104.375 24.5625 C 104.375 24.378906 104.300781 24.195312 104.167969 24.0625 C 104.039062 23.929688 103.855469 23.855469 103.671875 23.855469 L 97.371094 23.855469 C 97.1875 23.855469 97.007812 23.929688 96.875 24.0625 C 96.742188 24.195312 96.667969 24.378906 96.667969 24.5625 L 96.667969 30.890625 C 96.667969 31.078125 96.742188 31.261719 96.875 31.390625 C 97.007812 31.523438 97.1875 31.597656 97.371094 31.597656 L 97.371094 30.890625 L 98.078125 30.890625 L 98.078125 25.273438 L 102.964844 25.273438 L 102.964844 30.183594 L 97.371094 30.183594 L 97.371094 30.890625 L 98.078125 30.890625 L 97.371094 30.890625 " fill-opacity="1" fill-rule="nonzero"/><path fill="#d9d9d9" d="M 89.210938 30.890625 L 95.507812 30.890625 L 95.507812 24.5625 L 89.210938 24.5625 L 89.210938 30.890625 " fill-opacity="1" fill-rule="nonzero"/><path fill="#231f20" d="M 89.210938 30.890625 L 89.210938 31.597656 L 95.507812 31.597656 C 95.695312 31.597656 95.875 31.527344 96.007812 31.390625 C 96.140625 31.257812 96.210938 31.078125 96.210938 30.890625 L 96.210938 24.5625 C 96.210938 24.378906 96.136719 24.195312 96.007812 24.0625 C 95.875 23.929688 95.695312 23.855469 95.507812 23.855469 L 89.210938 23.855469 C 89.023438 23.855469 88.84375 23.929688 88.710938 24.0625 C 88.582031 24.195312 88.507812 24.378906 88.507812 24.5625 L 88.507812 30.890625 C 88.507812 31.078125 88.582031 31.261719 88.710938 31.390625 C 88.84375 31.523438 89.023438 31.597656 89.210938 31.597656 L 89.210938 30.890625 L 89.917969 30.890625 L 89.917969 25.273438 L 94.804688 25.273438 L 94.804688 30.183594 L 89.210938 30.183594 L 89.210938 30.890625 L 89.917969 30.890625 L 89.210938 30.890625 " fill-opacity="1" fill-rule="nonzero"/><path fill="#d9d9d9" d="M 81.046875 30.890625 L 87.34375 30.890625 L 87.34375 24.5625 L 81.046875 24.5625 L 81.046875 30.890625 " fill-opacity="1" fill-rule="nonzero"/><path fill="#231f20" d="M 81.046875 30.890625 L 81.046875 31.597656 L 87.34375 31.597656 C 87.53125 31.597656 87.710938 31.527344 87.84375 31.390625 C 87.976562 31.257812 88.050781 31.078125 88.050781 30.890625 L 88.050781 24.5625 C 88.050781 24.378906 87.972656 24.195312 87.84375 24.0625 C 87.710938 23.929688 87.53125 23.855469 87.34375 23.855469 L 81.046875 23.855469 C 80.859375 23.855469 80.679688 23.929688 80.546875 24.0625 C 80.417969 24.195312 80.339844 24.378906 80.339844 24.5625 L 80.339844 30.890625 C 80.339844 31.078125 80.417969 31.261719 80.546875 31.390625 C 80.679688 31.523438 80.859375 31.597656 81.046875 31.597656 L 81.046875 30.890625 L 81.75 30.890625 L 81.75 25.273438 L 86.640625 25.273438 L 86.640625 30.183594 L 81.046875 30.183594 L 81.046875 30.890625 L 81.75 30.890625 L 81.046875 30.890625 " fill-opacity="1" fill-rule="nonzero"/><path fill="#d9d9d9" d="M 72.882812 30.890625 L 79.179688 30.890625 L 79.179688 24.5625 L 72.882812 24.5625 L 72.882812 30.890625 " fill-opacity="1" fill-rule="nonzero"/><path fill="#231f20" d="M 72.882812 30.890625 L 72.882812 31.597656 L 79.179688 31.597656 C 79.367188 31.597656 79.546875 31.527344 79.679688 31.390625 C 79.8125 31.257812 79.886719 31.078125 79.886719 30.890625 L 79.886719 24.5625 C 79.886719 24.378906 79.808594 24.195312 79.679688 24.0625 C 79.546875 23.929688 79.367188 23.855469 79.179688 23.855469 L 72.882812 23.855469 C 72.699219 23.855469 72.515625 23.929688 72.382812 24.0625 C 72.253906 24.195312 72.175781 24.378906 72.175781 24.5625 L 72.175781 30.890625 C 72.175781 31.078125 72.253906 31.261719 72.382812 31.390625 C 72.515625 31.523438 72.699219 31.597656 72.882812 31.597656 L 72.882812 30.890625 L 73.585938 30.890625 L 73.585938 25.273438 L 78.476562 25.273438 L 78.476562 30.183594 L 72.882812 30.183594 L 72.882812 30.890625 L 73.585938 30.890625 L 72.882812 30.890625 " fill-opacity="1" fill-rule="nonzero"/><path fill="#d9d9d9" d="M 64.71875 30.890625 L 71.015625 30.890625 L 71.015625 24.5625 L 64.71875 24.5625 L 64.71875 30.890625 " fill-opacity="1" fill-rule="nonzero"/><path fill="#231f20" d="M 64.71875 30.890625 L 64.71875 31.597656 L 71.015625 31.597656 C 71.203125 31.597656 71.382812 31.527344 71.515625 31.390625 C 71.648438 31.257812 71.722656 31.078125 71.722656 30.890625 L 71.722656 24.5625 C 71.722656 24.378906 71.644531 24.195312 71.515625 24.0625 C 71.382812 23.929688 71.203125 23.855469 71.015625 23.855469 L 64.71875 23.855469 C 64.53125 23.855469 64.351562 23.929688 64.21875 24.0625 C 64.089844 24.195312 64.011719 24.378906 64.011719 24.5625 L 64.011719 30.890625 C 64.011719 31.078125 64.089844 31.261719 64.21875 31.390625 C 64.351562 31.523438 64.53125 31.597656 64.71875 31.597656 L 64.71875 30.890625 L 65.421875 30.890625 L 65.421875 25.273438 L 70.3125 25.273438 L 70.3125 30.183594 L 64.71875 30.183594 L 64.71875 30.890625 L 65.421875 30.890625 L 64.71875 30.890625 " fill-opacity="1" fill-rule="nonzero"/><path fill="#d9d9d9" d="M 56.554688 30.890625 L 62.851562 30.890625 L 62.851562 24.5625 L 56.554688 24.5625 L 56.554688 30.890625 " fill-opacity="1" fill-rule="nonzero"/><path fill="#231f20" d="M 56.554688 30.890625 L 56.554688 31.597656 L 62.851562 31.597656 C 63.042969 31.597656 63.21875 31.527344 63.351562 31.390625 C 63.484375 31.257812 63.558594 31.078125 63.558594 30.890625 L 63.558594 24.5625 C 63.558594 24.378906 63.484375 24.195312 63.351562 24.0625 C 63.21875 23.929688 63.039062 23.855469 62.851562 23.855469 L 56.554688 23.855469 C 56.371094 23.855469 56.1875 23.929688 56.058594 24.0625 C 55.925781 24.195312 55.851562 24.378906 55.851562 24.5625 L 55.851562 30.890625 C 55.851562 31.078125 55.925781 31.261719 56.058594 31.390625 C 56.1875 31.523438 56.371094 31.597656 56.554688 31.597656 L 56.554688 30.890625 L 57.261719 30.890625 L 57.261719 25.273438 L 62.148438 25.273438 L 62.148438 30.183594 L 56.554688 30.183594 L 56.554688 30.890625 L 57.261719 30.890625 L 56.554688 30.890625 " fill-opacity="1" fill-rule="nonzero"/><path fill="#d9d9d9" d="M 48.390625 30.890625 L 54.6875 30.890625 L 54.6875 24.5625 L 48.390625 24.5625 L 48.390625 30.890625 " fill-opacity="1" fill-rule="nonzero"/><path fill="#231f20" d="M 48.390625 30.890625 L 48.390625 31.597656 L 54.6875 31.597656 C 54.875 31.597656 55.054688 31.527344 55.1875 31.390625 C 55.320312 31.257812 55.394531 31.078125 55.394531 30.890625 L 55.394531 24.5625 C 55.394531 24.378906 55.320312 24.195312 55.1875 24.0625 C 55.054688 23.929688 54.875 23.855469 54.6875 23.855469 L 48.390625 23.855469 C 48.207031 23.855469 48.023438 23.929688 47.894531 24.0625 C 47.761719 24.195312 47.6875 24.378906 47.6875 24.5625 L 47.6875 30.890625 C 47.6875 31.078125 47.761719 31.261719 47.894531 31.390625 C 48.023438 31.523438 48.207031 31.597656 48.390625 31.597656 L 48.390625 30.890625 L 49.097656 30.890625 L 49.097656 25.273438 L 53.984375 25.273438 L 53.984375 30.183594 L 48.390625 30.183594 L 48.390625 30.890625 L 49.097656 30.890625 L 48.390625 30.890625 " fill-opacity="1" fill-rule="nonzero"/><path fill="#d9d9d9" d="M 40.226562 30.890625 L 46.527344 30.890625 L 46.527344 24.5625 L 40.226562 24.5625 L 40.226562 30.890625 " fill-opacity="1" fill-rule="nonzero"/><path fill="#231f20" d="M 40.226562 30.890625 L 40.226562 31.597656 L 46.527344 31.597656 C 46.714844 31.597656 46.890625 31.527344 47.023438 31.390625 C 47.15625 31.257812 47.230469 31.078125 47.230469 30.890625 L 47.230469 24.5625 C 47.230469 24.378906 47.15625 24.195312 47.023438 24.0625 C 46.890625 23.929688 46.710938 23.855469 46.527344 23.855469 L 40.226562 23.855469 C 40.042969 23.855469 39.859375 23.929688 39.730469 24.0625 C 39.597656 24.195312 39.523438 24.378906 39.523438 24.5625 L 39.523438 30.890625 C 39.523438 31.078125 39.597656 31.261719 39.730469 31.390625 C 39.859375 31.523438 40.042969 31.597656 40.226562 31.597656 L 40.226562 30.890625 L 40.933594 30.890625 L 40.933594 25.273438 L 45.820312 25.273438 L 45.820312 30.183594 L 40.226562 30.183594 L 40.226562 30.890625 L 40.933594 30.890625 L 40.226562 30.890625 " fill-opacity="1" fill-rule="nonzero"/><path fill="#d9d9d9" d="M 32.0625 30.890625 L 38.363281 30.890625 L 38.363281 24.5625 L 32.0625 24.5625 L 32.0625 30.890625 " fill-opacity="1" fill-rule="nonzero"/><path fill="#231f20" d="M 32.0625 30.890625 L 32.0625 31.597656 L 38.363281 31.597656 C 38.550781 31.597656 38.726562 31.527344 38.859375 31.390625 C 38.992188 31.257812 39.066406 31.078125 39.066406 30.890625 L 39.066406 24.5625 C 39.066406 24.378906 38.992188 24.195312 38.859375 24.0625 C 38.730469 23.929688 38.546875 23.855469 38.363281 23.855469 L 32.0625 23.855469 C 31.878906 23.855469 31.699219 23.929688 31.566406 24.0625 C 31.433594 24.195312 31.359375 24.378906 31.359375 24.5625 L 31.359375 30.890625 C 31.359375 31.078125 31.433594 31.261719 31.566406 31.390625 C 31.699219 31.523438 31.878906 31.597656 32.0625 31.597656 L 32.0625 30.890625 L 32.769531 30.890625 L 32.769531 25.273438 L 37.65625 25.273438 L 37.65625 30.183594 L 32.0625 30.183594 L 32.0625 30.890625 L 32.769531 30.890625 L 32.0625 30.890625 " fill-opacity="1" fill-rule="nonzero"/><path fill="#d9d9d9" d="M 23.902344 30.890625 L 30.199219 30.890625 L 30.199219 24.5625 L 23.902344 24.5625 L 23.902344 30.890625 " fill-opacity="1" fill-rule="nonzero"/><path fill="#231f20" d="M 23.902344 30.890625 L 23.902344 31.597656 L 30.199219 31.597656 C 30.386719 31.597656 30.566406 31.527344 30.699219 31.390625 C 30.832031 31.257812 30.902344 31.078125 30.902344 30.890625 L 30.902344 24.5625 C 30.902344 24.378906 30.828125 24.195312 30.699219 24.0625 C 30.566406 23.929688 30.382812 23.855469 30.199219 23.855469 L 23.902344 23.855469 C 23.714844 23.855469 23.535156 23.929688 23.402344 24.0625 C 23.269531 24.195312 23.195312 24.378906 23.195312 24.5625 L 23.195312 30.890625 C 23.195312 31.078125 23.269531 31.261719 23.402344 31.390625 C 23.535156 31.523438 23.714844 31.597656 23.902344 31.597656 L 23.902344 30.890625 L 24.605469 30.890625 L 24.605469 25.273438 L 29.492188 25.273438 L 29.492188 30.183594 L 23.902344 30.183594 L 23.902344 30.890625 L 24.605469 30.890625 L 23.902344 30.890625 " fill-opacity="1" fill-rule="nonzero"/><path fill="#d9d9d9" d="M 97.371094 39.328125 L 103.671875 39.328125 L 103.671875 33 L 97.371094 33 L 97.371094 39.328125 " fill-opacity="1" fill-rule="nonzero"/><path fill="#231f20" d="M 97.371094 39.328125 L 97.371094 40.035156 L 103.671875 40.035156 C 103.859375 40.035156 104.035156 39.960938 104.167969 39.828125 C 104.304688 39.695312 104.375 39.515625 104.375 39.328125 L 104.375 33 C 104.375 32.8125 104.300781 32.632812 104.167969 32.5 C 104.039062 32.367188 103.855469 32.292969 103.671875 32.292969 L 97.371094 32.292969 C 97.1875 32.292969 97.007812 32.367188 96.875 32.5 C 96.742188 32.632812 96.667969 32.8125 96.667969 33 L 96.667969 39.328125 C 96.667969 39.515625 96.742188 39.695312 96.875 39.828125 C 97.007812 39.960938 97.1875 40.035156 97.371094 40.035156 L 97.371094 39.328125 L 98.078125 39.328125 L 98.078125 33.707031 L 102.964844 33.707031 L 102.964844 38.617188 L 97.371094 38.617188 L 97.371094 39.328125 L 98.078125 39.328125 L 97.371094 39.328125 " fill-opacity="1" fill-rule="nonzero"/><path fill="#d9d9d9" d="M 89.210938 39.328125 L 95.507812 39.328125 L 95.507812 33 L 89.210938 33 L 89.210938 39.328125 " fill-opacity="1" fill-rule="nonzero"/><path fill="#231f20" d="M 89.210938 39.328125 L 89.210938 40.035156 L 95.507812 40.035156 C 95.695312 40.035156 95.875 39.960938 96.007812 39.828125 C 96.140625 39.695312 96.210938 39.515625 96.210938 39.328125 L 96.210938 33 C 96.210938 32.8125 96.136719 32.632812 96.007812 32.5 C 95.875 32.367188 95.695312 32.292969 95.507812 32.292969 L 89.210938 32.292969 C 89.023438 32.292969 88.84375 32.367188 88.710938 32.5 C 88.582031 32.632812 88.507812 32.8125 88.507812 33 L 88.507812 39.328125 C 88.507812 39.515625 88.582031 39.695312 88.710938 39.828125 C 88.84375 39.960938 89.023438 40.035156 89.210938 40.035156 L 89.210938 39.328125 L 89.917969 39.328125 L 89.917969 33.707031 L 94.800781 33.707031 L 94.800781 38.617188 L 89.210938 38.617188 L 89.210938 39.328125 L 89.917969 39.328125 L 89.210938 39.328125 " fill-opacity="1" fill-rule="nonzero"/><path fill="#d9d9d9" d="M 81.046875 39.328125 L 87.34375 39.328125 L 87.34375 33 L 81.046875 33 L 81.046875 39.328125 " fill-opacity="1" fill-rule="nonzero"/><path fill="#231f20" d="M 81.046875 39.328125 L 81.046875 40.035156 L 87.34375 40.035156 C 87.53125 40.035156 87.710938 39.960938 87.84375 39.828125 C 87.976562 39.695312 88.050781 39.515625 88.050781 39.328125 L 88.050781 33 C 88.050781 32.8125 87.972656 32.632812 87.84375 32.5 C 87.710938 32.367188 87.53125 32.292969 87.34375 32.292969 L 81.046875 32.292969 C 80.859375 32.292969 80.679688 32.367188 80.546875 32.5 C 80.417969 32.632812 80.339844 32.8125 80.339844 33 L 80.339844 39.328125 C 80.339844 39.515625 80.417969 39.695312 80.546875 39.828125 C 80.679688 39.960938 80.859375 40.035156 81.046875 40.035156 L 81.046875 39.328125 L 81.75 39.328125 L 81.75 33.707031 L 86.640625 33.707031 L 86.640625 38.617188 L 81.046875 38.617188 L 81.046875 39.328125 L 81.75 39.328125 L 81.046875 39.328125 " fill-opacity="1" fill-rule="nonzero"/><path fill="#d9d9d9" d="M 72.882812 39.328125 L 79.179688 39.328125 L 79.179688 33 L 72.882812 33 L 72.882812 39.328125 " fill-opacity="1" fill-rule="nonzero"/><path fill="#231f20" d="M 72.882812 39.328125 L 72.882812 40.035156 L 79.179688 40.035156 C 79.367188 40.035156 79.546875 39.960938 79.679688 39.828125 C 79.8125 39.695312 79.886719 39.515625 79.886719 39.328125 L 79.886719 33 C 79.886719 32.8125 79.808594 32.632812 79.679688 32.5 C 79.546875 32.367188 79.367188 32.292969 79.179688 32.292969 L 72.882812 32.292969 C 72.699219 32.292969 72.515625 32.367188 72.382812 32.5 C 72.253906 32.632812 72.175781 32.8125 72.175781 33 L 72.175781 39.328125 C 72.175781 39.515625 72.253906 39.695312 72.382812 39.828125 C 72.515625 39.960938 72.699219 40.035156 72.882812 40.035156 L 72.882812 39.328125 L 73.585938 39.328125 L 73.585938 33.707031 L 78.476562 33.707031 L 78.476562 38.617188 L 72.882812 38.617188 L 72.882812 39.328125 L 73.585938 39.328125 L 72.882812 39.328125 " fill-opacity="1" fill-rule="nonzero"/><path fill="#d9d9d9" d="M 64.71875 39.328125 L 71.015625 39.328125 L 71.015625 33 L 64.71875 33 L 64.71875 39.328125 " fill-opacity="1" fill-rule="nonzero"/><path fill="#231f20" d="M 64.71875 39.328125 L 64.71875 40.035156 L 71.015625 40.035156 C 71.203125 40.035156 71.382812 39.960938 71.515625 39.828125 C 71.648438 39.695312 71.722656 39.515625 71.722656 39.328125 L 71.722656 33 C 71.722656 32.8125 71.644531 32.632812 71.515625 32.5 C 71.382812 32.367188 71.203125 32.292969 71.015625 32.292969 L 64.71875 32.292969 C 64.53125 32.292969 64.351562 32.367188 64.21875 32.5 C 64.089844 32.632812 64.011719 32.8125 64.011719 33 L 64.011719 39.328125 C 64.011719 39.515625 64.089844 39.695312 64.21875 39.828125 C 64.351562 39.960938 64.53125 40.035156 64.71875 40.035156 L 64.71875 39.328125 L 65.421875 39.328125 L 65.421875 33.707031 L 70.3125 33.707031 L 70.3125 38.617188 L 64.71875 38.617188 L 64.71875 39.328125 L 65.421875 39.328125 L 64.71875 39.328125 " fill-opacity="1" fill-rule="nonzero"/><path fill="#d9d9d9" d="M 56.554688 39.328125 L 62.851562 39.328125 L 62.851562 33 L 56.554688 33 L 56.554688 39.328125 " fill-opacity="1" fill-rule="nonzero"/><path fill="#231f20" d="M 56.554688 39.328125 L 56.554688 40.035156 L 62.851562 40.035156 C 63.042969 40.035156 63.21875 39.960938 63.351562 39.828125 C 63.484375 39.695312 63.558594 39.515625 63.558594 39.328125 L 63.558594 33 C 63.558594 32.8125 63.484375 32.632812 63.351562 32.5 C 63.21875 32.367188 63.039062 32.292969 62.851562 32.292969 L 56.554688 32.292969 C 56.371094 32.292969 56.1875 32.367188 56.058594 32.5 C 55.925781 32.632812 55.851562 32.8125 55.851562 33 L 55.851562 39.328125 C 55.851562 39.515625 55.925781 39.695312 56.058594 39.828125 C 56.1875 39.960938 56.371094 40.035156 56.554688 40.035156 L 56.554688 39.328125 L 57.261719 39.328125 L 57.261719 33.707031 L 62.148438 33.707031 L 62.148438 38.617188 L 56.554688 38.617188 L 56.554688 39.328125 L 57.261719 39.328125 L 56.554688 39.328125 " fill-opacity="1" fill-rule="nonzero"/><path fill="#d9d9d9" d="M 48.390625 39.328125 L 54.6875 39.328125 L 54.6875 33 L 48.390625 33 L 48.390625 39.328125 " fill-opacity="1" fill-rule="nonzero"/><path fill="#231f20" d="M 48.390625 39.328125 L 48.390625 40.035156 L 54.6875 40.035156 C 54.875 40.035156 55.054688 39.960938 55.1875 39.828125 C 55.320312 39.695312 55.394531 39.515625 55.394531 39.328125 L 55.394531 33 C 55.394531 32.8125 55.320312 32.632812 55.1875 32.5 C 55.054688 32.367188 54.875 32.292969 54.6875 32.292969 L 48.390625 32.292969 C 48.207031 32.292969 48.023438 32.367188 47.894531 32.5 C 47.761719 32.632812 47.6875 32.8125 47.6875 33 L 47.6875 39.328125 C 47.6875 39.515625 47.761719 39.695312 47.894531 39.828125 C 48.023438 39.960938 48.207031 40.035156 48.390625 40.035156 L 48.390625 39.328125 L 49.097656 39.328125 L 49.097656 33.707031 L 53.984375 33.707031 L 53.984375 38.617188 L 48.390625 38.617188 L 48.390625 39.328125 L 49.097656 39.328125 L 48.390625 39.328125 " fill-opacity="1" fill-rule="nonzero"/><path fill="#d9d9d9" d="M 40.226562 39.328125 L 46.527344 39.328125 L 46.527344 33 L 40.226562 33 L 40.226562 39.328125 " fill-opacity="1" fill-rule="nonzero"/><path fill="#231f20" d="M 40.226562 39.328125 L 40.226562 40.035156 L 46.527344 40.035156 C 46.714844 40.035156 46.890625 39.960938 47.023438 39.828125 C 47.15625 39.695312 47.230469 39.515625 47.230469 39.328125 L 47.230469 33 C 47.230469 32.8125 47.15625 32.632812 47.023438 32.5 C 46.890625 32.367188 46.710938 32.292969 46.527344 32.292969 L 40.226562 32.292969 C 40.042969 32.292969 39.859375 32.367188 39.730469 32.5 C 39.597656 32.632812 39.523438 32.8125 39.523438 33 L 39.523438 39.328125 C 39.523438 39.515625 39.597656 39.695312 39.730469 39.828125 C 39.859375 39.960938 40.042969 40.035156 40.226562 40.035156 L 40.226562 39.328125 L 40.933594 39.328125 L 40.933594 33.707031 L 45.820312 33.707031 L 45.820312 38.617188 L 40.226562 38.617188 L 40.226562 39.328125 L 40.933594 39.328125 L 40.226562 39.328125 " fill-opacity="1" fill-rule="nonzero"/><path fill="#d9d9d9" d="M 32.0625 39.328125 L 38.363281 39.328125 L 38.363281 33 L 32.0625 33 L 32.0625 39.328125 " fill-opacity="1" fill-rule="nonzero"/><path fill="#231f20" d="M 32.0625 39.328125 L 32.0625 40.035156 L 38.363281 40.035156 C 38.550781 40.035156 38.726562 39.960938 38.859375 39.828125 C 38.992188 39.695312 39.066406 39.515625 39.066406 39.328125 L 39.066406 33 C 39.066406 32.8125 38.992188 32.632812 38.859375 32.5 C 38.730469 32.367188 38.546875 32.292969 38.363281 32.292969 L 32.0625 32.292969 C 31.878906 32.292969 31.699219 32.367188 31.566406 32.5 C 31.433594 32.632812 31.359375 32.8125 31.359375 33 L 31.359375 39.328125 C 31.359375 39.515625 31.433594 39.695312 31.566406 39.828125 C 31.699219 39.960938 31.878906 40.035156 32.0625 40.035156 L 32.0625 39.328125 L 32.769531 39.328125 L 32.769531 33.707031 L 37.65625 33.707031 L 37.65625 38.617188 L 32.0625 38.617188 L 32.0625 39.328125 L 32.769531 39.328125 L 32.0625 39.328125 " fill-opacity="1" fill-rule="nonzero"/><path fill="#d9d9d9" d="M 23.902344 39.328125 L 30.199219 39.328125 L 30.199219 33 L 23.902344 33 L 23.902344 39.328125 " fill-opacity="1" fill-rule="nonzero"/><path fill="#231f20" d="M 23.902344 39.328125 L 23.902344 40.035156 L 30.199219 40.035156 C 30.386719 40.035156 30.566406 39.960938 30.699219 39.828125 C 30.832031 39.695312 30.902344 39.515625 30.902344 39.328125 L 30.902344 33 C 30.902344 32.8125 30.828125 32.632812 30.699219 32.5 C 30.566406 32.367188 30.382812 32.292969 30.199219 32.292969 L 23.902344 32.292969 C 23.714844 32.292969 23.535156 32.367188 23.402344 32.5 C 23.269531 32.632812 23.195312 32.8125 23.195312 33 L 23.195312 39.328125 C 23.195312 39.515625 23.269531 39.695312 23.402344 39.828125 C 23.535156 39.960938 23.714844 40.035156 23.902344 40.035156 L 23.902344 39.328125 L 24.605469 39.328125 L 24.605469 33.707031 L 29.492188 33.707031 L 29.492188 38.617188 L 23.902344 38.617188 L 23.902344 39.328125 L 24.605469 39.328125 L 23.902344 39.328125 " fill-opacity="1" fill-rule="nonzero"/><path fill="#d9d9d9" d="M 97.371094 47.761719 L 103.671875 47.761719 L 103.671875 41.4375 L 97.371094 41.4375 L 97.371094 47.761719 " fill-opacity="1" fill-rule="nonzero"/><path fill="#231f20" d="M 97.371094 47.761719 L 97.371094 48.472656 L 103.671875 48.472656 C 103.859375 48.472656 104.035156 48.398438 104.167969 48.265625 C 104.304688 48.128906 104.375 47.953125 104.375 47.761719 L 104.375 41.4375 C 104.375 41.25 104.300781 41.066406 104.167969 40.9375 C 104.039062 40.804688 103.855469 40.726562 103.671875 40.726562 L 97.371094 40.726562 C 97.1875 40.726562 97.007812 40.804688 96.875 40.9375 C 96.742188 41.066406 96.667969 41.25 96.667969 41.4375 L 96.667969 47.761719 C 96.667969 47.949219 96.742188 48.132812 96.875 48.265625 C 97.007812 48.394531 97.1875 48.472656 97.371094 48.472656 L 97.371094 47.761719 L 98.078125 47.761719 L 98.078125 42.144531 L 102.964844 42.144531 L 102.964844 47.054688 L 97.371094 47.054688 L 97.371094 47.761719 L 98.078125 47.761719 L 97.371094 47.761719 " fill-opacity="1" fill-rule="nonzero"/><path fill="#d9d9d9" d="M 89.210938 47.761719 L 95.507812 47.761719 L 95.507812 41.4375 L 89.210938 41.4375 L 89.210938 47.761719 " fill-opacity="1" fill-rule="nonzero"/><path fill="#231f20" d="M 89.210938 47.761719 L 89.210938 48.472656 L 95.507812 48.472656 C 95.695312 48.472656 95.875 48.398438 96.007812 48.265625 C 96.140625 48.128906 96.210938 47.953125 96.210938 47.761719 L 96.210938 41.4375 C 96.210938 41.25 96.136719 41.066406 96.007812 40.9375 C 95.875 40.804688 95.695312 40.726562 95.507812 40.726562 L 89.210938 40.726562 C 89.023438 40.726562 88.84375 40.804688 88.710938 40.9375 C 88.582031 41.066406 88.507812 41.25 88.507812 41.4375 L 88.507812 47.761719 C 88.507812 47.949219 88.582031 48.132812 88.710938 48.265625 C 88.84375 48.394531 89.023438 48.472656 89.210938 48.472656 L 89.210938 47.761719 L 89.917969 47.761719 L 89.917969 42.144531 L 94.804688 42.144531 L 94.804688 47.054688 L 89.210938 47.054688 L 89.210938 47.761719 L 89.917969 47.761719 L 89.210938 47.761719 " fill-opacity="1" fill-rule="nonzero"/><path fill="#d9d9d9" d="M 81.046875 47.761719 L 87.34375 47.761719 L 87.34375 41.4375 L 81.046875 41.4375 L 81.046875 47.761719 " fill-opacity="1" fill-rule="nonzero"/><path fill="#231f20" d="M 81.046875 47.761719 L 81.046875 48.472656 L 87.34375 48.472656 C 87.53125 48.472656 87.710938 48.398438 87.84375 48.265625 C 87.976562 48.128906 88.050781 47.953125 88.050781 47.761719 L 88.050781 41.4375 C 88.050781 41.25 87.972656 41.066406 87.84375 40.9375 C 87.710938 40.804688 87.53125 40.726562 87.34375 40.726562 L 81.046875 40.726562 C 80.859375 40.726562 80.679688 40.804688 80.546875 40.9375 C 80.417969 41.066406 80.339844 41.25 80.339844 41.4375 L 80.339844 47.761719 C 80.339844 47.949219 80.417969 48.132812 80.546875 48.265625 C 80.679688 48.394531 80.859375 48.472656 81.046875 48.472656 L 81.046875 47.761719 L 81.75 47.761719 L 81.75 42.144531 L 86.640625 42.144531 L 86.640625 47.054688 L 81.046875 47.054688 L 81.046875 47.761719 L 81.75 47.761719 L 81.046875 47.761719 " fill-opacity="1" fill-rule="nonzero"/><path fill="#d9d9d9" d="M 72.882812 47.761719 L 79.179688 47.761719 L 79.179688 41.4375 L 72.882812 41.4375 L 72.882812 47.761719 " fill-opacity="1" fill-rule="nonzero"/><path fill="#231f20" d="M 72.882812 47.761719 L 72.882812 48.472656 L 79.179688 48.472656 C 79.367188 48.472656 79.546875 48.398438 79.679688 48.265625 C 79.8125 48.128906 79.886719 47.953125 79.886719 47.761719 L 79.886719 41.4375 C 79.886719 41.25 79.808594 41.066406 79.679688 40.9375 C 79.546875 40.804688 79.367188 40.726562 79.179688 40.726562 L 72.882812 40.726562 C 72.699219 40.726562 72.515625 40.804688 72.382812 40.9375 C 72.253906 41.066406 72.175781 41.25 72.175781 41.4375 L 72.175781 47.761719 C 72.175781 47.949219 72.253906 48.132812 72.382812 48.265625 C 72.515625 48.394531 72.699219 48.472656 72.882812 48.472656 L 72.882812 47.761719 L 73.585938 47.761719 L 73.585938 42.144531 L 78.476562 42.144531 L 78.476562 47.054688 L 72.882812 47.054688 L 72.882812 47.761719 L 73.585938 47.761719 L 72.882812 47.761719 " fill-opacity="1" fill-rule="nonzero"/><path fill="#d9d9d9" d="M 64.71875 47.761719 L 71.015625 47.761719 L 71.015625 41.4375 L 64.71875 41.4375 L 64.71875 47.761719 " fill-opacity="1" fill-rule="nonzero"/><path fill="#231f20" d="M 64.71875 47.761719 L 64.71875 48.472656 L 71.015625 48.472656 C 71.203125 48.472656 71.382812 48.398438 71.515625 48.265625 C 71.648438 48.128906 71.722656 47.953125 71.722656 47.761719 L 71.722656 41.4375 C 71.722656 41.25 71.644531 41.066406 71.515625 40.9375 C 71.382812 40.804688 71.203125 40.726562 71.015625 40.726562 L 64.71875 40.726562 C 64.53125 40.726562 64.351562 40.804688 64.21875 40.9375 C 64.089844 41.066406 64.011719 41.25 64.011719 41.4375 L 64.011719 47.761719 C 64.011719 47.949219 64.089844 48.132812 64.21875 48.265625 C 64.351562 48.394531 64.53125 48.472656 64.71875 48.472656 L 64.71875 47.761719 L 65.421875 47.761719 L 65.421875 42.144531 L 70.3125 42.144531 L 70.3125 47.054688 L 64.71875 47.054688 L 64.71875 47.761719 L 65.421875 47.761719 L 64.71875 47.761719 " fill-opacity="1" fill-rule="nonzero"/><path fill="#d9d9d9" d="M 56.554688 47.761719 L 62.851562 47.761719 L 62.851562 41.4375 L 56.554688 41.4375 L 56.554688 47.761719 " fill-opacity="1" fill-rule="nonzero"/><path fill="#231f20" d="M 56.554688 47.761719 L 56.554688 48.472656 L 62.851562 48.472656 C 63.042969 48.472656 63.21875 48.398438 63.351562 48.265625 C 63.484375 48.128906 63.558594 47.953125 63.558594 47.761719 L 63.558594 41.4375 C 63.558594 41.25 63.484375 41.066406 63.351562 40.9375 C 63.21875 40.804688 63.039062 40.726562 62.851562 40.726562 L 56.554688 40.726562 C 56.371094 40.726562 56.1875 40.804688 56.058594 40.9375 C 55.925781 41.066406 55.851562 41.25 55.851562 41.4375 L 55.851562 47.761719 C 55.851562 47.949219 55.925781 48.132812 56.058594 48.265625 C 56.1875 48.394531 56.371094 48.472656 56.554688 48.472656 L 56.554688 47.761719 L 57.261719 47.761719 L 57.261719 42.144531 L 62.148438 42.144531 L 62.148438 47.054688 L 56.554688 47.054688 L 56.554688 47.761719 L 57.261719 47.761719 L 56.554688 47.761719 " fill-opacity="1" fill-rule="nonzero"/><path fill="#d9d9d9" d="M 48.390625 47.761719 L 54.6875 47.761719 L 54.6875 41.4375 L 48.390625 41.4375 L 48.390625 47.761719 " fill-opacity="1" fill-rule="nonzero"/><path fill="#231f20" d="M 48.390625 47.761719 L 48.390625 48.472656 L 54.6875 48.472656 C 54.875 48.472656 55.054688 48.398438 55.1875 48.265625 C 55.320312 48.128906 55.394531 47.953125 55.394531 47.761719 L 55.394531 41.4375 C 55.394531 41.25 55.320312 41.066406 55.1875 40.9375 C 55.054688 40.804688 54.875 40.726562 54.6875 40.726562 L 48.390625 40.726562 C 48.207031 40.726562 48.023438 40.804688 47.894531 40.9375 C 47.761719 41.066406 47.6875 41.25 47.6875 41.4375 L 47.6875 47.761719 C 47.6875 47.949219 47.761719 48.132812 47.894531 48.265625 C 48.023438 48.394531 48.207031 48.472656 48.390625 48.472656 L 48.390625 47.761719 L 49.097656 47.761719 L 49.097656 42.144531 L 53.984375 42.144531 L 53.984375 47.054688 L 48.390625 47.054688 L 48.390625 47.761719 L 49.097656 47.761719 L 48.390625 47.761719 " fill-opacity="1" fill-rule="nonzero"/><path fill="#d9d9d9" d="M 40.226562 47.761719 L 46.527344 47.761719 L 46.527344 41.4375 L 40.226562 41.4375 L 40.226562 47.761719 " fill-opacity="1" fill-rule="nonzero"/><path fill="#231f20" d="M 40.226562 47.761719 L 40.226562 48.472656 L 46.527344 48.472656 C 46.714844 48.472656 46.890625 48.398438 47.023438 48.265625 C 47.15625 48.128906 47.230469 47.953125 47.230469 47.761719 L 47.230469 41.4375 C 47.230469 41.25 47.15625 41.066406 47.023438 40.9375 C 46.890625 40.804688 46.710938 40.726562 46.527344 40.726562 L 40.226562 40.726562 C 40.042969 40.726562 39.859375 40.804688 39.730469 40.9375 C 39.597656 41.066406 39.523438 41.25 39.523438 41.4375 L 39.523438 47.761719 C 39.523438 47.949219 39.597656 48.132812 39.730469 48.265625 C 39.859375 48.394531 40.042969 48.472656 40.226562 48.472656 L 40.226562 47.761719 L 40.933594 47.761719 L 40.933594 42.144531 L 45.820312 42.144531 L 45.820312 47.054688 L 40.226562 47.054688 L 40.226562 47.761719 L 40.933594 47.761719 L 40.226562 47.761719 " fill-opacity="1" fill-rule="nonzero"/><path fill="#d9d9d9" d="M 32.0625 47.761719 L 38.363281 47.761719 L 38.363281 41.4375 L 32.0625 41.4375 L 32.0625 47.761719 " fill-opacity="1" fill-rule="nonzero"/><path fill="#231f20" d="M 32.0625 47.761719 L 32.0625 48.472656 L 38.363281 48.472656 C 38.550781 48.472656 38.726562 48.398438 38.859375 48.265625 C 38.992188 48.128906 39.066406 47.953125 39.066406 47.761719 L 39.066406 41.4375 C 39.066406 41.25 38.992188 41.066406 38.859375 40.9375 C 38.730469 40.804688 38.546875 40.726562 38.363281 40.726562 L 32.0625 40.726562 C 31.878906 40.726562 31.699219 40.804688 31.566406 40.9375 C 31.433594 41.066406 31.359375 41.25 31.359375 41.4375 L 31.359375 47.761719 C 31.359375 47.949219 31.433594 48.132812 31.566406 48.265625 C 31.699219 48.394531 31.878906 48.472656 32.0625 48.472656 L 32.0625 47.761719 L 32.769531 47.761719 L 32.769531 42.144531 L 37.65625 42.144531 L 37.65625 47.054688 L 32.0625 47.054688 L 32.0625 47.761719 L 32.769531 47.761719 L 32.0625 47.761719 " fill-opacity="1" fill-rule="nonzero"/><path fill="#d9d9d9" d="M 23.902344 47.761719 L 30.199219 47.761719 L 30.199219 41.4375 L 23.902344 41.4375 L 23.902344 47.761719 " fill-opacity="1" fill-rule="nonzero"/><path fill="#231f20" d="M 23.902344 47.761719 L 23.902344 48.472656 L 30.199219 48.472656 C 30.386719 48.472656 30.566406 48.398438 30.699219 48.265625 C 30.832031 48.128906 30.902344 47.953125 30.902344 47.761719 L 30.902344 41.4375 C 30.902344 41.25 30.828125 41.066406 30.699219 40.9375 C 30.566406 40.804688 30.382812 40.726562 30.199219 40.726562 L 23.902344 40.726562 C 23.714844 40.726562 23.535156 40.804688 23.402344 40.9375 C 23.269531 41.066406 23.195312 41.25 23.195312 41.4375 L 23.195312 47.761719 C 23.195312 47.949219 23.269531 48.132812 23.402344 48.265625 C 23.535156 48.394531 23.714844 48.472656 23.902344 48.472656 L 23.902344 47.761719 L 24.605469 47.761719 L 24.605469 42.144531 L 29.492188 42.144531 L 29.492188 47.054688 L 23.902344 47.054688 L 23.902344 47.761719 L 24.605469 47.761719 L 23.902344 47.761719 " fill-opacity="1" fill-rule="nonzero"/><path fill="#d9d9d9" d="M 97.371094 56.199219 L 103.671875 56.199219 L 103.671875 49.871094 L 97.371094 49.871094 L 97.371094 56.199219 " fill-opacity="1" fill-rule="nonzero"/><path fill="#231f20" d="M 97.371094 56.199219 L 97.371094 56.910156 L 103.671875 56.910156 C 103.859375 56.910156 104.035156 56.835938 104.167969 56.703125 C 104.304688 56.566406 104.375 56.390625 104.375 56.199219 L 104.375 49.871094 C 104.375 49.6875 104.300781 49.503906 104.167969 49.371094 C 104.039062 49.238281 103.855469 49.164062 103.671875 49.164062 L 97.371094 49.164062 C 97.1875 49.164062 97.007812 49.238281 96.875 49.371094 C 96.742188 49.503906 96.667969 49.6875 96.667969 49.871094 L 96.667969 56.199219 C 96.667969 56.386719 96.742188 56.570312 96.875 56.703125 C 97.007812 56.832031 97.1875 56.910156 97.371094 56.910156 L 97.371094 56.199219 L 98.078125 56.199219 L 98.078125 50.582031 L 102.964844 50.582031 L 102.964844 55.492188 L 97.371094 55.492188 L 97.371094 56.199219 L 98.078125 56.199219 L 97.371094 56.199219 " fill-opacity="1" fill-rule="nonzero"/><path fill="#d9d9d9" d="M 89.210938 56.199219 L 95.507812 56.199219 L 95.507812 49.871094 L 89.210938 49.871094 L 89.210938 56.199219 " fill-opacity="1" fill-rule="nonzero"/><path fill="#231f20" d="M 89.210938 56.199219 L 89.210938 56.910156 L 95.507812 56.910156 C 95.695312 56.910156 95.875 56.835938 96.007812 56.703125 C 96.140625 56.566406 96.210938 56.390625 96.210938 56.199219 L 96.210938 49.871094 C 96.210938 49.6875 96.136719 49.503906 96.007812 49.371094 C 95.875 49.238281 95.695312 49.164062 95.507812 49.164062 L 89.210938 49.164062 C 89.023438 49.164062 88.84375 49.238281 88.710938 49.371094 C 88.582031 49.503906 88.507812 49.6875 88.507812 49.871094 L 88.507812 56.199219 C 88.507812 56.386719 88.582031 56.570312 88.710938 56.703125 C 88.84375 56.832031 89.023438 56.910156 89.210938 56.910156 L 89.210938 56.199219 L 89.917969 56.199219 L 89.917969 50.582031 L 94.804688 50.582031 L 94.804688 55.492188 L 89.210938 55.492188 L 89.210938 56.199219 L 89.917969 56.199219 L 89.210938 56.199219 " fill-opacity="1" fill-rule="nonzero"/><path fill="#d9d9d9" d="M 48.390625 56.199219 L 87.34375 56.199219 L 87.34375 49.871094 L 48.390625 49.871094 L 48.390625 56.199219 " fill-opacity="1" fill-rule="nonzero"/><path fill="#231f20" d="M 48.390625 56.199219 L 48.390625 56.910156 L 87.34375 56.910156 C 87.53125 56.910156 87.710938 56.835938 87.84375 56.703125 C 87.976562 56.566406 88.050781 56.390625 88.050781 56.199219 L 88.050781 49.871094 C 88.050781 49.6875 87.972656 49.503906 87.84375 49.371094 C 87.710938 49.238281 87.53125 49.164062 87.34375 49.164062 L 48.390625 49.164062 C 48.207031 49.164062 48.023438 49.238281 47.894531 49.371094 C 47.761719 49.503906 47.6875 49.6875 47.6875 49.871094 L 47.6875 56.199219 C 47.6875 56.386719 47.761719 56.570312 47.894531 56.703125 C 48.023438 56.832031 48.207031 56.910156 48.390625 56.910156 L 48.390625 56.199219 L 49.097656 56.199219 L 49.097656 50.582031 L 86.640625 50.582031 L 86.640625 55.492188 L 48.390625 55.492188 L 48.390625 56.199219 L 49.097656 56.199219 L 48.390625 56.199219 " fill-opacity="1" fill-rule="nonzero"/><path fill="#d9d9d9" d="M 40.226562 56.199219 L 46.527344 56.199219 L 46.527344 49.871094 L 40.226562 49.871094 L 40.226562 56.199219 " fill-opacity="1" fill-rule="nonzero"/><path fill="#231f20" d="M 40.226562 56.199219 L 40.226562 56.910156 L 46.527344 56.910156 C 46.714844 56.910156 46.890625 56.835938 47.023438 56.703125 C 47.15625 56.566406 47.230469 56.390625 47.230469 56.199219 L 47.230469 49.871094 C 47.230469 49.6875 47.15625 49.503906 47.023438 49.371094 C 46.890625 49.238281 46.710938 49.164062 46.527344 49.164062 L 40.226562 49.164062 C 40.042969 49.164062 39.859375 49.238281 39.730469 49.371094 C 39.597656 49.503906 39.523438 49.6875 39.523438 49.871094 L 39.523438 56.199219 C 39.523438 56.386719 39.597656 56.570312 39.730469 56.703125 C 39.859375 56.832031 40.042969 56.910156 40.226562 56.910156 L 40.226562 56.199219 L 40.933594 56.199219 L 40.933594 50.582031 L 45.820312 50.582031 L 45.820312 55.492188 L 40.226562 55.492188 L 40.226562 56.199219 L 40.933594 56.199219 L 40.226562 56.199219 " fill-opacity="1" fill-rule="nonzero"/><path fill="#d9d9d9" d="M 32.0625 56.199219 L 38.363281 56.199219 L 38.363281 49.871094 L 32.0625 49.871094 L 32.0625 56.199219 " fill-opacity="1" fill-rule="nonzero"/><path fill="#231f20" d="M 32.0625 56.199219 L 32.0625 56.910156 L 38.363281 56.910156 C 38.550781 56.910156 38.726562 56.835938 38.859375 56.703125 C 38.992188 56.566406 39.066406 56.390625 39.066406 56.199219 L 39.066406 49.871094 C 39.066406 49.6875 38.992188 49.503906 38.859375 49.371094 C 38.730469 49.238281 38.546875 49.164062 38.363281 49.164062 L 32.0625 49.164062 C 31.878906 49.164062 31.699219 49.238281 31.566406 49.371094 C 31.433594 49.503906 31.359375 49.6875 31.359375 49.871094 L 31.359375 56.199219 C 31.359375 56.386719 31.433594 56.570312 31.566406 56.703125 C 31.699219 56.832031 31.878906 56.910156 32.0625 56.910156 L 32.0625 56.199219 L 32.769531 56.199219 L 32.769531 50.582031 L 37.65625 50.582031 L 37.65625 55.492188 L 32.0625 55.492188 L 32.0625 56.199219 L 32.769531 56.199219 L 32.0625 56.199219 " fill-opacity="1" fill-rule="nonzero"/><path fill="#d9d9d9" d="M 23.902344 56.199219 L 30.199219 56.199219 L 30.199219 49.871094 L 23.902344 49.871094 L 23.902344 56.199219 " fill-opacity="1" fill-rule="nonzero"/><path fill="#231f20" d="M 23.902344 56.199219 L 23.902344 56.910156 L 30.199219 56.910156 C 30.386719 56.910156 30.566406 56.835938 30.699219 56.703125 C 30.832031 56.566406 30.902344 56.390625 30.902344 56.199219 L 30.902344 49.871094 C 30.902344 49.6875 30.828125 49.503906 30.699219 49.371094 C 30.566406 49.238281 30.382812 49.164062 30.199219 49.164062 L 23.902344 49.164062 C 23.714844 49.164062 23.535156 49.238281 23.402344 49.371094 C 23.269531 49.503906 23.195312 49.6875 23.195312 49.871094 L 23.195312 56.199219 C 23.195312 56.386719 23.269531 56.570312 23.402344 56.703125 C 23.535156 56.832031 23.714844 56.910156 23.902344 56.910156 L 23.902344 56.199219 L 24.605469 56.199219 L 24.605469 50.582031 L 29.492188 50.582031 L 29.492188 55.492188 L 23.902344 55.492188 L 23.902344 56.199219 L 24.605469 56.199219 L 23.902344 56.199219 " fill-opacity="1" fill-rule="nonzero"/><path fill="#d9d9d9" d="M 15.957031 30.957031 L 22.253906 30.957031 L 22.253906 24.628906 L 15.957031 24.628906 L 15.957031 30.957031 " fill-opacity="1" fill-rule="nonzero"/><path fill="#231f20" d="M 15.957031 30.957031 L 15.957031 31.664062 L 22.253906 31.664062 C 22.441406 31.664062 22.617188 31.589844 22.75 31.457031 C 22.882812 31.324219 22.957031 31.144531 22.957031 30.957031 L 22.957031 24.628906 C 22.957031 24.441406 22.882812 24.257812 22.75 24.128906 C 22.621094 23.996094 22.4375 23.921875 22.253906 23.921875 L 15.957031 23.921875 C 15.769531 23.921875 15.585938 23.996094 15.457031 24.128906 C 15.324219 24.257812 15.25 24.441406 15.25 24.628906 L 15.25 30.957031 C 15.25 31.144531 15.324219 31.324219 15.457031 31.457031 C 15.589844 31.589844 15.769531 31.664062 15.957031 31.664062 L 15.957031 30.957031 L 16.660156 30.957031 L 16.660156 25.335938 L 21.546875 25.335938 L 21.546875 30.246094 L 15.957031 30.246094 L 15.957031 30.957031 L 16.660156 30.957031 L 15.957031 30.957031 " fill-opacity="1" fill-rule="nonzero"/><path fill="#d9d9d9" d="M 7.792969 30.957031 L 14.089844 30.957031 L 14.089844 24.628906 L 7.792969 24.628906 L 7.792969 30.957031 " fill-opacity="1" fill-rule="nonzero"/><path fill="#231f20" d="M 7.792969 30.957031 L 7.792969 31.664062 L 14.089844 31.664062 C 14.277344 31.664062 14.457031 31.589844 14.589844 31.457031 C 14.722656 31.324219 14.792969 31.144531 14.792969 30.957031 L 14.792969 24.628906 C 14.792969 24.441406 14.71875 24.257812 14.589844 24.128906 C 14.457031 23.996094 14.277344 23.921875 14.089844 23.921875 L 7.792969 23.921875 C 7.605469 23.921875 7.425781 23.996094 7.292969 24.128906 C 7.160156 24.257812 7.085938 24.441406 7.085938 24.628906 L 7.085938 30.957031 C 7.085938 31.144531 7.160156 31.324219 7.292969 31.457031 C 7.425781 31.589844 7.605469 31.664062 7.792969 31.664062 L 7.792969 30.957031 L 8.496094 30.957031 L 8.496094 25.335938 L 13.382812 25.335938 L 13.382812 30.246094 L 7.792969 30.246094 L 7.792969 30.957031 L 8.496094 30.957031 L 7.792969 30.957031 " fill-opacity="1" fill-rule="nonzero"/><path fill="#d9d9d9" d="M 15.957031 39.390625 L 22.253906 39.390625 L 22.253906 33.066406 L 15.957031 33.066406 L 15.957031 39.390625 " fill-opacity="1" fill-rule="nonzero"/><path fill="#231f20" d="M 15.957031 39.390625 L 15.957031 40.101562 L 22.253906 40.101562 C 22.441406 40.101562 22.617188 40.027344 22.75 39.894531 C 22.882812 39.757812 22.957031 39.582031 22.957031 39.390625 L 22.957031 33.066406 C 22.957031 32.878906 22.882812 32.695312 22.75 32.5625 C 22.621094 32.429688 22.4375 32.355469 22.253906 32.355469 L 15.957031 32.355469 C 15.769531 32.355469 15.585938 32.429688 15.457031 32.5625 C 15.324219 32.695312 15.25 32.878906 15.25 33.066406 L 15.25 39.390625 C 15.25 39.578125 15.324219 39.761719 15.457031 39.894531 C 15.589844 40.023438 15.769531 40.101562 15.957031 40.101562 L 15.957031 39.390625 L 16.660156 39.390625 L 16.660156 33.773438 L 21.546875 33.773438 L 21.546875 38.683594 L 15.957031 38.683594 L 15.957031 39.390625 L 16.660156 39.390625 L 15.957031 39.390625 " fill-opacity="1" fill-rule="nonzero"/><path fill="#d9d9d9" d="M 7.792969 39.390625 L 14.089844 39.390625 L 14.089844 33.066406 L 7.792969 33.066406 L 7.792969 39.390625 " fill-opacity="1" fill-rule="nonzero"/><path fill="#231f20" d="M 7.792969 39.390625 L 7.792969 40.101562 L 14.089844 40.101562 C 14.277344 40.101562 14.457031 40.027344 14.589844 39.894531 C 14.722656 39.757812 14.792969 39.582031 14.792969 39.390625 L 14.792969 33.066406 C 14.792969 32.878906 14.71875 32.695312 14.589844 32.5625 C 14.457031 32.429688 14.277344 32.355469 14.089844 32.355469 L 7.792969 32.355469 C 7.605469 32.355469 7.425781 32.429688 7.292969 32.5625 C 7.160156 32.695312 7.085938 32.878906 7.085938 33.066406 L 7.085938 39.390625 C 7.085938 39.578125 7.160156 39.761719 7.292969 39.894531 C 7.425781 40.023438 7.605469 40.101562 7.792969 40.101562 L 7.792969 39.390625 L 8.496094 39.390625 L 8.496094 33.773438 L 13.382812 33.773438 L 13.382812 38.683594 L 7.792969 38.683594 L 7.792969 39.390625 L 8.496094 39.390625 L 7.792969 39.390625 " fill-opacity="1" fill-rule="nonzero"/><path fill="#d9d9d9" d="M 15.957031 47.828125 L 22.253906 47.828125 L 22.253906 41.5 L 15.957031 41.5 L 15.957031 47.828125 " fill-opacity="1" fill-rule="nonzero"/><path fill="#231f20" d="M 15.957031 47.828125 L 15.957031 48.535156 L 22.253906 48.535156 C 22.441406 48.535156 22.617188 48.460938 22.75 48.328125 C 22.882812 48.195312 22.957031 48.019531 22.957031 47.828125 L 22.957031 41.5 C 22.957031 41.316406 22.882812 41.132812 22.75 41 C 22.621094 40.867188 22.4375 40.792969 22.253906 40.792969 L 15.957031 40.792969 C 15.769531 40.792969 15.585938 40.867188 15.457031 41 C 15.324219 41.132812 15.25 41.316406 15.25 41.5 L 15.25 47.828125 C 15.25 48.015625 15.324219 48.195312 15.457031 48.328125 C 15.589844 48.460938 15.769531 48.535156 15.957031 48.535156 L 15.957031 47.828125 L 16.660156 47.828125 L 16.660156 42.210938 L 21.546875 42.210938 L 21.546875 47.121094 L 15.957031 47.121094 L 15.957031 47.828125 L 16.660156 47.828125 L 15.957031 47.828125 " fill-opacity="1" fill-rule="nonzero"/><path fill="#d9d9d9" d="M 7.792969 47.828125 L 14.089844 47.828125 L 14.089844 41.5 L 7.792969 41.5 L 7.792969 47.828125 " fill-opacity="1" fill-rule="nonzero"/><path fill="#231f20" d="M 7.792969 47.828125 L 7.792969 48.535156 L 14.089844 48.535156 C 14.277344 48.535156 14.457031 48.460938 14.589844 48.328125 C 14.722656 48.195312 14.792969 48.019531 14.792969 47.828125 L 14.792969 41.5 C 14.792969 41.316406 14.71875 41.132812 14.589844 41 C 14.457031 40.867188 14.277344 40.792969 14.089844 40.792969 L 7.792969 40.792969 C 7.605469 40.792969 7.425781 40.867188 7.292969 41 C 7.164062 41.132812 7.085938 41.316406 7.085938 41.5 L 7.085938 47.828125 C 7.085938 48.015625 7.164062 48.195312 7.292969 48.328125 C 7.425781 48.460938 7.605469 48.535156 7.792969 48.535156 L 7.792969 47.828125 L 8.496094 47.828125 L 8.496094 42.210938 L 13.382812 42.210938 L 13.382812 47.121094 L 7.792969 47.121094 L 7.792969 47.828125 L 8.496094 47.828125 L 7.792969 47.828125 " fill-opacity="1" fill-rule="nonzero"/><path fill="#d9d9d9" d="M 15.957031 56.265625 L 22.253906 56.265625 L 22.253906 49.9375 L 15.957031 49.9375 L 15.957031 56.265625 " fill-opacity="1" fill-rule="nonzero"/><path fill="#231f20" d="M 15.957031 56.265625 L 15.957031 56.972656 L 22.253906 56.972656 C 22.441406 56.972656 22.617188 56.898438 22.75 56.765625 C 22.882812 56.632812 22.957031 56.453125 22.957031 56.265625 L 22.957031 49.9375 C 22.957031 49.75 22.882812 49.570312 22.75 49.4375 C 22.621094 49.304688 22.4375 49.230469 22.253906 49.230469 L 15.957031 49.230469 C 15.769531 49.230469 15.585938 49.304688 15.457031 49.4375 C 15.324219 49.570312 15.25 49.75 15.25 49.9375 L 15.25 56.265625 C 15.25 56.453125 15.324219 56.632812 15.457031 56.765625 C 15.589844 56.898438 15.769531 56.972656 15.957031 56.972656 L 15.957031 56.265625 L 16.660156 56.265625 L 16.660156 50.644531 L 21.546875 50.644531 L 21.546875 55.554688 L 15.957031 55.554688 L 15.957031 56.265625 L 16.660156 56.265625 L 15.957031 56.265625 " fill-opacity="1" fill-rule="nonzero"/><path fill="#d9d9d9" d="M 7.792969 56.265625 L 14.089844 56.265625 L 14.089844 49.9375 L 7.792969 49.9375 L 7.792969 56.265625 " fill-opacity="1" fill-rule="nonzero"/><path fill="#231f20" d="M 7.792969 56.265625 L 7.792969 56.972656 L 14.089844 56.972656 C 14.277344 56.972656 14.457031 56.898438 14.589844 56.765625 C 14.722656 56.632812 14.792969 56.453125 14.792969 56.265625 L 14.792969 49.9375 C 14.792969 49.75 14.71875 49.570312 14.589844 49.4375 C 14.457031 49.304688 14.277344 49.230469 14.089844 49.230469 L 7.792969 49.230469 C 7.605469 49.230469 7.425781 49.304688 7.292969 49.4375 C 7.160156 49.570312 7.085938 49.75 7.085938 49.9375 L 7.085938 56.265625 C 7.085938 56.453125 7.160156 56.632812 7.292969 56.765625 C 7.425781 56.898438 7.605469 56.972656 7.792969 56.972656 L 7.792969 56.265625 L 8.496094 56.265625 L 8.496094 50.644531 L 13.382812 50.644531 L 13.382812 55.554688 L 7.792969 55.554688 L 7.792969 56.265625 L 8.496094 56.265625 L 7.792969 56.265625 " fill-opacity="1" fill-rule="nonzero"/><path fill="#ffffff" d="M 98.925781 72.21875 C 101.457031 67.347656 101.917969 61.503906 101.328125 56.367188 C 101.195312 55.199219 101.058594 54.03125 100.925781 52.863281 C 100.660156 50.574219 100.398438 48.285156 100.136719 45.996094 C 99.980469 44.648438 99.824219 43.300781 99.671875 41.957031 C 99.546875 40.882812 98.46875 39.785156 97.332031 40.324219 C 96.105469 40.902344 96.019531 42.285156 95.988281 43.441406 C 95.957031 44.480469 95.816406 45.523438 95.757812 46.5625 C 95.644531 48.734375 95.410156 50.90625 95.289062 53.078125 C 95.261719 53.5625 95.1875 54.050781 95.183594 54.535156 C 95.167969 54.003906 95.152344 53.472656 95.136719 52.941406 C 95.09375 51.640625 95.054688 50.339844 95.011719 49.039062 C 94.964844 47.402344 94.910156 45.761719 94.863281 44.125 C 94.816406 42.570312 94.773438 41.019531 94.71875 39.464844 C 94.679688 38.335938 94.6875 37.203125 94.585938 36.078125 C 94.5 35.117188 93.878906 33.839844 92.769531 33.792969 C 92.171875 33.765625 91.695312 34.1875 91.285156 34.582031 C 90.84375 35.011719 90.46875 35.984375 90.414062 36.605469 C 90.363281 37.230469 90.292969 37.835938 90.195312 38.457031 C 89.929688 40.125 89.855469 41.886719 89.773438 43.570312 C 89.683594 45.4375 89.582031 47.300781 89.519531 49.171875 C 89.464844 50.726562 89.417969 52.28125 89.355469 53.835938 C 89.328125 54.566406 89.289062 55.304688 89.296875 56.035156 L 89.304688 56.074219 C 89.304688 56.074219 89.46875 34.726562 89.46875 34.660156 C 89.480469 33.230469 88.964844 30.148438 86.734375 30.390625 C 85.945312 30.476562 84.945312 31.566406 84.640625 32.238281 C 84.304688 32.988281 84.3125 33.828125 84.25 34.628906 C 84.117188 36.300781 83.914062 37.945312 83.847656 39.628906 C 83.703125 43.070312 83.535156 46.511719 83.511719 49.960938 C 83.507812 50.71875 83.464844 51.488281 83.484375 52.25 C 83.65625 49.6875 83.472656 46.917969 83.316406 44.355469 C 83.136719 41.3125 83.289062 39.171875 83 36.894531 C 82.921875 36.300781 82.921875 35.417969 82.554688 34.933594 C 82.023438 34.226562 81.148438 33.449219 80.351562 33.503906 C 79.222656 33.582031 78.242188 35.199219 78.183594 36.328125 C 77.824219 42.871094 77.6875 47.390625 78.230469 52.730469 C 78.230469 52.730469 78.734375 57.246094 78.621094 57.746094 C 78.621094 57.746094 77.296875 49.335938 73.605469 46.023438 C 73.605469 46.023438 67.136719 42.910156 71.785156 52.527344 C 71.785156 52.527344 73.304688 58.8125 74.125 62.8125 C 74.125 62.8125 75.429688 70.75 82.613281 75.925781 C 82.613281 75.925781 83.453125 83.902344 83.359375 86.210938 L 98.675781 86.210938 C 98.675781 86.210938 97.058594 75.8125 98.925781 72.21875 " fill-opacity="1" fill-rule="nonzero"/><path fill="#231f20" d="M 98.925781 72.21875 L 99.550781 72.546875 C 101.515625 68.761719 102.261719 64.453125 102.261719 60.332031 C 102.261719 58.953125 102.179688 57.597656 102.027344 56.285156 C 101.894531 55.117188 101.761719 53.949219 101.625 52.785156 C 101.363281 50.492188 101.097656 48.203125 100.835938 45.914062 C 100.679688 44.566406 100.527344 43.222656 100.371094 41.875 C 100.296875 41.265625 100.027344 40.703125 99.617188 40.257812 C 99.410156 40.035156 99.164062 39.839844 98.882812 39.699219 C 98.601562 39.558594 98.277344 39.472656 97.9375 39.472656 C 97.636719 39.472656 97.324219 39.542969 97.027344 39.683594 L 97.03125 39.683594 C 96.628906 39.871094 96.300781 40.140625 96.054688 40.453125 C 95.6875 40.921875 95.507812 41.457031 95.410156 41.96875 C 95.3125 42.480469 95.296875 42.980469 95.28125 43.421875 C 95.253906 44.40625 95.113281 45.445312 95.054688 46.523438 C 94.941406 48.671875 94.710938 50.839844 94.582031 53.039062 C 94.558594 53.476562 94.484375 53.976562 94.480469 54.53125 L 95.183594 54.535156 L 95.890625 54.511719 C 95.875 53.980469 95.855469 53.449219 95.839844 52.917969 C 95.796875 51.617188 95.757812 50.320312 95.71875 49.019531 C 95.667969 47.378906 95.613281 45.738281 95.566406 44.105469 C 95.523438 42.550781 95.480469 40.996094 95.421875 39.441406 C 95.382812 38.332031 95.394531 37.183594 95.289062 36.015625 C 95.230469 35.414062 95.027344 34.761719 94.644531 34.191406 C 94.449219 33.910156 94.203125 33.644531 93.894531 33.441406 C 93.585938 33.238281 93.210938 33.101562 92.800781 33.085938 L 92.804688 33.085938 C 92.777344 33.085938 92.746094 33.082031 92.714844 33.082031 C 92.257812 33.082031 91.867188 33.246094 91.558594 33.441406 C 91.246094 33.640625 91 33.871094 90.792969 34.074219 C 90.625 34.238281 90.488281 34.425781 90.367188 34.621094 C 90.1875 34.921875 90.042969 35.25 89.929688 35.574219 C 89.816406 35.90625 89.742188 36.230469 89.714844 36.542969 C 89.660156 37.15625 89.59375 37.738281 89.496094 38.34375 C 89.226562 40.066406 89.152344 41.851562 89.066406 43.535156 C 88.976562 45.402344 88.875 47.269531 88.8125 49.148438 C 88.757812 50.703125 88.710938 52.257812 88.652344 53.808594 C 88.625 54.457031 88.59375 55.132812 88.59375 55.816406 C 88.59375 55.890625 88.59375 55.96875 88.59375 56.046875 L 88.597656 56.101562 L 88.601562 56.140625 C 88.636719 56.519531 88.960938 56.796875 89.332031 56.78125 C 89.707031 56.765625 90.003906 56.457031 90.007812 56.082031 C 90.007812 56.082031 90.046875 50.742188 90.089844 45.398438 C 90.113281 42.726562 90.132812 40.050781 90.148438 38.039062 C 90.15625 37.035156 90.164062 36.195312 90.167969 35.605469 C 90.167969 35.308594 90.171875 35.074219 90.171875 34.917969 C 90.171875 34.835938 90.175781 34.773438 90.175781 34.730469 L 90.175781 34.609375 C 90.171875 33.832031 90.050781 32.714844 89.625 31.695312 C 89.410156 31.1875 89.113281 30.695312 88.675781 30.308594 C 88.460938 30.117188 88.203125 29.953125 87.917969 29.84375 C 87.628906 29.730469 87.3125 29.667969 86.980469 29.667969 C 86.875 29.667969 86.765625 29.675781 86.65625 29.6875 L 86.660156 29.6875 C 86.320312 29.726562 86.027344 29.851562 85.757812 30.011719 C 85.359375 30.25 85.003906 30.570312 84.703125 30.90625 C 84.402344 31.25 84.160156 31.597656 84 31.949219 C 83.789062 32.414062 83.695312 32.886719 83.640625 33.332031 C 83.589844 33.773438 83.574219 34.195312 83.546875 34.574219 C 83.417969 36.226562 83.214844 37.878906 83.140625 39.597656 C 83 43.039062 82.828125 46.484375 82.808594 49.953125 C 82.804688 50.542969 82.773438 51.15625 82.773438 51.789062 C 82.773438 51.945312 82.773438 52.109375 82.78125 52.273438 C 82.792969 52.648438 83.097656 52.953125 83.472656 52.957031 C 83.851562 52.964844 84.164062 52.671875 84.191406 52.296875 C 84.238281 51.546875 84.257812 50.785156 84.257812 50.015625 C 84.257812 48.09375 84.132812 46.144531 84.023438 44.3125 C 83.933594 42.8125 83.925781 41.53125 83.902344 40.324219 C 83.882812 39.117188 83.847656 37.984375 83.699219 36.804688 C 83.664062 36.546875 83.644531 36.164062 83.582031 35.761719 C 83.550781 35.558594 83.507812 35.351562 83.4375 35.136719 C 83.367188 34.925781 83.269531 34.707031 83.117188 34.503906 C 82.824219 34.117188 82.453125 33.714844 82.011719 33.390625 C 81.789062 33.226562 81.550781 33.082031 81.289062 32.972656 C 81.027344 32.863281 80.742188 32.792969 80.433594 32.792969 C 80.394531 32.792969 80.347656 32.792969 80.289062 32.796875 L 80.351562 33.503906 L 80.300781 32.796875 C 79.859375 32.828125 79.464844 33.003906 79.136719 33.242188 C 78.640625 33.601562 78.257812 34.09375 77.976562 34.625 C 77.695312 35.160156 77.511719 35.726562 77.476562 36.289062 C 77.289062 39.730469 77.164062 42.621094 77.164062 45.375 C 77.164062 47.863281 77.265625 50.242188 77.527344 52.804688 L 77.527344 52.8125 C 77.527344 52.8125 77.554688 53.039062 77.589844 53.394531 C 77.648438 53.933594 77.734375 54.761719 77.804688 55.558594 C 77.839844 55.957031 77.875 56.347656 77.894531 56.683594 C 77.917969 57.019531 77.933594 57.304688 77.933594 57.480469 C 77.933594 57.53125 77.933594 57.574219 77.929688 57.597656 L 77.929688 57.617188 L 78.171875 57.644531 L 77.933594 57.59375 L 77.929688 57.617188 L 78.171875 57.644531 L 77.933594 57.59375 L 78.621094 57.746094 L 79.316406 57.632812 C 79.3125 57.613281 78.976562 55.484375 78.167969 52.914062 C 77.765625 51.628906 77.242188 50.230469 76.574219 48.929688 C 75.90625 47.625 75.09375 46.410156 74.078125 45.496094 C 74.027344 45.449219 73.972656 45.414062 73.914062 45.382812 C 73.894531 45.375 73.617188 45.242188 73.210938 45.109375 C 72.800781 44.976562 72.261719 44.835938 71.675781 44.832031 C 71.421875 44.832031 71.15625 44.863281 70.886719 44.941406 C 70.6875 45 70.484375 45.09375 70.296875 45.222656 C 70.015625 45.417969 69.773438 45.710938 69.621094 46.0625 C 69.46875 46.414062 69.398438 46.820312 69.398438 47.277344 C 69.398438 47.90625 69.53125 48.644531 69.808594 49.554688 C 70.089844 50.460938 70.523438 51.539062 71.148438 52.835938 L 71.785156 52.527344 L 71.097656 52.691406 C 71.097656 52.691406 71.121094 52.789062 71.164062 52.96875 C 71.464844 54.222656 72.71875 59.472656 73.433594 62.957031 L 74.125 62.8125 L 73.429688 62.929688 C 73.4375 62.972656 73.777344 65.019531 75.035156 67.726562 C 76.296875 70.4375 78.484375 73.824219 82.199219 76.5 L 82.613281 75.925781 L 81.910156 76 C 81.910156 76 81.921875 76.109375 81.941406 76.308594 C 82.015625 77.015625 82.195312 78.8125 82.359375 80.726562 C 82.4375 81.683594 82.515625 82.671875 82.570312 83.5625 C 82.628906 84.453125 82.664062 85.25 82.664062 85.8125 C 82.664062 85.953125 82.660156 86.078125 82.65625 86.183594 C 82.648438 86.375 82.722656 86.5625 82.855469 86.703125 C 82.988281 86.839844 83.171875 86.917969 83.359375 86.917969 L 98.675781 86.917969 C 98.882812 86.917969 99.078125 86.828125 99.210938 86.671875 C 99.347656 86.515625 99.40625 86.304688 99.371094 86.101562 C 99.371094 86.101562 99.371094 86.085938 99.367188 86.054688 C 99.296875 85.601562 98.730469 81.714844 98.730469 78.054688 C 98.730469 76.929688 98.78125 75.828125 98.917969 74.867188 C 99.046875 73.90625 99.269531 73.085938 99.550781 72.546875 L 98.300781 71.890625 C 97.898438 72.667969 97.667969 73.617188 97.519531 74.671875 C 97.375 75.726562 97.320312 76.886719 97.320312 78.054688 C 97.320312 82.105469 97.976562 86.300781 97.980469 86.320312 L 98.675781 86.210938 L 98.675781 85.503906 L 83.359375 85.503906 L 83.359375 86.210938 L 84.066406 86.238281 C 84.070312 86.109375 84.074219 85.96875 84.074219 85.8125 C 84.074219 85.105469 84.027344 84.144531 83.953125 83.082031 C 83.738281 79.898438 83.3125 75.851562 83.3125 75.847656 C 83.292969 75.648438 83.1875 75.464844 83.023438 75.347656 C 79.554688 72.851562 77.503906 69.683594 76.3125 67.128906 C 75.71875 65.851562 75.34375 64.734375 75.117188 63.941406 C 75.003906 63.542969 74.929688 63.226562 74.882812 63.011719 C 74.859375 62.90625 74.84375 62.824219 74.832031 62.769531 C 74.828125 62.742188 74.824219 62.726562 74.824219 62.710938 L 74.820312 62.699219 L 74.589844 62.734375 L 74.820312 62.699219 L 74.589844 62.734375 L 74.820312 62.699219 L 74.816406 62.671875 C 73.992188 58.644531 72.46875 52.363281 72.46875 52.359375 C 72.457031 52.308594 72.441406 52.261719 72.417969 52.214844 C 71.816406 50.96875 71.410156 49.953125 71.15625 49.132812 C 70.902344 48.316406 70.808594 47.703125 70.808594 47.277344 C 70.808594 47 70.847656 46.804688 70.894531 46.675781 C 70.933594 46.578125 70.972656 46.515625 71.015625 46.46875 C 71.074219 46.398438 71.144531 46.351562 71.253906 46.3125 C 71.359375 46.273438 71.507812 46.25 71.675781 46.25 C 72.023438 46.25 72.449219 46.347656 72.773438 46.457031 C 72.933594 46.507812 73.074219 46.5625 73.167969 46.601562 C 73.214844 46.621094 73.25 46.636719 73.273438 46.648438 L 73.300781 46.660156 L 73.304688 46.664062 L 73.367188 46.527344 L 73.304688 46.660156 L 73.304688 46.664062 L 73.367188 46.527344 L 73.304688 46.660156 L 73.605469 46.023438 L 73.136719 46.550781 C 73.964844 47.292969 74.703125 48.371094 75.320312 49.578125 C 76.246094 51.382812 76.90625 53.46875 77.324219 55.089844 C 77.535156 55.898438 77.683594 56.59375 77.78125 57.085938 C 77.832031 57.332031 77.867188 57.527344 77.890625 57.660156 C 77.902344 57.726562 77.910156 57.773438 77.917969 57.808594 L 77.921875 57.847656 L 77.925781 57.855469 C 77.976562 58.191406 78.261719 58.445312 78.601562 58.453125 C 78.9375 58.464844 79.234375 58.230469 79.308594 57.898438 C 79.328125 57.808594 79.332031 57.75 79.335938 57.683594 C 79.34375 57.617188 79.34375 57.550781 79.34375 57.480469 C 79.34375 57.164062 79.316406 56.726562 79.277344 56.222656 C 79.160156 54.710938 78.929688 52.65625 78.929688 52.652344 L 78.230469 52.730469 L 78.929688 52.660156 C 78.675781 50.148438 78.574219 47.824219 78.574219 45.375 C 78.574219 42.664062 78.699219 39.800781 78.886719 36.367188 C 78.894531 36.175781 78.949219 35.929688 79.046875 35.671875 C 79.191406 35.289062 79.429688 34.898438 79.695312 34.625 C 79.824219 34.488281 79.957031 34.382812 80.082031 34.316406 C 80.203125 34.246094 80.308594 34.214844 80.402344 34.210938 L 80.414062 34.210938 L 80.417969 34.207031 L 80.433594 34.207031 C 80.515625 34.207031 80.621094 34.230469 80.75 34.28125 C 80.945312 34.363281 81.175781 34.515625 81.398438 34.710938 C 81.617188 34.90625 81.828125 35.140625 81.992188 35.359375 C 82.023438 35.398438 82.0625 35.472656 82.097656 35.582031 C 82.152344 35.746094 82.191406 35.976562 82.222656 36.222656 C 82.25 36.46875 82.265625 36.730469 82.300781 36.984375 C 82.4375 38.078125 82.472656 39.152344 82.492188 40.347656 C 82.515625 41.542969 82.523438 42.855469 82.613281 44.398438 C 82.726562 46.230469 82.851562 48.15625 82.851562 50.015625 C 82.851562 50.757812 82.828125 51.488281 82.78125 52.203125 L 83.484375 52.25 L 84.191406 52.226562 C 84.183594 52.082031 84.183594 51.9375 84.183594 51.789062 C 84.183594 51.199219 84.210938 50.589844 84.21875 49.964844 C 84.238281 46.535156 84.410156 43.105469 84.550781 39.65625 C 84.617188 38.015625 84.820312 36.378906 84.949219 34.683594 C 84.984375 34.261719 85 33.863281 85.042969 33.5 C 85.085938 33.132812 85.15625 32.8125 85.285156 32.53125 C 85.328125 32.429688 85.421875 32.269531 85.546875 32.105469 C 85.734375 31.855469 85.992188 31.585938 86.238281 31.394531 C 86.359375 31.300781 86.484375 31.222656 86.585938 31.171875 C 86.6875 31.121094 86.769531 31.097656 86.808594 31.09375 L 86.8125 31.09375 C 86.871094 31.089844 86.925781 31.085938 86.980469 31.085938 C 87.148438 31.085938 87.28125 31.113281 87.40625 31.160156 C 87.617188 31.246094 87.804688 31.398438 87.984375 31.636719 C 88.253906 31.988281 88.464844 32.527344 88.589844 33.082031 C 88.714844 33.636719 88.765625 34.207031 88.765625 34.609375 L 88.765625 34.660156 L 89.167969 34.660156 L 88.765625 34.65625 L 88.765625 34.660156 L 89.167969 34.660156 L 88.765625 34.65625 C 88.765625 34.769531 88.722656 40.125 88.679688 45.449219 C 88.636719 50.773438 88.597656 56.070312 88.597656 56.070312 L 89.304688 56.074219 L 90.003906 56.007812 L 90 55.964844 L 89.296875 56.035156 L 90.003906 56.023438 C 90.003906 55.957031 90 55.890625 90 55.816406 C 90 55.183594 90.035156 54.527344 90.0625 53.863281 C 90.121094 52.304688 90.167969 50.75 90.222656 49.195312 C 90.285156 47.335938 90.386719 45.476562 90.476562 43.605469 C 90.558594 41.917969 90.636719 40.179688 90.890625 38.566406 C 90.992188 37.925781 91.0625 37.304688 91.117188 36.664062 C 91.132812 36.460938 91.222656 36.109375 91.355469 35.796875 C 91.421875 35.636719 91.496094 35.488281 91.570312 35.363281 C 91.644531 35.238281 91.722656 35.140625 91.773438 35.089844 C 91.960938 34.90625 92.144531 34.742188 92.308594 34.640625 C 92.476562 34.539062 92.597656 34.5 92.714844 34.5 L 92.738281 34.5 C 92.882812 34.507812 93 34.546875 93.125 34.628906 C 93.304688 34.746094 93.492188 34.972656 93.632812 35.257812 C 93.773438 35.539062 93.859375 35.875 93.882812 36.144531 C 93.980469 37.222656 93.972656 38.34375 94.015625 39.492188 C 94.070312 41.039062 94.113281 42.589844 94.15625 44.144531 C 94.203125 45.785156 94.257812 47.421875 94.308594 49.0625 C 94.347656 50.363281 94.386719 51.664062 94.429688 52.964844 C 94.445312 53.496094 94.464844 54.027344 94.480469 54.558594 C 94.492188 54.945312 94.808594 55.246094 95.195312 55.242188 C 95.578125 55.238281 95.886719 54.925781 95.890625 54.539062 C 95.890625 54.125 95.960938 53.644531 95.992188 53.117188 L 95.992188 53.121094 C 96.113281 50.96875 96.347656 48.800781 96.464844 46.601562 C 96.515625 45.601562 96.660156 44.550781 96.691406 43.460938 C 96.707031 42.894531 96.742188 42.320312 96.882812 41.882812 C 96.953125 41.664062 97.042969 41.480469 97.160156 41.332031 C 97.28125 41.183594 97.421875 41.066406 97.632812 40.964844 C 97.75 40.910156 97.84375 40.890625 97.9375 40.890625 C 98.042969 40.890625 98.144531 40.914062 98.257812 40.96875 C 98.421875 41.050781 98.597656 41.207031 98.726562 41.402344 C 98.863281 41.601562 98.949219 41.835938 98.96875 42.035156 C 99.125 43.382812 99.277344 44.730469 99.433594 46.074219 C 99.699219 48.367188 99.960938 50.65625 100.226562 52.945312 C 100.359375 54.113281 100.492188 55.28125 100.628906 56.445312 C 100.773438 57.707031 100.851562 59.011719 100.851562 60.332031 C 100.851562 64.285156 100.128906 68.375 98.300781 71.890625 L 98.925781 72.21875 " fill-opacity="1" fill-rule="nonzero"/><path fill="#737373" d="M 81.550781 94.503906 L 100.523438 94.503906 L 100.523438 83.8125 L 81.550781 83.8125 L 81.550781 94.503906 " fill-opacity="1" fill-rule="nonzero"/><path fill="#231f20" d="M 81.550781 94.503906 L 81.550781 95.214844 L 100.523438 95.214844 C 100.710938 95.214844 100.886719 95.140625 101.019531 95.007812 C 101.152344 94.871094 101.226562 94.695312 101.226562 94.503906 L 101.226562 83.8125 C 101.226562 83.625 101.152344 83.441406 101.019531 83.3125 C 100.890625 83.179688 100.707031 83.101562 100.523438 83.101562 L 81.550781 83.101562 C 81.363281 83.101562 81.183594 83.179688 81.050781 83.3125 C 80.921875 83.441406 80.847656 83.625 80.847656 83.8125 L 80.847656 94.503906 C 80.847656 94.691406 80.921875 94.875 81.050781 95.007812 C 81.183594 95.136719 81.363281 95.214844 81.550781 95.214844 L 81.550781 94.503906 L 82.257812 94.503906 L 82.257812 84.519531 L 99.816406 84.519531 L 99.816406 93.796875 L 81.550781 93.796875 L 81.550781 94.503906 L 82.257812 94.503906 L 81.550781 94.503906 " fill-opacity="1" fill-rule="nonzero"/><path fill="#ffffff" d="M 14.1875 73.554688 C 11.65625 68.683594 11.191406 62.839844 11.785156 57.699219 C 11.917969 56.53125 12.050781 55.367188 12.1875 54.199219 C 12.449219 51.910156 12.714844 49.621094 12.976562 47.328125 C 13.132812 45.984375 13.289062 44.636719 13.441406 43.289062 C 13.566406 42.214844 14.644531 41.121094 15.78125 41.660156 C 17.007812 42.238281 17.09375 43.621094 17.125 44.777344 C 17.152344 45.816406 17.296875 46.859375 17.351562 47.898438 C 17.46875 50.070312 17.699219 52.238281 17.824219 54.414062 C 17.851562 54.894531 17.921875 55.386719 17.925781 55.867188 C 17.945312 55.339844 17.960938 54.808594 17.976562 54.277344 C 18.019531 52.976562 18.058594 51.675781 18.097656 50.375 C 18.148438 48.734375 18.203125 47.097656 18.25 45.457031 C 18.292969 43.90625 18.339844 42.355469 18.394531 40.800781 C 18.433594 39.671875 18.421875 38.539062 18.527344 37.414062 C 18.613281 36.453125 19.230469 35.175781 20.339844 35.125 C 20.941406 35.101562 21.417969 35.519531 21.824219 35.917969 C 22.269531 36.347656 22.644531 37.320312 22.695312 37.941406 C 22.75 38.566406 22.820312 39.167969 22.917969 39.789062 C 23.183594 41.457031 23.257812 43.21875 23.339844 44.90625 C 23.429688 46.773438 23.53125 48.636719 23.59375 50.503906 C 23.644531 52.058594 23.695312 53.617188 23.757812 55.171875 C 23.78125 55.898438 23.820312 56.640625 23.8125 57.371094 L 23.8125 57.410156 C 23.8125 57.410156 23.640625 36.0625 23.640625 35.992188 C 23.628906 34.5625 24.144531 31.484375 26.378906 31.726562 C 27.164062 31.808594 28.167969 32.898438 28.46875 33.574219 C 28.804688 34.320312 28.800781 35.160156 28.863281 35.964844 C 28.992188 37.636719 29.195312 39.28125 29.265625 40.960938 C 29.40625 44.40625 29.578125 47.847656 29.601562 51.292969 C 29.605469 52.054688 29.648438 52.824219 29.625 53.585938 C 29.457031 51.023438 29.640625 48.253906 29.792969 45.691406 C 29.976562 42.648438 29.824219 40.507812 30.113281 38.230469 C 30.1875 37.636719 30.191406 36.753906 30.558594 36.265625 C 31.089844 35.558594 31.960938 34.78125 32.757812 34.835938 C 33.890625 34.917969 34.867188 36.535156 34.929688 37.664062 C 35.285156 44.207031 35.425781 48.726562 34.882812 54.066406 C 34.882812 54.066406 34.375 58.582031 34.492188 59.082031 C 34.492188 59.082031 35.816406 50.671875 39.503906 47.359375 C 39.503906 47.359375 45.976562 44.246094 41.328125 53.859375 C 41.328125 53.859375 39.808594 60.148438 38.988281 64.148438 C 38.988281 64.148438 37.679688 72.085938 30.5 77.257812 C 30.5 77.257812 29.660156 85.238281 29.75 87.546875 L 14.4375 87.546875 C 14.4375 87.546875 16.054688 77.148438 14.1875 73.554688 " fill-opacity="1" fill-rule="nonzero"/><path fill="#231f20" d="M 14.1875 73.554688 L 14.8125 73.226562 C 12.980469 69.707031 12.257812 65.621094 12.257812 61.667969 C 12.257812 60.347656 12.339844 59.042969 12.484375 57.78125 C 12.617188 56.613281 12.753906 55.449219 12.886719 54.28125 C 13.152344 51.992188 13.414062 49.703125 13.675781 47.410156 C 13.832031 46.066406 13.988281 44.71875 14.140625 43.371094 C 14.171875 43.101562 14.320312 42.777344 14.527344 42.554688 C 14.628906 42.445312 14.746094 42.359375 14.855469 42.304688 C 14.964844 42.25 15.070312 42.226562 15.171875 42.226562 C 15.265625 42.226562 15.363281 42.242188 15.480469 42.300781 C 15.691406 42.398438 15.832031 42.519531 15.953125 42.667969 C 16.125 42.886719 16.246094 43.191406 16.316406 43.566406 C 16.386719 43.941406 16.410156 44.371094 16.417969 44.796875 C 16.449219 45.886719 16.597656 46.933594 16.648438 47.9375 C 16.765625 50.132812 16.996094 52.300781 17.121094 54.453125 C 17.152344 54.980469 17.21875 55.457031 17.222656 55.875 C 17.222656 56.257812 17.53125 56.570312 17.917969 56.578125 C 18.300781 56.582031 18.617188 56.28125 18.628906 55.890625 C 18.648438 55.359375 18.664062 54.828125 18.679688 54.296875 C 18.722656 52.996094 18.765625 51.695312 18.800781 50.394531 C 18.851562 48.757812 18.90625 47.121094 18.953125 45.480469 C 19 43.925781 19.042969 42.375 19.097656 40.824219 C 19.136719 39.675781 19.128906 38.554688 19.230469 37.476562 C 19.257812 37.117188 19.410156 36.648438 19.632812 36.328125 C 19.742188 36.167969 19.867188 36.042969 19.988281 35.960938 C 20.113281 35.882812 20.226562 35.839844 20.371094 35.835938 L 20.375 35.835938 L 20.394531 35.832031 C 20.511719 35.832031 20.636719 35.871094 20.800781 35.976562 C 20.964844 36.078125 21.148438 36.242188 21.335938 36.425781 C 21.386719 36.476562 21.464844 36.574219 21.539062 36.699219 C 21.652344 36.882812 21.765625 37.128906 21.847656 37.371094 C 21.929688 37.609375 21.980469 37.847656 21.992188 38 C 22.046875 38.640625 22.121094 39.261719 22.222656 39.898438 L 22.222656 39.902344 C 22.476562 41.511719 22.550781 43.253906 22.636719 44.941406 C 22.726562 46.8125 22.828125 48.671875 22.890625 50.527344 C 22.941406 52.082031 22.992188 53.640625 23.050781 55.199219 L 23.050781 55.195312 C 23.078125 55.859375 23.109375 56.519531 23.109375 57.152344 C 23.109375 57.222656 23.109375 57.292969 23.109375 57.363281 L 23.8125 57.371094 L 23.109375 57.320312 L 23.105469 57.363281 L 23.8125 57.410156 L 24.515625 57.40625 C 24.515625 57.40625 24.472656 52.066406 24.429688 46.722656 C 24.410156 44.050781 24.390625 41.375 24.375 39.363281 C 24.367188 38.359375 24.359375 37.515625 24.355469 36.925781 C 24.351562 36.632812 24.351562 36.398438 24.351562 36.238281 C 24.351562 36.160156 24.347656 36.097656 24.347656 36.054688 L 24.347656 35.992188 L 23.945312 35.992188 L 24.347656 35.992188 L 23.945312 35.992188 L 24.347656 35.992188 L 24.347656 35.945312 C 24.34375 35.328125 24.464844 34.328125 24.785156 33.582031 C 24.945312 33.203125 25.144531 32.898438 25.363281 32.710938 C 25.472656 32.613281 25.585938 32.542969 25.707031 32.496094 C 25.832031 32.449219 25.964844 32.421875 26.132812 32.421875 C 26.183594 32.421875 26.242188 32.421875 26.300781 32.429688 C 26.355469 32.433594 26.484375 32.472656 26.636719 32.566406 C 26.863281 32.699219 27.136719 32.933594 27.359375 33.1875 C 27.582031 33.4375 27.761719 33.710938 27.828125 33.867188 C 27.953125 34.148438 28.027344 34.46875 28.070312 34.832031 C 28.113281 35.199219 28.128906 35.597656 28.160156 36.019531 C 28.292969 37.710938 28.492188 39.347656 28.5625 40.992188 C 28.703125 44.4375 28.875 47.871094 28.894531 51.296875 C 28.898438 51.917969 28.925781 52.523438 28.925781 53.105469 C 28.925781 53.257812 28.925781 53.410156 28.921875 53.5625 L 29.625 53.585938 L 30.328125 53.535156 C 30.28125 52.828125 30.261719 52.097656 30.261719 51.359375 C 30.261719 49.496094 30.386719 47.570312 30.496094 45.734375 C 30.589844 44.1875 30.597656 42.878906 30.617188 41.683594 C 30.640625 40.488281 30.675781 39.414062 30.8125 38.320312 L 30.8125 38.316406 C 30.855469 37.980469 30.875 37.625 30.921875 37.316406 C 30.945312 37.164062 30.976562 37.027344 31.011719 36.917969 C 31.046875 36.808594 31.089844 36.734375 31.121094 36.691406 C 31.339844 36.398438 31.640625 36.085938 31.9375 35.863281 C 32.085938 35.753906 32.230469 35.671875 32.359375 35.617188 C 32.488281 35.5625 32.597656 35.542969 32.675781 35.542969 L 32.710938 35.542969 C 32.832031 35.554688 32.984375 35.605469 33.15625 35.730469 C 33.417969 35.914062 33.695312 36.25 33.890625 36.625 C 34.09375 37 34.210938 37.414062 34.226562 37.703125 C 34.414062 41.132812 34.539062 43.996094 34.539062 46.707031 C 34.539062 49.15625 34.4375 51.480469 34.179688 53.996094 L 34.882812 54.066406 L 34.183594 53.988281 C 34.183594 53.988281 34.078125 54.90625 33.976562 55.960938 C 33.925781 56.488281 33.875 57.050781 33.835938 57.554688 C 33.796875 58.0625 33.769531 58.5 33.769531 58.816406 C 33.769531 58.886719 33.769531 58.953125 33.773438 59.019531 C 33.777344 59.085938 33.78125 59.148438 33.804688 59.242188 C 33.882812 59.570312 34.179688 59.800781 34.515625 59.789062 C 34.851562 59.773438 35.132812 59.523438 35.1875 59.191406 L 35.191406 59.171875 C 35.226562 58.945312 35.582031 56.851562 36.359375 54.441406 C 36.75 53.238281 37.246094 51.957031 37.847656 50.800781 C 38.453125 49.636719 39.171875 48.605469 39.972656 47.886719 L 39.503906 47.359375 L 39.808594 47.996094 L 39.742188 47.859375 L 39.808594 47.996094 L 39.742188 47.859375 L 39.808594 47.996094 C 39.816406 47.992188 40.050781 47.882812 40.371094 47.78125 C 40.691406 47.675781 41.101562 47.582031 41.4375 47.585938 C 41.585938 47.585938 41.71875 47.601562 41.820312 47.632812 C 41.898438 47.65625 41.957031 47.6875 42.007812 47.722656 C 42.082031 47.773438 42.136719 47.832031 42.195312 47.964844 C 42.253906 48.09375 42.300781 48.300781 42.300781 48.609375 C 42.300781 49.039062 42.207031 49.652344 41.953125 50.46875 C 41.703125 51.285156 41.296875 52.304688 40.691406 53.550781 C 40.667969 53.597656 40.652344 53.644531 40.640625 53.695312 C 40.640625 53.695312 39.121094 59.980469 38.296875 64.007812 L 38.292969 64.03125 L 38.546875 64.074219 L 38.292969 64.03125 L 38.546875 64.074219 L 38.292969 64.03125 C 38.289062 64.046875 37.960938 65.984375 36.769531 68.523438 C 35.578125 71.066406 33.527344 74.207031 30.089844 76.683594 C 29.925781 76.800781 29.820312 76.980469 29.800781 77.183594 C 29.800781 77.1875 29.609375 78.984375 29.417969 81.125 C 29.324219 82.195312 29.230469 83.351562 29.15625 84.414062 C 29.085938 85.476562 29.039062 86.441406 29.039062 87.148438 C 29.039062 87.300781 29.039062 87.441406 29.046875 87.574219 L 29.75 87.546875 L 29.75 86.835938 L 14.4375 86.835938 L 14.4375 87.546875 L 15.132812 87.65625 C 15.136719 87.636719 15.789062 83.4375 15.792969 79.390625 C 15.792969 78.21875 15.738281 77.0625 15.589844 76.007812 C 15.441406 74.953125 15.210938 74.003906 14.8125 73.226562 L 13.5625 73.882812 C 13.84375 74.421875 14.0625 75.242188 14.195312 76.203125 C 14.328125 77.164062 14.382812 78.265625 14.382812 79.390625 C 14.382812 81.339844 14.21875 83.359375 14.058594 84.882812 C 13.980469 85.648438 13.898438 86.285156 13.839844 86.734375 C 13.808594 86.960938 13.78125 87.136719 13.765625 87.253906 C 13.757812 87.316406 13.75 87.359375 13.746094 87.390625 C 13.742188 87.421875 13.738281 87.4375 13.738281 87.4375 C 13.707031 87.640625 13.765625 87.847656 13.898438 88.007812 C 14.035156 88.164062 14.230469 88.253906 14.4375 88.253906 L 29.75 88.253906 C 29.941406 88.253906 30.125 88.175781 30.257812 88.035156 C 30.390625 87.898438 30.460938 87.707031 30.453125 87.515625 C 30.449219 87.410156 30.449219 87.289062 30.449219 87.148438 C 30.449219 86.503906 30.496094 85.554688 30.566406 84.507812 C 30.671875 82.9375 30.828125 81.140625 30.960938 79.742188 C 31.027344 79.039062 31.089844 78.4375 31.132812 78.011719 C 31.175781 77.582031 31.203125 77.335938 31.203125 77.332031 L 30.5 77.257812 L 30.910156 77.835938 C 34.625 75.15625 36.816406 71.773438 38.074219 69.0625 C 39.335938 66.351562 39.675781 64.308594 39.683594 64.265625 L 38.988281 64.148438 L 39.679688 64.292969 C 40.085938 62.300781 40.667969 59.734375 41.152344 57.664062 C 41.394531 56.628906 41.609375 55.71875 41.761719 55.070312 C 41.839844 54.746094 41.902344 54.484375 41.945312 54.304688 C 41.988281 54.125 42.011719 54.027344 42.011719 54.027344 L 41.328125 53.859375 L 41.960938 54.167969 C 42.585938 52.875 43.019531 51.796875 43.300781 50.890625 C 43.582031 49.980469 43.710938 49.238281 43.710938 48.609375 C 43.710938 48.203125 43.65625 47.839844 43.535156 47.515625 C 43.449219 47.273438 43.320312 47.054688 43.164062 46.875 C 42.925781 46.597656 42.625 46.414062 42.324219 46.308594 C 42.023438 46.203125 41.722656 46.167969 41.4375 46.167969 C 40.847656 46.171875 40.3125 46.3125 39.902344 46.445312 C 39.492188 46.578125 39.21875 46.710938 39.199219 46.71875 C 39.140625 46.746094 39.082031 46.785156 39.035156 46.828125 C 38.019531 47.746094 37.207031 48.960938 36.539062 50.261719 C 35.535156 52.21875 34.859375 54.382812 34.421875 56.066406 C 33.988281 57.75 33.796875 58.953125 33.792969 58.96875 L 34.492188 59.082031 L 35.175781 58.917969 L 34.898438 58.984375 L 35.183594 58.949219 L 35.175781 58.917969 L 34.898438 58.984375 L 35.183594 58.949219 C 35.183594 58.949219 35.179688 58.890625 35.179688 58.816406 C 35.179688 58.582031 35.203125 58.152344 35.242188 57.664062 C 35.296875 56.929688 35.382812 56.046875 35.453125 55.351562 C 35.492188 55.003906 35.523438 54.703125 35.546875 54.488281 C 35.570312 54.273438 35.582031 54.148438 35.582031 54.148438 L 35.585938 54.140625 C 35.84375 51.578125 35.949219 49.199219 35.949219 46.707031 C 35.949219 43.953125 35.820312 41.0625 35.632812 37.625 C 35.613281 37.25 35.523438 36.875 35.382812 36.503906 C 35.171875 35.953125 34.851562 35.417969 34.433594 34.976562 C 34.222656 34.757812 33.988281 34.5625 33.71875 34.414062 C 33.449219 34.261719 33.140625 34.15625 32.808594 34.132812 L 32.757812 34.835938 L 32.820312 34.132812 C 32.765625 34.128906 32.714844 34.125 32.675781 34.125 C 32.371094 34.125 32.082031 34.199219 31.820312 34.308594 C 31.429688 34.472656 31.089844 34.714844 30.78125 34.980469 C 30.480469 35.25 30.214844 35.546875 29.996094 35.839844 C 29.84375 36.042969 29.746094 36.261719 29.675781 36.472656 C 29.570312 36.789062 29.523438 37.105469 29.488281 37.394531 C 29.457031 37.683594 29.4375 37.949219 29.414062 38.140625 C 29.261719 39.320312 29.230469 40.453125 29.207031 41.660156 C 29.1875 42.867188 29.179688 44.148438 29.089844 45.648438 C 28.976562 47.480469 28.851562 49.433594 28.851562 51.359375 C 28.851562 52.125 28.871094 52.882812 28.921875 53.632812 C 28.949219 54.007812 29.261719 54.300781 29.636719 54.292969 C 30.015625 54.285156 30.320312 53.984375 30.332031 53.605469 C 30.335938 53.4375 30.335938 53.269531 30.335938 53.105469 C 30.335938 52.480469 30.308594 51.871094 30.304688 51.289062 C 30.28125 47.820312 30.109375 44.371094 29.96875 40.933594 C 29.898438 39.214844 29.695312 37.558594 29.566406 35.90625 L 29.566406 35.910156 C 29.535156 35.527344 29.523438 35.109375 29.46875 34.664062 C 29.414062 34.21875 29.320312 33.75 29.113281 33.285156 C 29.007812 33.046875 28.863281 32.816406 28.691406 32.585938 C 28.429688 32.242188 28.105469 31.898438 27.738281 31.609375 C 27.554688 31.46875 27.359375 31.335938 27.148438 31.234375 C 26.9375 31.128906 26.707031 31.046875 26.453125 31.019531 L 26.457031 31.019531 C 26.347656 31.007812 26.238281 31.003906 26.132812 31.003906 C 25.800781 31.003906 25.480469 31.0625 25.195312 31.175781 C 24.691406 31.375 24.292969 31.722656 24 32.117188 C 23.554688 32.714844 23.304688 33.417969 23.148438 34.097656 C 22.992188 34.777344 22.9375 35.433594 22.9375 35.945312 L 22.9375 36.003906 L 23.640625 35.992188 L 22.9375 35.992188 L 22.9375 36.015625 C 22.941406 36.730469 23.105469 57.414062 23.105469 57.417969 C 23.109375 57.796875 23.410156 58.105469 23.789062 58.117188 C 24.167969 58.128906 24.488281 57.839844 24.515625 57.457031 L 24.515625 57.417969 L 24.519531 57.375 C 24.519531 57.300781 24.519531 57.230469 24.519531 57.152344 C 24.519531 56.46875 24.484375 55.792969 24.460938 55.144531 L 24.460938 55.140625 C 24.402344 53.59375 24.351562 52.035156 24.300781 50.480469 C 24.238281 48.601562 24.132812 46.738281 24.042969 44.871094 C 23.960938 43.1875 23.886719 41.402344 23.613281 39.679688 C 23.519531 39.074219 23.449219 38.488281 23.398438 37.878906 C 23.363281 37.464844 23.238281 37.019531 23.058594 36.585938 C 22.96875 36.367188 22.863281 36.15625 22.742188 35.957031 C 22.621094 35.761719 22.484375 35.574219 22.316406 35.410156 C 22.109375 35.207031 21.863281 34.976562 21.554688 34.777344 C 21.246094 34.582031 20.851562 34.417969 20.394531 34.417969 C 20.359375 34.417969 20.332031 34.417969 20.308594 34.417969 L 20.3125 34.417969 C 19.902344 34.4375 19.523438 34.574219 19.214844 34.777344 C 18.753906 35.082031 18.433594 35.519531 18.214844 35.96875 C 17.992188 36.421875 17.867188 36.898438 17.824219 37.347656 C 17.71875 38.519531 17.726562 39.667969 17.6875 40.777344 C 17.632812 42.332031 17.589844 43.886719 17.546875 45.4375 C 17.5 47.074219 17.441406 48.710938 17.394531 50.351562 C 17.355469 51.652344 17.3125 52.953125 17.269531 54.253906 C 17.253906 54.785156 17.238281 55.316406 17.222656 55.847656 L 17.925781 55.867188 L 18.628906 55.863281 C 18.625 55.3125 18.550781 54.8125 18.527344 54.371094 C 18.402344 52.175781 18.171875 50.007812 18.058594 47.859375 C 18 46.78125 17.855469 45.742188 17.828125 44.757812 C 17.8125 44.167969 17.789062 43.476562 17.570312 42.785156 C 17.464844 42.441406 17.300781 42.097656 17.054688 41.789062 C 16.8125 41.476562 16.484375 41.207031 16.082031 41.019531 C 15.789062 40.878906 15.472656 40.808594 15.171875 40.808594 C 14.832031 40.808594 14.511719 40.894531 14.230469 41.035156 C 13.804688 41.246094 13.46875 41.570312 13.214844 41.945312 C 12.964844 42.324219 12.792969 42.753906 12.742188 43.210938 L 12.742188 43.207031 C 12.585938 44.554688 12.429688 45.902344 12.277344 47.246094 C 12.015625 49.539062 11.75 51.828125 11.484375 54.117188 C 11.351562 55.285156 11.21875 56.453125 11.082031 57.617188 C 10.933594 58.929688 10.847656 60.289062 10.847656 61.667969 C 10.847656 65.789062 11.597656 70.097656 13.5625 73.882812 L 14.1875 73.554688 " fill-opacity="1" fill-rule="nonzero"/><path fill="#737373" d="M 12.144531 95.851562 L 32.359375 95.851562 L 32.359375 85.347656 L 12.144531 85.347656 L 12.144531 95.851562 " fill-opacity="1" fill-rule="nonzero"/><g clip-path="url(#id2)"><path fill="#231f20" d="M 12.144531 95.851562 L 12.144531 96.5625 L 32.359375 96.5625 C 32.550781 96.5625 32.726562 96.488281 32.859375 96.355469 C 32.992188 96.21875 33.066406 96.042969 33.066406 95.851562 L 33.066406 85.347656 C 33.066406 85.160156 32.992188 84.976562 32.859375 84.847656 C 32.730469 84.714844 32.546875 84.636719 32.359375 84.636719 L 12.144531 84.636719 C 11.957031 84.636719 11.777344 84.714844 11.644531 84.847656 C 11.515625 84.976562 11.441406 85.160156 11.441406 85.347656 L 11.441406 95.851562 C 11.441406 96.039062 11.515625 96.222656 11.644531 96.355469 C 11.777344 96.484375 11.957031 96.5625 12.144531 96.5625 L 12.144531 95.851562 L 12.847656 95.851562 L 12.847656 86.054688 L 31.65625 86.054688 L 31.65625 95.144531 L 12.144531 95.144531 L 12.144531 95.851562 L 12.847656 95.851562 L 12.144531 95.851562 " fill-opacity="1" fill-rule="nonzero"/></g></svg>